<svg width="298" height="229" viewBox="0 0 298 229" fill="none" xmlns="http://www.w3.org/2000/svg">
<path d="M262.861 152.63C259.737 178.552 237.561 198.446 211.083 198.446C202.312 198.446 176.985 206.08 169.381 201.952C155.231 224.322 147.778 228.213 121.683 228.213C87.7213 228.213 57.8666 205.273 48.0426 172.048C20.0206 165.598 0 140.678 0 111.626C0 84.0915 18.5604 59.6975 44.7 52.0772C44.7099 28.8342 63.6429 9.92227 86.9167 9.92227C98.7721 9.92227 109.902 14.8438 117.824 23.3571C129.551 8.61749 147.252 -4.57764e-05 166.383 -4.57764e-05C190.626 -4.57764e-05 212.762 14.3427 222.805 36.1122C227.091 35.1944 231.486 34.728 235.917 34.728C270.152 34.728 298 62.5452 298 96.7425C298 120.7 284.307 142.321 262.861 152.63ZM235.917 44.6504C230.925 44.6504 225.998 45.3548 221.27 46.734C218.772 47.4584 216.139 46.1486 215.226 43.7177C207.632 23.501 188.008 9.92227 166.383 9.92227C148.364 9.92227 131.86 19.026 122.23 34.2716C121.331 35.6955 119.766 36.5686 118.082 36.5885C118.068 36.5885 118.048 36.5885 118.033 36.5885C116.364 36.5885 114.809 35.75 113.886 34.3609C107.881 25.2721 97.7986 19.8446 86.9167 19.8446C69.1161 19.8446 54.6333 34.3113 54.6333 52.0921C54.6333 53.2034 54.688 54.2998 54.8022 55.3813C55.0555 57.8917 53.3817 60.1937 50.9183 60.7245C27.1677 65.899 9.93333 87.3064 9.93333 111.626C9.93333 136.928 28.0021 158.494 52.895 162.914C54.8171 163.252 56.3617 164.685 56.8385 166.576C64.5816 197.027 91.2476 218.291 121.683 218.291C145.841 218.291 151.411 214.538 163.296 192.719C163.967 191.484 165.129 190.591 166.5 190.263C167.856 189.946 169.306 190.199 170.463 190.993C177.481 195.79 211.083 188.524 211.083 188.524C233.339 188.524 251.85 171.16 253.221 148.993C253.335 147.113 254.507 145.466 256.24 144.732C275.576 136.551 288.067 117.718 288.067 96.7425C288.067 68.0174 264.674 44.6504 235.917 44.6504Z" fill="white"/>
<path d="M197.582 122.693C199.559 122.693 201.163 124.186 201.163 126.032V129.372C201.163 131.218 199.559 132.711 197.582 132.711C195.605 132.711 194 131.218 194 129.372V126.032C194 124.186 195.605 122.693 197.582 122.693Z" fill="white"/>
<path d="M197.582 158.763C199.559 158.763 201.163 160.256 201.163 162.103V165.442C201.163 167.288 199.559 168.781 197.582 168.781C195.605 168.781 194 167.288 194 165.442V162.103C194 160.256 195.605 158.763 197.582 158.763Z" fill="white"/>
<path d="M79.4189 120.499C82.1869 120.499 84.4333 122.631 84.4333 125.269V130.039C84.4333 132.677 82.1869 134.81 79.4189 134.81C76.651 134.81 74.4045 132.677 74.4045 130.039V125.269C74.4045 122.631 76.651 120.499 79.4189 120.499Z" fill="white"/>
<path d="M197.5 140.763C199.432 140.763 201 141.657 201 142.763V148.763C201 149.869 199.432 150.763 197.5 150.763C195.568 150.763 194 149.869 194 148.763V142.763C194 141.657 195.568 140.763 197.5 140.763Z" fill="white"/>
<path d="M144.033 138.912C130.345 138.912 117.685 142.152 109.301 147.808C107.03 149.343 106.429 152.432 107.964 154.703C109.499 156.973 112.588 157.566 114.859 156.033C121.544 151.524 132.446 148.835 144.033 148.835C155.621 148.835 166.527 151.524 173.203 156.033C175.473 157.566 178.563 156.974 180.099 154.705C181.636 152.433 181.038 149.344 178.765 147.808C170.386 142.152 157.726 138.912 144.033 138.912Z" fill="white"/>
<circle cx="183.385" cy="97.4736" r="17.1923" stroke="white" stroke-width="9"/>
<circle cx="104.587" cy="97.4736" r="17.1923" stroke="white" stroke-width="9"/>
</svg>
