<svg width="170" height="48" viewBox="0 0 170 48" fill="none" xmlns="http://www.w3.org/2000/svg">
<path d="M162.435 0H6.24761C2.79722 0 0.00012207 2.68629 0.00012207 6V42C0.00012207 45.3137 2.79722 48 6.24761 48H162.435C165.885 48 168.682 45.3137 168.682 42V6C168.682 2.68629 165.885 0 162.435 0Z" fill="#353A3E"/>
<path d="M168 0H6.29642H2.00012C0.895553 0 0.00012207 0.895432 0.00012207 2V46C0.00012207 47.1046 0.895553 48 2.00012 48H6.29642H168C169.105 48 170 47.1052 170 46.0006V42V6V1.99939C170 0.894821 169.105 0 168 0Z" fill="white"/>
<path d="M36.4979 23.7474C36.4627 19.879 39.6948 17.9971 39.8426 17.9095C38.0122 15.2654 35.175 14.9041 34.178 14.8753C31.7951 14.6268 29.4837 16.288 28.2699 16.288C27.0318 16.288 25.1625 14.8993 23.1479 14.9401C20.5555 14.9797 18.1302 16.4668 16.8001 18.776C14.055 23.4845 16.1023 30.4039 18.7323 34.2098C20.0479 36.075 21.5852 38.1549 23.5974 38.0817C25.566 38.0025 26.3013 36.8395 28.6769 36.8395C31.0307 36.8395 31.7212 38.0817 33.7734 38.0349C35.8861 38.0025 37.2162 36.1626 38.4858 34.2818C40.0062 32.1466 40.6167 30.0414 40.641 29.9334C40.5925 29.9166 36.5391 28.3827 36.4979 23.7474ZM32.6213 12.3716C33.6801 11.0598 34.4045 9.27501 34.2034 7.46387C32.671 7.53108 30.7545 8.51407 29.6509 9.79711C28.6745 10.9277 27.8022 12.7809 28.0276 14.5236C29.749 14.6508 31.5165 13.6631 32.6213 12.3716Z" fill="#353A3E"/>
<path d="M65.0113 37.8141H62.2601L60.7531 33.1224H55.5149L54.0793 37.8141H51.4009L56.5918 21.8414H59.7973L65.0113 37.8141ZM60.2988 31.154L58.936 26.9832C58.7918 26.5571 58.5204 25.5537 58.1231 23.9742H58.0746C57.9147 24.6536 57.6591 25.657 57.309 26.9832L55.9692 31.154H60.2988ZM78.3346 31.9138C78.3346 33.8725 77.7979 35.4208 76.7234 36.5574C75.7615 37.5692 74.5658 38.0745 73.14 38.0745C71.6002 38.0745 70.493 37.5308 69.8206 36.441V42.4842H67.2379V30.0822C67.2379 28.852 67.2052 27.5905 67.1422 26.2967H69.4136L69.5578 28.1222H69.6062C70.4675 26.7468 71.7747 26.059 73.5288 26.059C74.9002 26.059 76.045 26.5955 76.9608 27.6697C77.8754 28.7463 78.3346 30.1602 78.3346 31.9138ZM75.7033 32.0074C75.7033 30.8864 75.4489 29.9622 74.9377 29.2336C74.3792 28.4763 73.6294 28.097 72.6893 28.097C72.0521 28.097 71.473 28.3083 70.9557 28.7247C70.4373 29.1448 70.0981 29.6933 69.9394 30.3727C69.8685 30.6267 69.8283 30.8882 69.8194 31.1516V33.0732C69.8194 33.9097 70.0787 34.6167 70.5972 35.1952C71.1157 35.7713 71.7892 36.0605 72.6178 36.0605C73.5906 36.0605 74.3477 35.6873 74.8893 34.9467C75.432 34.2038 75.7033 33.2244 75.7033 32.0074ZM91.7051 31.9138C91.7051 33.8725 91.1684 35.4208 90.0939 36.5574C89.1308 37.5692 87.9363 38.0745 86.5093 38.0745C84.9696 38.0745 83.8623 37.5308 83.19 36.441V42.4842H80.6072V30.0822C80.6072 28.852 80.5745 27.5905 80.5115 26.2967H82.7829L82.9271 28.1222H82.9755C83.8357 26.7468 85.1428 26.059 86.8981 26.059C88.2683 26.059 89.4131 26.5955 90.3313 27.6697C91.2447 28.7463 91.7051 30.1602 91.7051 31.9138ZM89.0727 32.0074C89.0727 30.8864 88.817 29.9622 88.3058 29.2336C87.7473 28.4763 86.9999 28.097 86.0598 28.097C85.4226 28.097 84.8436 28.3083 84.3239 28.7247C83.8054 29.1448 83.4674 29.6933 83.3087 30.3727C83.2299 30.6895 83.1875 30.9476 83.1875 31.1516V33.0732C83.1875 33.9097 83.448 34.6167 83.9641 35.1952C84.4825 35.7701 85.1561 36.0605 85.9871 36.0605C86.9611 36.0605 87.7183 35.6873 88.2586 34.9467C88.8013 34.2038 89.0727 33.2244 89.0727 32.0074ZM106.654 33.3336C106.654 34.6935 106.174 35.7989 105.221 36.6523C104.172 37.5836 102.707 38.0505 100.83 38.0505C99.0948 38.0505 97.7041 37.7193 96.655 37.0555L97.2522 34.9227C98.3849 35.5877 99.629 35.9189 100.983 35.9189C101.957 35.9189 102.715 35.7005 103.255 35.2672C103.796 34.8327 104.07 34.2518 104.07 33.5269C104.07 32.8775 103.844 32.3338 103.399 31.8909C102.952 31.4493 102.213 31.0376 101.175 30.6595C98.3522 29.6165 96.9397 28.091 96.9397 26.0842C96.9397 24.7736 97.4388 23.7006 98.4346 22.8616C99.4304 22.0239 100.751 21.605 102.394 21.605C103.861 21.605 105.083 21.8582 106.053 22.3635L105.405 24.4495C104.492 23.9598 103.461 23.715 102.308 23.715C101.397 23.715 100.682 23.937 100.171 24.3787C99.7405 24.7736 99.5224 25.2549 99.5224 25.8262C99.5224 26.4563 99.7708 26.9796 100.265 27.3901C100.694 27.7682 101.476 28.1798 102.608 28.6215C103.996 29.176 105.016 29.8218 105.669 30.5635C106.327 31.3052 106.654 32.2306 106.654 33.3336ZM115.215 28.217H112.368V33.8089C112.368 35.2312 112.87 35.9405 113.875 35.9405C114.337 35.9405 114.72 35.9021 115.023 35.8217L115.094 37.7649C114.585 37.9533 113.915 38.0481 113.086 38.0481C112.066 38.0481 111.268 37.7397 110.693 37.1227C110.12 36.5058 109.832 35.4724 109.832 34.0178V28.2122H108.136V26.2919H109.832V24.1831L112.368 23.4245V26.2919H115.215V28.217ZM128.035 31.9606C128.035 33.7309 127.523 35.1844 126.503 36.321C125.436 37.4912 124.016 38.0745 122.246 38.0745C120.538 38.0745 119.18 37.514 118.168 36.3942C117.155 35.272 116.648 33.8581 116.648 32.1526C116.648 30.3679 117.172 28.906 118.215 27.7694C119.26 26.6315 120.668 26.0626 122.438 26.0626C124.143 26.0626 125.514 26.6243 126.551 27.7454C127.542 28.8328 128.035 30.237 128.035 31.9606ZM125.357 32.0194C125.357 30.9644 125.127 30.0594 124.666 29.3021C124.124 28.3875 123.349 27.9302 122.345 27.9302C121.31 27.9302 120.516 28.3875 119.976 29.3021C119.513 30.0594 119.283 30.98 119.283 32.0674C119.283 33.1236 119.513 34.031 119.976 34.7859C120.535 35.7005 121.314 36.1578 122.323 36.1578C123.31 36.1578 124.084 35.6909 124.644 34.7631C125.119 33.9877 125.357 33.0768 125.357 32.0194ZM136.433 28.5471C136.165 28.4991 135.892 28.4754 135.619 28.4763C134.711 28.4763 134.008 28.8148 133.514 29.4965C133.085 30.0966 132.869 30.8551 132.869 31.7709V37.8141H130.287V29.9238C130.289 28.7147 130.264 27.5058 130.212 26.2979H132.461L132.556 28.5015H132.627C132.901 27.7442 133.33 27.1332 133.919 26.676C134.457 26.2764 135.112 26.06 135.785 26.059C136.024 26.059 136.24 26.0758 136.431 26.1058L136.433 28.5471ZM147.984 31.5105C147.991 31.8995 147.959 32.2882 147.89 32.6711H140.142C140.171 33.8089 140.546 34.6803 141.266 35.2804C141.919 35.8157 142.763 36.0845 143.8 36.0845C144.947 36.0845 145.994 35.9045 146.935 35.5408L147.34 37.316C146.24 37.7913 144.941 38.0277 143.443 38.0277C141.64 38.0277 140.225 37.502 139.195 36.453C138.168 35.4028 137.653 33.9913 137.653 32.2234C137.653 30.4879 138.132 29.0416 139.09 27.8882C140.093 26.6567 141.449 26.041 143.154 26.041C144.83 26.041 146.098 26.6567 146.96 27.8882C147.642 28.864 147.984 30.0738 147.984 31.5105ZM145.522 30.8467C145.54 30.087 145.37 29.4329 145.02 28.8796C144.573 28.1666 143.885 27.8114 142.963 27.8114C142.119 27.8114 141.431 28.1582 140.907 28.8544C140.477 29.4077 140.222 30.0726 140.143 30.8443L145.522 30.8467Z" fill="#353A3E"/>
<path d="M54.7698 16.1944C54.0515 16.1944 53.43 16.1596 52.9127 16.1008V8.37849C53.6362 8.26776 54.3673 8.21318 55.0993 8.21525C58.0613 8.21525 59.4254 9.65913 59.4254 12.0128C59.4254 14.7277 57.8142 16.1944 54.7698 16.1944ZM55.2035 9.20544C54.8038 9.20544 54.4633 9.22945 54.1811 9.28706V15.1574C54.3337 15.1814 54.6269 15.1922 55.0388 15.1922C56.9795 15.1922 58.0843 14.0976 58.0843 12.0476C58.0843 10.2196 57.0849 9.20544 55.2035 9.20544ZM63.6762 16.2532C62.0069 16.2532 60.9251 15.0182 60.9251 13.3414C60.9251 11.5939 62.0299 10.3481 63.7707 10.3481C65.4159 10.3481 66.5219 11.5243 66.5219 13.249C66.5219 15.0182 65.3819 16.2532 63.6762 16.2532ZM63.7247 11.2674C62.8077 11.2674 62.2201 12.1172 62.2201 13.3054C62.2201 14.4709 62.8198 15.3206 63.7126 15.3206C64.6054 15.3206 65.2051 14.412 65.2051 13.2814C65.2051 12.1292 64.6175 11.2674 63.7247 11.2674ZM76.0413 10.4645L74.2544 16.1248H73.0903L72.3501 13.6667C72.166 13.0654 72.0128 12.4553 71.8909 11.8388H71.8667C71.7734 12.4557 71.5966 13.0738 71.4088 13.6667L70.6214 16.1248H69.4451L67.7636 10.4645H69.0683L69.7152 13.1554C69.8679 13.7963 69.9963 14.4012 70.1029 14.9726H70.1271C70.2204 14.4961 70.373 13.9007 70.5971 13.1674L71.4088 10.4657H72.4433L73.2199 13.1098C73.4076 13.7507 73.5603 14.3796 73.679 14.9738H73.7129C73.7953 14.3916 73.9249 13.7735 74.1006 13.1098L74.7947 10.4657L76.0413 10.4645ZM82.6193 16.1248H81.3498V12.8745C81.3498 11.8736 80.9621 11.3719 80.1977 11.3719C79.4454 11.3719 78.9281 12.0128 78.9281 12.7581V16.1248H77.6585V12.0824C77.6585 11.5819 77.6464 11.0454 77.6113 10.4633H78.7282L78.7876 11.3371H78.8227C79.1644 10.7321 79.8573 10.3481 80.6338 10.3481C81.8331 10.3481 82.6205 11.2566 82.6205 12.7353L82.6193 16.1248ZM86.1204 16.1248H84.8496V7.86719H86.1204V16.1248ZM90.7492 16.2532C89.0811 16.2532 87.9981 15.0182 87.9981 13.3414C87.9981 11.5939 89.1029 10.3481 90.8425 10.3481C92.4888 10.3481 93.5937 11.5243 93.5937 13.249C93.5949 15.0182 92.4537 16.2532 90.7492 16.2532ZM90.7965 11.2674C89.8794 11.2674 89.2919 12.1172 89.2919 13.3054C89.2919 14.4709 89.8928 15.3206 90.7831 15.3206C91.6772 15.3206 92.2756 14.412 92.2756 13.2814C92.2768 12.1292 91.6905 11.2674 90.7965 11.2674ZM98.5993 16.1248L98.5072 15.473H98.4733C98.0856 15.9976 97.5199 16.2532 96.8027 16.2532C95.7791 16.2532 95.0522 15.5427 95.0522 14.5873C95.0522 13.1902 96.2746 12.4677 98.3909 12.4677V12.3633C98.3909 11.6179 97.9923 11.2446 97.2049 11.2446C96.6416 11.2446 96.1474 11.3851 95.7124 11.6647L95.4544 10.8378C95.9826 10.5113 96.6416 10.3481 97.4157 10.3481C98.9082 10.3481 99.6617 11.1282 99.6617 12.6897V14.7745C99.6617 15.3458 99.6871 15.7887 99.7441 16.126L98.5993 16.1248ZM98.4248 13.3054C97.0147 13.3054 96.3073 13.6439 96.3073 14.4469C96.3073 15.041 96.6719 15.3314 97.1783 15.3314C97.824 15.3314 98.4248 14.8429 98.4248 14.1792V13.3054ZM105.827 16.1248L105.767 15.2162H105.732C105.368 15.9027 104.755 16.2532 103.898 16.2532C102.521 16.2532 101.501 15.053 101.501 13.3642C101.501 11.5939 102.558 10.3469 104.002 10.3469C104.767 10.3469 105.308 10.6025 105.613 11.1162H105.639V7.86719H106.91V14.5993C106.91 15.1466 106.923 15.6591 106.957 16.1248H105.827ZM105.639 12.7941C105.639 12.002 105.109 11.3263 104.301 11.3263C103.36 11.3263 102.785 12.1532 102.785 13.3174C102.785 14.4589 103.382 15.2402 104.276 15.2402C105.074 15.2402 105.639 14.5525 105.639 13.7375V12.7941ZM114.967 16.2532C113.299 16.2532 112.217 15.0182 112.217 13.3414C112.217 11.5939 113.322 10.3481 115.061 10.3481C116.708 10.3481 117.813 11.5243 117.813 13.249C117.814 15.0182 116.674 16.2532 114.967 16.2532ZM115.014 11.2674C114.098 11.2674 113.511 12.1172 113.511 13.3054C113.511 14.4709 114.11 15.3206 115.002 15.3206C115.896 15.3206 116.494 14.412 116.494 13.2814C116.497 12.1292 115.909 11.2674 115.014 11.2674ZM124.64 16.1248H123.369V12.8745C123.369 11.8736 122.982 11.3719 122.217 11.3719C121.465 11.3719 120.949 12.0128 120.949 12.7581V16.1248H119.678V12.0824C119.678 11.5819 119.666 11.0454 119.631 10.4633H120.748L120.807 11.3371H120.842C121.183 10.7321 121.877 10.3469 122.652 10.3469C123.851 10.3469 124.64 11.2554 124.64 12.7341V16.1248ZM133.182 11.4079H131.785V14.1564C131.785 14.8561 132.03 15.2054 132.524 15.2054C132.748 15.2054 132.936 15.1814 133.087 15.1466L133.123 16.102C132.877 16.1956 132.547 16.2424 132.138 16.2424C131.137 16.2424 130.539 15.6951 130.539 14.262V11.4079H129.705V10.4645H130.539V9.42749L131.785 9.05422V10.4633H133.182V11.4079ZM139.903 16.1248H138.635V12.8986C138.635 11.8856 138.248 11.3731 137.482 11.3731C136.825 11.3731 136.212 11.8159 136.212 12.7125V16.1248H134.943V7.86719H136.212V11.2674H136.237C136.637 10.6505 137.216 10.3469 137.955 10.3469C139.164 10.3469 139.903 11.2782 139.903 12.7581V16.1248ZM146.789 13.5971H142.979C143.003 14.6689 143.719 15.2738 144.779 15.2738C145.342 15.2738 145.861 15.1802 146.319 15.0062L146.516 15.8799C145.976 16.1128 145.34 16.2292 144.6 16.2292C142.813 16.2292 141.755 15.1106 141.755 13.3762C141.755 11.6407 142.838 10.3361 144.457 10.3361C145.916 10.3361 146.832 11.4079 146.832 13.027C146.84 13.2181 146.826 13.4094 146.789 13.5971ZM145.624 12.7005C145.624 11.8267 145.18 11.2098 144.368 11.2098C143.639 11.2098 143.062 11.8388 142.98 12.7005H145.624Z" fill="#353A3E"/>
</svg>
