<svg xmlns="http://www.w3.org/2000/svg">

	<symbol id="hourly-arrow" viewBox="0 0 20 17">
        	<g>
<path d="M1.14346 16.1699L19.287 9.01785C19.4997 8.93399 19.6395 8.72863 19.6395 8.5C19.6395 8.27137 19.4997 8.06596 19.287 7.98212L1.14344 0.830099C0.936402 0.748492 0.701763 0.798297 0.545816 0.954243C0.538391 0.961669 0.531121 0.969357 0.524115 0.977202C0.368824 1.15112 0.338359 1.40337 0.447807 1.60923L3.1226 6.64104C3.74137 7.80503 3.74137 9.19492 3.1226 10.359L0.447807 15.3908C0.338412 15.5966 0.36885 15.8489 0.524113 16.0228C0.679377 16.1967 0.926561 16.2554 1.14346 16.1699Z" />
		</g>
	</symbol>

	<symbol id="arrow-up" viewBox="0 0 10 16">
        	<g>
<path d="M5.42426 0.575735C5.18995 0.34142 4.81005 0.34142 4.57574 0.575735L0.757359 4.39411C0.523044 4.62843 0.523044 5.00833 0.757359 5.24264C0.991673 5.47695 1.37157 5.47695 1.60589 5.24264L5 1.84853L8.39411 5.24264C8.62843 5.47695 9.00833 5.47695 9.24264 5.24264C9.47695 5.00833 9.47695 4.62843 9.24264 4.39411L5.42426 0.575735ZM5.6 16L5.6 0.999999L4.4 0.999999L4.4 16L5.6 16Z" />
		</g>
	</symbol>

</svg>
