<svg width="40" height="40" viewBox="0 0 40 40" fill="none" xmlns="http://www.w3.org/2000/svg">
<rect width="40" height="40" rx="2" fill="white"/>
<path d="M20 24.3164C22.3839 24.3164 24.3164 22.3839 24.3164 20C24.3164 17.6161 22.3839 15.6836 20 15.6836C17.6161 15.6836 15.6836 17.6161 15.6836 20C15.6836 22.3839 17.6161 24.3164 20 24.3164Z" fill="#353A3E"/>
<path d="M14.295 18.7514C14.8684 16.1293 17.2084 14.1602 20 14.1602H31.6218C31.0052 12.936 30.1898 11.805 29.1924 10.8076C26.737 8.35225 23.4724 7 20 7C16.5276 7 13.263 8.35225 10.8076 10.8076C10.5714 11.0437 10.3458 11.2875 10.1303 11.538L14.295 18.7514Z" fill="#353A3E"/>
<path d="M21.7712 25.5652C21.2124 25.7435 20.6172 25.8401 20 25.8401C17.8307 25.8401 15.934 24.6511 14.9271 22.8906C14.9198 22.8795 14.9127 22.8684 14.906 22.8569L9.13337 12.8584C7.74552 14.9607 7 17.4231 7 20.0003C7 23.4727 8.35225 26.7373 10.8076 29.1927C12.6887 31.0737 15.0449 32.3064 17.6055 32.7806L21.7712 25.5652Z" fill="#353A3E"/>
<path d="M23.9294 15.6836C25.1025 16.7524 25.8398 18.2917 25.8398 20C25.8398 21.0744 25.5478 22.0818 25.0395 22.9475C25.0343 22.9575 25.0299 22.9676 25.0242 22.9774L19.2504 32.9781C19.4991 32.9921 19.7489 33 20 33C23.4724 33 26.737 31.6477 29.1924 29.1924C31.6477 26.737 33 23.4724 33 20C33 18.5067 32.7492 17.0521 32.2689 15.6836H23.9294Z" fill="#353A3E"/>
</svg>
