<svg width="70" height="70" viewBox="0 0 70 70" fill="none" xmlns="http://www.w3.org/2000/svg">
<g opacity="0.5">
<path d="M56.6174 23.0371V33.3593C56.6174 34.6822 58.6723 34.6822 58.6723 33.3593V23.0371C58.6723 21.7142 56.6174 21.7142 56.6174 23.0371Z" fill="#333333"/>
<path d="M61.6694 34.3847C62.2372 34.3847 62.6969 33.9254 62.6969 33.3593V23.0371C62.6969 21.7142 60.642 21.7142 60.642 23.0371V33.3593C60.642 33.9254 61.1022 34.3847 61.6694 34.3847Z" fill="#333333"/>
<path d="M35.8786 12.168C35.3114 12.168 34.8511 12.6273 34.8511 13.1934V45.0488C34.8511 45.6149 35.3114 46.0742 35.8786 46.0742C36.4464 46.0742 36.906 45.6149 36.906 45.0488V13.1934C36.906 12.6273 36.4458 12.168 35.8786 12.168Z" fill="#333333"/>
<path d="M25.7906 12.168C25.2229 12.168 24.7632 12.6273 24.7632 13.1934V45.0488C24.7632 45.6149 25.2229 46.0742 25.7906 46.0742C26.3579 46.0742 26.8181 45.6149 26.8181 45.0488V13.1934C26.8181 12.6273 26.3579 12.168 25.7906 12.168Z" fill="#333333"/>
<path d="M30.9813 12.168C30.4135 12.168 29.9538 12.6273 29.9538 13.1934V45.0488C29.9538 45.6149 30.4135 46.0742 30.9813 46.0742C31.5485 46.0742 32.0087 45.6149 32.0087 45.0488V13.1934C32.0087 12.6273 31.5485 12.168 30.9813 12.168Z" fill="#333333"/>
<path d="M5.90686 55.8933H18.4804C19.8054 55.8933 19.8054 53.8425 18.4804 53.8425H5.90686C4.58134 53.8425 4.58134 55.8933 5.90686 55.8933Z" fill="#333333"/>
<path d="M5.90686 60.2415H18.4804C19.8054 60.2415 19.8054 58.1907 18.4804 58.1907H5.90686C4.58134 58.1907 4.58134 60.2415 5.90686 60.2415Z" fill="#333333"/>
<path d="M5.90686 64.5901H18.4804C19.8054 64.5901 19.8054 62.5393 18.4804 62.5393H5.90686C4.58134 62.5393 4.58134 64.5901 5.90686 64.5901Z" fill="#333333"/>
<path d="M8.06127 20.7966C6.73895 20.7966 6.73681 22.8474 8.06127 22.8474C9.38305 22.8474 9.38572 20.7966 8.06127 20.7966Z" fill="#333333"/>
<path d="M12.1936 20.7966C10.8713 20.7966 10.8691 22.8474 12.1936 22.8474C13.5159 22.8474 13.518 20.7966 12.1936 20.7966Z" fill="#333333"/>
<path d="M16.3266 20.7966C15.0043 20.7966 15.0021 22.8474 16.3266 22.8474C17.6489 22.8474 17.651 20.7966 16.3266 20.7966Z" fill="#333333"/>
<path d="M8.06127 25.3618C6.73895 25.3618 6.73681 27.4126 8.06127 27.4126C9.38305 27.4126 9.38572 25.3618 8.06127 25.3618Z" fill="#333333"/>
<path d="M12.1936 25.3618C10.8713 25.3618 10.8691 27.4126 12.1936 27.4126C13.5159 27.4126 13.518 25.3618 12.1936 25.3618Z" fill="#333333"/>
<path d="M16.3266 25.3618C15.0043 25.3618 15.0021 27.4126 16.3266 27.4126C17.6489 27.4126 17.651 25.3618 16.3266 25.3618Z" fill="#333333"/>
<path d="M8.06127 29.927C6.73895 29.927 6.73681 31.9778 8.06127 31.9778C9.38305 31.9778 9.38572 29.927 8.06127 29.927Z" fill="#333333"/>
<path d="M12.1936 29.927C10.8713 29.927 10.8691 31.9778 12.1936 31.9778C13.5159 31.9778 13.518 29.927 12.1936 29.927Z" fill="#333333"/>
<path d="M16.3266 29.927C15.0043 29.927 15.0021 31.9778 16.3266 31.9778C17.6489 31.9778 17.651 29.927 16.3266 29.927Z" fill="#333333"/>
<path d="M8.06127 34.4922C6.73895 34.4922 6.73681 36.543 8.06127 36.543C9.38305 36.543 9.38572 34.4922 8.06127 34.4922Z" fill="#333333"/>
<path d="M12.1936 34.4922C10.8713 34.4922 10.8691 36.543 12.1936 36.543C13.5159 36.543 13.518 34.4922 12.1936 34.4922Z" fill="#333333"/>
<path d="M16.3266 34.4922C15.0043 34.4922 15.0021 36.543 16.3266 36.543C17.6489 36.543 17.651 34.4922 16.3266 34.4922Z" fill="#333333"/>
<path d="M8.06127 39.0574C6.73895 39.0574 6.73681 41.1082 8.06127 41.1082C9.38305 41.1082 9.38572 39.0574 8.06127 39.0574Z" fill="#333333"/>
<path d="M12.1936 39.0574C10.8713 39.0574 10.8691 41.1082 12.1936 41.1082C13.5159 41.1082 13.518 39.0574 12.1936 39.0574Z" fill="#333333"/>
<path d="M16.3266 39.0574C15.0043 39.0574 15.0021 41.1082 16.3266 41.1082C17.6489 41.1082 17.651 39.0574 16.3266 39.0574Z" fill="#333333"/>
<path d="M8.06127 43.6228C6.73895 43.6228 6.73681 45.6736 8.06127 45.6736C9.38305 45.6736 9.38572 43.6228 8.06127 43.6228Z" fill="#333333"/>
<path d="M12.1936 43.6228C10.8713 43.6228 10.8691 45.6736 12.1936 45.6736C13.5159 45.6736 13.518 43.6228 12.1936 43.6228Z" fill="#333333"/>
<path d="M16.3266 43.6228C15.0043 43.6228 15.0021 45.6736 16.3266 45.6736C17.6489 45.6736 17.651 43.6228 16.3266 43.6228Z" fill="#333333"/>
<path d="M51.2117 44.7677C51.7794 44.7677 52.2391 44.309 52.2391 43.7423V40.8862C52.2391 39.5633 50.1842 39.5633 50.1842 40.8862V43.7423C50.1842 44.309 50.6439 44.7677 51.2117 44.7677Z" fill="#333333"/>
<path d="M46.0948 51.467C46.6621 51.467 47.1223 51.0082 47.1223 50.4416V40.9471C47.1234 39.5698 45.0733 39.5495 45.0674 40.9471V50.4416C45.0674 51.0082 45.5271 51.467 46.0948 51.467Z" fill="#333333"/>
<path d="M51.2117 57.9686C51.7794 57.9686 52.2391 57.5093 52.2391 56.9432V47.5854C52.2391 46.2625 50.1842 46.2625 50.1842 47.5854V56.9432C50.1842 57.5093 50.6439 57.9686 51.2117 57.9686Z" fill="#333333"/>
<path d="M46.0948 58.1662C46.6621 58.1662 47.1223 57.7074 47.1223 57.1408V54.2846C47.1223 52.9618 45.0674 52.9618 45.0674 54.2846V57.1408C45.0674 57.7074 45.5271 58.1662 46.0948 58.1662Z" fill="#333333"/>
<path d="M46.0948 64.8654C46.6621 64.8654 47.1223 64.4066 47.1223 63.84V60.9838C47.1223 59.661 45.0674 59.661 45.0674 60.9838V63.84C45.0674 64.4066 45.5271 64.8654 46.0948 64.8654Z" fill="#333333"/>
<path d="M51.2117 64.8654C51.7794 64.8654 52.2391 64.4066 52.2391 63.84V60.9838C52.2391 59.661 50.1842 59.661 50.1842 60.9838V63.84C50.1842 64.4066 50.6439 64.8654 51.2117 64.8654Z" fill="#333333"/>
<path d="M69.9441 17.3622L68.4372 13.1239C68.2916 12.7148 67.9037 12.4414 67.4686 12.4414H65.5394L60.8308 4.53468C60.6456 4.22386 60.3096 4.0332 59.9473 4.0332H58.6721V1.02539C58.6721 -0.29747 56.6172 -0.29747 56.6172 1.02539V4.0332H54.757C54.3749 4.0332 54.0244 4.24522 53.8468 4.58275L49.7225 12.4414H47.8206C47.3861 12.4414 46.9981 12.7148 46.8526 13.1239L45.3456 17.3622C45.1134 18.0159 45.6303 18.7305 46.3137 18.7305H47.8816V28.2111L41.8769 23.1749V7.72461C41.8769 7.15851 41.4167 6.69922 40.8494 6.69922H38.1486V1.02539C38.1486 0.45929 37.6889 0 37.1212 0H24.5477C23.9804 0 23.5202 0.45929 23.5202 1.02539V6.69922H20.8199C20.2521 6.69922 19.7925 7.15851 19.7925 7.72461V15.5229H17.7375V5.4068C17.7375 4.6666 16.9183 4.15657 16.2504 4.48982L7.21735 9.00154C6.86951 9.17564 6.64957 9.53026 6.64957 9.91852V15.5229H3.65657C3.08879 15.5229 2.62911 15.9822 2.62911 16.5483V48.5699H1.02746C0.45968 48.5699 0 49.0286 0 49.5953V63.9844C0 65.3072 2.05491 65.3072 2.05491 63.9844V50.6207H22.3322V67.9492H2.05491V63.9844C2.05491 62.6615 0 62.6615 0 63.9844V68.9746C0 69.5407 0.45968 70 1.02746 70H64.0443C65.3698 70 65.3698 67.9492 64.0443 67.9492H57.4841V36.7432C57.4841 36.4404 57.3498 36.153 57.1175 35.9581L54.5462 33.801C54.6104 33.6675 54.6473 33.518 54.6473 33.3594V23.0371C54.6473 21.7142 52.5924 21.7142 52.5924 23.0371V32.1626L49.9365 29.935V18.7988H65.3527V67.9492H64.0443C62.7187 67.9492 62.7187 70 64.0443 70H66.3801C66.9479 70 67.4076 69.5407 67.4076 68.9746V18.7305H68.9755C69.6573 18.7305 70.1753 18.0138 69.9441 17.3622ZM25.5751 2.05078H36.0937V6.69922H25.5751V2.05078ZM8.70449 10.5524L15.6826 7.06665V15.5229H8.70449V10.5524ZM4.68403 48.5699V17.5737H7.5288C7.57749 17.5806 7.62673 17.586 7.67703 17.586H16.7101C16.7609 17.586 16.8102 17.5806 16.8589 17.5737H19.7036V48.5699H4.68403ZM55.4292 67.9492H41.8769V35.8203C41.8769 35.2542 41.4172 34.7949 40.8494 34.7949C40.2817 34.7949 39.822 35.2542 39.822 35.8203V67.9492H24.3871V49.5953C24.3871 49.0286 23.9274 48.5699 23.3597 48.5699H21.8474V8.75H39.822V30.625C39.822 31.1911 40.2817 31.6504 40.8494 31.6504C41.4172 31.6504 41.8769 31.1911 41.8769 30.625V25.8537L55.4292 37.2206V67.9492ZM55.3789 6.08398H59.3629L63.149 12.4414H52.0423L55.3789 6.08398ZM47.7687 16.6797L48.5468 14.4922H66.743L67.521 16.6797H47.7687Z" fill="#333333"/>
<path d="M61.7046 37.8027C60.3823 37.8027 60.3801 39.8535 61.7046 39.8535C63.0269 39.8535 63.029 37.8027 61.7046 37.8027Z" fill="#333333"/>
<path d="M61.7046 42.752C60.3823 42.752 60.3801 44.8027 61.7046 44.8027C63.0269 44.8027 63.029 42.752 61.7046 42.752Z" fill="#333333"/>
<path d="M61.7046 47.7009C60.3823 47.7009 60.3801 49.7517 61.7046 49.7517C63.0269 49.7517 63.029 47.7009 61.7046 47.7009Z" fill="#333333"/>
<path d="M61.7046 52.6506C60.3823 52.6506 60.3801 54.7014 61.7046 54.7014C63.0269 54.7014 63.029 52.6506 61.7046 52.6506Z" fill="#333333"/>
<path d="M61.7046 57.5996C60.3823 57.5996 60.3801 59.6504 61.7046 59.6504C63.0269 59.6504 63.029 57.5996 61.7046 57.5996Z" fill="#333333"/>
<path d="M61.7046 62.5488C60.3823 62.5488 60.3801 64.5996 61.7046 64.5996C63.0269 64.5996 63.029 62.5488 61.7046 62.5488Z" fill="#333333"/>
</g>
</svg>
