<svg width="56" height="56" viewBox="0 0 56 56" fill="none" xmlns="http://www.w3.org/2000/svg">
<circle cx="28" cy="28" r="28" fill="#F2F2F2"/>
<path d="M28.4016 17.5625C28.1423 17.5625 27.9319 17.7725 27.9319 18.0312V32.5938C27.9319 32.8525 28.1423 33.0625 28.4016 33.0625C28.6612 33.0625 28.8713 32.8525 28.8713 32.5938V18.0312C28.8713 17.7725 28.661 17.5625 28.4016 17.5625Z" fill="#4D9335"/>
<path d="M23.79 17.5625C23.5305 17.5625 23.3203 17.7725 23.3203 18.0312V32.5938C23.3203 32.8525 23.5305 33.0625 23.79 33.0625C24.0493 33.0625 24.2597 32.8525 24.2597 32.5938V18.0312C24.2597 17.7725 24.0493 17.5625 23.79 17.5625Z" fill="#4D9335"/>
<path d="M26.1629 17.5625C25.9033 17.5625 25.6932 17.7725 25.6932 18.0312V32.5938C25.6932 32.8525 25.9033 33.0625 26.1629 33.0625C26.4222 33.0625 26.6326 32.8525 26.6326 32.5938V18.0312C26.6326 17.7725 26.4222 17.5625 26.1629 17.5625Z" fill="#4D9335"/>
<path d="M43.9745 19.937L43.2856 17.9995C43.219 17.8125 43.0417 17.6875 42.8428 17.6875H41.9609L39.8084 14.073C39.7237 13.9309 39.5701 13.8438 39.4045 13.8438H38.8215V12.4688C38.8215 11.864 37.8821 11.864 37.8821 12.4688V13.8438H37.0318C36.8571 13.8438 36.6969 13.9407 36.6157 14.095L34.7303 17.6875H33.8609C33.6622 17.6875 33.4849 17.8125 33.4183 17.9995L32.7294 19.937C32.6233 20.2358 32.8596 20.5625 33.172 20.5625H33.8887V24.8965L31.1437 22.5942V15.5312C31.1437 15.2725 30.9333 15.0625 30.674 15.0625H29.4394V12.4688C29.4394 12.21 29.2292 12 28.9697 12H23.2218C22.9625 12 22.7521 12.21 22.7521 12.4688V15.0625H21.5177C21.2581 15.0625 21.048 15.2725 21.048 15.5312V19.0962H20.1086V14.4717C20.1086 14.1333 19.7341 13.9001 19.4288 14.0525L15.2994 16.115C15.1403 16.1946 15.0398 16.3567 15.0398 16.5342V19.0962H13.6716C13.412 19.0962 13.2019 19.3062 13.2019 19.5649V34.2034H12.4697C12.2101 34.2034 12 34.4131 12 34.6721V41.25C12 41.8547 12.9394 41.8547 12.9394 41.25V35.1409H22.209V43.0625H12.9394V41.25C12.9394 40.6453 12 40.6453 12 41.25V43.5312C12 43.79 12.2101 44 12.4697 44H41.2774C41.8833 44 41.8833 43.0625 41.2774 43.0625H38.2784V28.7969C38.2784 28.6584 38.217 28.5271 38.1109 28.438L36.9354 27.4519C36.9648 27.3909 36.9816 27.3225 36.9816 27.25V22.5312C36.9816 21.9265 36.0422 21.9265 36.0422 22.5312V26.7029L34.8281 25.6846V20.5938H41.8755V43.0625H41.2774C40.6714 43.0625 40.6714 44 41.2774 44H42.3452C42.6048 44 42.8149 43.79 42.8149 43.5312V20.5625H43.5317C43.8433 20.5625 44.0801 20.2349 43.9745 19.937ZM23.6915 12.9375H28.5V15.0625H23.6915V12.9375ZM15.9792 16.824L19.1692 15.2305V19.0962H15.9792V16.824ZM14.1413 34.2034V20.0337H15.4417C15.464 20.0369 15.4865 20.0393 15.5095 20.0393H19.6389C19.6621 20.0393 19.6846 20.0369 19.7069 20.0337H21.0074V34.2034H14.1413ZM37.339 43.0625H31.1437V28.375C31.1437 28.1162 30.9336 27.9062 30.674 27.9062C30.4145 27.9062 30.2043 28.1162 30.2043 28.375V43.0625H23.1484V34.6721C23.1484 34.4131 22.9383 34.2034 22.6787 34.2034H21.9874V16H30.2043V26C30.2043 26.2588 30.4145 26.4688 30.674 26.4688C30.9336 26.4688 31.1437 26.2588 31.1437 26V23.8188L37.339 29.0151V43.0625ZM37.316 14.7812H39.1373L40.8681 17.6875H35.7908L37.316 14.7812ZM33.8371 19.625L34.1928 18.625H42.5111L42.8668 19.625H33.8371Z" fill="#4D9335"/>
</svg>
