<svg width="12" height="12" viewBox="0 0 12 12" fill="none" xmlns="http://www.w3.org/2000/svg">
<path d="M2.006 10.9516L5.99997 6.95764L9.994 10.9517C10.2584 11.2161 10.6872 11.2161 10.9516 10.9517C11.216 10.6872 11.216 10.2585 10.9516 9.99407L6.95757 6.00003L10.9517 2.00593C11.2161 1.7415 11.2161 1.31276 10.9517 1.04833C10.6872 0.783891 10.2585 0.783891 9.99407 1.04833L5.99997 5.04243L2.00593 1.0484C1.7415 0.78396 1.31276 0.78396 1.04833 1.0484C0.783891 1.31283 0.783891 1.74157 1.04833 2.006L5.04236 6.00003L1.04839 9.994C0.783955 10.2584 0.783955 10.6872 1.04839 10.9516C1.31283 11.216 1.74156 11.216 2.006 10.9516Z" fill="#C4C4C4" stroke="#C4C4C4" stroke-width="0.3"/>
</svg>
