<svg width="29" height="20" viewBox="0 0 29 20" fill="none" xmlns="http://www.w3.org/2000/svg">
<path d="M27.0626 4.63031C27.0387 4.1988 26.9061 3.78018 26.677 3.41288C26.4479 3.04559 26.1297 2.74141 25.7515 2.52827C25.3732 2.31514 24.9472 2.19989 24.5125 2.19311C24.0778 2.18633 23.6483 2.28823 23.2635 2.48946C21.749 -1.80545 16.7711 0.21316 16.8376 2.89032C16.2146 2.98946 15.6179 3.2115 15.0826 3.54337C15.7369 4.17384 16.27 4.91761 16.6559 5.73818C17.1182 5.62086 17.5935 5.56166 18.0707 5.56198C19.4275 5.55286 20.7389 6.04771 21.7479 6.94956C22.5961 7.71338 23.1641 8.73637 23.3621 9.85689C24.4047 9.85689 25.393 9.85688 26.2095 9.84807C26.599 9.84939 26.9847 9.77197 27.3431 9.62052C27.7016 9.46906 28.0253 9.24674 28.2946 8.96707C28.6032 8.6349 28.8208 8.22961 28.9268 7.78996C29.0328 7.3503 29.0235 6.89098 28.8999 6.45589C28.7763 6.02081 28.5425 5.62451 28.2208 5.30489C27.8992 4.98527 27.5004 4.753 27.0626 4.63031Z" fill="#B2B2B2"/>
<path d="M1.33322 17.4324C-1.00229 14.3312 -0.63003 8.82493 5.37272 7.76992C5.26193 3.33074 13.5249 -0.0269892 16.0365 7.10256C16.6754 6.7667 17.389 6.59601 18.1116 6.6062C18.8343 6.6164 19.5427 6.80715 20.1717 7.1609C20.8007 7.51464 21.3301 8.02001 21.711 8.63046C22.092 9.24092 22.3123 9.93683 22.3517 10.6541C23.0771 10.8602 23.7374 11.2472 24.2698 11.7785C24.8023 12.3097 25.1891 12.9675 25.3936 13.6893C25.5982 14.4111 25.6136 15.1729 25.4383 15.9022C25.2631 16.6316 24.9031 17.3043 24.3925 17.8563C23.9464 18.3214 23.4096 18.6912 22.8149 18.943C22.2202 19.1948 21.58 19.3235 20.9336 19.321C16.3678 19.3486 8.52478 19.321 5.17773 19.321C4.43328 19.3251 3.69815 19.1565 3.03076 18.8286C2.36337 18.5008 1.78212 18.0227 1.33322 17.4324Z" fill="#B2B2B2"/>
</svg>
