<svg width="40" height="40" viewBox="0 0 40 40" fill="none" xmlns="http://www.w3.org/2000/svg">
<rect width="40" height="40" rx="2" fill="white"/>
<mask id="path-2-inside-1" fill="white">
<path d="M24.7509 10.2818H27.4201V5.6001C26.8979 5.6001 25.3759 5.6001 23.5315 5.6001C15.0867 5.6001 17.3843 14.8225 17.048 16.1735H12.8V21.1853H17.0468V33.7959H22.2536V21.1865H26.9754V16.1747H22.2523C22.4814 12.857 21.3253 10.2818 24.7509 10.2818Z"/>
</mask>
<path d="M24.7509 10.2818H27.4201V5.6001C26.8979 5.6001 25.3759 5.6001 23.5315 5.6001C15.0867 5.6001 17.3843 14.8225 17.048 16.1735H12.8V21.1853H17.0468V33.7959H22.2536V21.1865H26.9754V16.1747H22.2523C22.4814 12.857 21.3253 10.2818 24.7509 10.2818Z" fill="#9A9A9A"/>
<path d="M27.4201 10.2818V31.6151H48.7534V10.2818H27.4201ZM27.4201 5.6001H48.7534V-15.7332L27.4201 -15.7332L27.4201 5.6001ZM17.048 16.1735V37.5069H33.7229L37.7499 21.3256L17.048 16.1735ZM12.8 16.1735V-5.15981H-8.53329V16.1735H12.8ZM12.8 21.1853H-8.53329V42.5187H12.8V21.1853ZM17.0468 21.1853H38.3801V-0.148013H17.0468V21.1853ZM17.0468 33.7959H-4.28652V55.1292H17.0468V33.7959ZM22.2536 33.7959V55.1292H43.5869V33.7959H22.2536ZM22.2536 21.1865V-0.146838H0.920218V21.1865H22.2536ZM26.9754 21.1865V42.5198H48.3088V21.1865H26.9754ZM26.9754 16.1747H48.3088V-5.15864H26.9754V16.1747ZM22.2523 16.1747L0.969651 14.7055L-0.604455 37.508H22.2523V16.1747ZM24.7509 31.6151H27.4201V-11.0516H24.7509V31.6151ZM48.7534 10.2818V5.6001H6.08675V10.2818H48.7534ZM27.4201 -15.7332C26.898 -15.7332 25.3759 -15.7332 23.5315 -15.7332V26.9334C25.3759 26.9334 26.8979 26.9334 27.42 26.9334L27.4201 -15.7332ZM23.5315 -15.7332C17.3729 -15.7332 10.4149 -13.9448 4.67791 -8.74605C-0.751984 -3.82557 -2.80567 2.10246 -3.62278 5.96678C-4.42876 9.77843 -4.35868 13.1298 -4.30543 14.6826C-4.29072 15.1116 -4.27236 15.492 -4.26027 15.739C-4.2533 15.8814 -4.24968 15.9536 -4.24582 16.0353C-4.24236 16.1086 -4.24162 16.1293 -4.24188 16.1222C-4.24209 16.1166 -4.24496 16.0405 -4.24677 15.9192C-4.24851 15.803 -4.25043 15.5757 -4.24258 15.275C-4.23538 14.9994 -4.20672 13.2431 -3.65384 11.0215L37.7499 21.3256C38.3448 18.9351 38.3949 16.9484 38.4095 16.3893C38.431 15.569 38.4077 14.8703 38.3955 14.5404C38.3824 14.1886 38.3629 13.8069 38.3554 13.6531C38.3448 13.4374 38.3395 13.3186 38.3362 13.2203C38.3171 12.6639 38.4036 13.4564 38.1209 14.7936C37.827 16.1834 36.8033 19.7214 33.3282 22.8705C29.546 26.2978 25.4677 26.9334 23.5315 26.9334V-15.7332ZM17.048 -5.15981H12.8V37.5069H17.048V-5.15981ZM-8.53329 16.1735V21.1853H34.1334V16.1735H-8.53329ZM12.8 42.5187H17.0468V-0.148013H12.8V42.5187ZM-4.28652 21.1853V33.7959H38.3801V21.1853H-4.28652ZM17.0468 55.1292H22.2536V12.4626H17.0468V55.1292ZM43.5869 33.7959V21.1865H0.920218V33.7959H43.5869ZM22.2536 42.5198H26.9754V-0.146838H22.2536V42.5198ZM48.3088 21.1865V16.1747H5.6421V21.1865H48.3088ZM26.9754 -5.15864H22.2523V37.508H26.9754V-5.15864ZM43.535 17.6439C43.6798 15.5471 43.5956 13.6578 43.58 13.1721C43.5415 11.966 43.6666 13.4729 43.3731 15.3245C42.9953 17.7077 41.557 23.2869 36.0477 27.5734C31.0586 31.4551 26.0668 31.6151 24.7509 31.6151V-11.0516C21.7222 -11.0516 15.5903 -10.5696 9.84739 -6.1014C3.58419 -1.22839 1.77834 5.20194 1.23269 8.64374C0.771346 11.5538 0.928487 14.3266 0.935204 14.5365C0.964967 15.4667 0.939419 15.1434 0.969651 14.7055L43.535 17.6439Z" fill="#353A3E" mask="url(#path-2-inside-1)"/>
</svg>
