<svg width="35" height="35" viewBox="0 0 35 35" fill="none" xmlns="http://www.w3.org/2000/svg">
<path d="M17.5 0C27.1649 0 35 7.83512 35 17.5C35 27.1649 27.1649 35 17.5 35C7.83512 35 0 27.1649 0 17.5C0.0108261 7.83968 7.83968 0.0108236 17.5 0ZM16.8754 5.04521L10.7917 2.61332C10.1012 2.92578 9.43331 3.28581 8.79272 3.69084L8.77678 3.70081C8.1473 4.09957 7.54574 4.54077 6.97608 5.02128L6.92708 5.06401C6.67159 5.28162 6.42322 5.50692 6.18168 5.73934C6.15121 5.76925 6.1193 5.79773 6.08883 5.82821C5.83561 6.07544 5.59037 6.33036 5.35311 6.59269C5.33346 6.61491 5.31466 6.63826 5.295 6.66048C5.08679 6.89376 4.88656 7.13529 4.6923 7.38082C4.64559 7.43921 4.59888 7.4976 4.55359 7.55599C4.34282 7.82886 4.13888 8.10657 3.94633 8.39311L5.15914 13.5485L11.1261 15.5378L16.8739 10.9386L16.8754 5.04521ZM30.447 7.55941C30.4017 7.50102 30.3556 7.44263 30.3088 7.38452C30.1169 7.14099 29.9183 6.90344 29.7133 6.67159C29.691 6.64709 29.6705 6.62203 29.6486 6.59753C29.4128 6.33464 29.1687 6.08 28.9157 5.83333C28.8867 5.80485 28.8576 5.77494 28.8271 5.74874C28.5876 5.51774 28.3412 5.29386 28.088 5.07739L28.0296 5.0284C27.4651 4.55131 26.8692 4.11296 26.246 3.7159L26.2232 3.70138C25.5863 3.2972 24.9227 2.93774 24.2362 2.625L18.1246 5.04521V10.9369L23.8728 15.5352L29.8397 13.5497L31.0525 8.39425C30.8583 8.10828 30.6566 7.83114 30.447 7.55941ZM31.1499 26.4514C31.3214 26.1899 31.4855 25.9236 31.6418 25.6521L31.6797 25.5866C31.8352 25.3166 31.9825 25.042 32.1212 24.7632L32.1261 24.7544C32.4183 24.1676 32.6749 23.5638 32.8942 22.946V22.9403C32.9979 22.6486 33.0925 22.3498 33.1799 22.0493L33.2115 21.9385C33.2916 21.6562 33.3642 21.3708 33.4292 21.0823C33.4349 21.0541 33.442 21.0273 33.4477 20.9994C33.5909 20.3477 33.6938 19.6881 33.7559 19.0236L30.1946 14.7502L24.269 16.7253L22.5492 23.6039L25.375 27.3637L31.1499 26.4514ZM13.6155 33.3625C13.9071 33.4349 14.2065 33.4972 14.5059 33.5533C14.5477 33.5616 14.5905 33.5684 14.6323 33.5761C14.8872 33.6217 15.145 33.6607 15.4034 33.6926C15.4723 33.7015 15.5406 33.7109 15.6093 33.7191C15.8491 33.747 16.0912 33.7681 16.3339 33.7855C16.4102 33.7906 16.4857 33.7983 16.5621 33.8031C16.8722 33.8222 17.185 33.8333 17.5 33.8333C17.7885 33.8333 18.0754 33.8256 18.3605 33.8105C18.3949 33.8105 18.428 33.8048 18.4624 33.8023C18.7162 33.7878 18.9689 33.7687 19.2209 33.7442L19.25 33.7388C19.8023 33.679 20.3514 33.5912 20.8949 33.4764L24.3453 28.0741L21.564 24.3653H13.436L10.6091 28.0986L13.6155 33.3625ZM1.54806 21C1.55404 21.0279 1.56087 21.055 1.56686 21.0829C1.63208 21.3711 1.70471 21.6565 1.78447 21.9391L1.8158 22.0499C1.90353 22.3504 1.9978 22.648 2.10177 22.9408V22.9465C2.32109 23.5643 2.57743 24.1682 2.86996 24.7549L2.8748 24.7638C3.01436 25.0429 3.16134 25.3175 3.31629 25.5872L3.35417 25.6527C3.50969 25.925 3.67346 26.1908 3.84522 26.4508L9.60051 27.3583L12.446 23.6016L10.727 16.7247L4.80139 14.7497L1.24015 19.023C1.30196 19.6878 1.40479 20.348 1.54806 21Z" fill="#9A9A9A"/>
</svg>
