<svg width="70" height="70" viewBox="0 0 70 70" fill="none" xmlns="http://www.w3.org/2000/svg">
<path d="M63.2258 28.2256C54.9715 28.2256 46.7634 30.2669 39.4631 34.1191C38.7518 33.9611 38.0156 33.8707 37.2581 33.8707C32.1887 33.8707 27.9865 37.6067 27.23 42.4672C19.4704 47.7097 10.4795 50.5794 1.12912 50.7933C0.505735 50.8076 0 51.3117 0 51.9353C0 52.5588 0.505721 53.0656 1.12912 53.052C10.4034 52.8494 19.3436 50.1531 27.1702 45.2085C27.7132 49.8872 31.4424 53.6062 36.129 54.1267V67.7417H26.5063L28.1445 63.6456C28.2981 63.2606 28.2292 62.8225 27.9639 62.5041C27.7008 62.1857 27.2831 62.0378 26.8744 62.1191L21.9269 63.1082L18.9677 59.1611C18.5421 58.592 17.5869 58.592 17.1613 59.1611L14.6774 62.4725L12.1935 59.1611C11.7679 58.592 10.8127 58.592 10.3871 59.1611L7.42677 63.1082L2.47935 62.1191C2.04355 62.0311 1.59306 62.2106 1.33452 62.5753C1.07597 62.9399 1.05903 63.4232 1.28935 63.807L3.65129 67.7417H1.12903C0.505485 67.7417 0 68.2472 0 68.8707C0 69.4943 0.505485 69.9998 1.12903 69.9998H68.871C69.4945 69.9998 70 69.4943 70 68.8707C70 68.2472 69.4945 67.7417 68.871 67.7417H60.9677V54.1267C66.0405 53.5622 70 49.2527 70 44.032C70 38.4298 65.4421 33.8707 59.8387 33.8707C54.2353 33.8707 49.6774 38.4298 49.6774 44.032C49.6774 49.2527 53.6369 53.5633 58.7097 54.1267V67.7417H38.3871V54.1267C43.4598 53.5622 47.4194 49.2527 47.4194 44.032C47.4194 40.269 45.3577 36.9835 42.3094 35.2278C48.825 32.1275 56.0045 30.4837 63.2258 30.4837H68.871C69.4945 30.4837 70 29.9782 70 29.3546C70 28.7311 69.4945 28.2256 68.871 28.2256H66.6129H63.2258ZM51.9355 44.032C51.9355 39.674 55.4818 36.1288 59.8387 36.1288C64.1956 36.1288 67.7419 39.674 67.7419 44.032C67.7419 48.0051 64.7906 51.294 60.9677 51.8449V47.8866L63.2258 45.6285C63.6667 45.1876 63.6667 44.4729 63.2258 44.032C62.785 43.5912 62.0702 43.5912 61.6293 44.032L59.8387 45.8227L56.919 42.903C56.4782 42.4622 55.7634 42.4622 55.3226 42.903C54.8817 43.3439 54.8817 44.0586 55.3226 44.4995L58.7097 47.8866V51.8449C54.8868 51.294 51.9355 48.0051 51.9355 44.032ZM4.53984 64.8333L7.68194 65.4622C8.10532 65.548 8.54565 65.3798 8.80645 65.0332L11.2903 61.7206L13.7742 65.0332C14.1998 65.6022 15.155 65.6022 15.5806 65.0332L18.0645 61.7206L20.5484 65.0332C20.8081 65.3809 21.2473 65.548 21.6729 65.4622L25.2734 64.7419L24.0744 67.7417H6.28419L4.53984 64.8333ZM45.1613 44.032C45.1613 48.0051 42.21 51.294 38.3871 51.8449V47.8866L40.6452 45.6285C41.086 45.1876 41.086 44.4729 40.6452 44.032C40.2043 43.5912 39.4896 43.5912 39.0487 44.032L37.2581 45.8227L34.3384 42.903C33.8975 42.4622 33.1828 42.4622 32.7419 42.903C32.3011 43.3439 32.3011 44.0586 32.7419 44.4995L36.129 47.8866V51.8449C32.3061 51.294 29.3548 48.0051 29.3548 44.032C29.3548 39.674 32.9011 36.1288 37.2581 36.1288C41.615 36.1288 45.1613 39.674 45.1613 44.032Z" fill="#333333" fill-opacity="0.5"/>
<path d="M69.7419 24.8387C69.7419 23.3687 68.7947 22.1268 67.4839 21.6594V1.12903C67.4839 0.505485 66.9784 0 66.3548 0C65.7313 0 65.2258 0.505485 65.2258 1.12903V2.57306L52.4497 6.83177C51.9879 6.98645 51.6774 7.41661 51.6774 7.90323C51.6774 8.38984 51.9879 8.82 52.4497 8.97468L65.2258 13.2334V21.6594C63.915 22.1268 62.9678 23.3687 62.9678 24.8387C62.9678 26.7061 64.4874 28.2258 66.3548 28.2258C68.2223 28.2258 69.7419 26.7061 69.7419 24.8387ZM56.3765 7.90323L65.2258 4.95419V10.8534L56.3765 7.90323ZM66.3548 25.9677C65.7316 25.9677 65.2258 25.4608 65.2258 24.8387C65.2258 24.2166 65.7316 23.7097 66.3548 23.7097C66.9781 23.7097 67.4839 24.2166 67.4839 24.8387C67.4839 25.4608 66.9781 25.9677 66.3548 25.9677Z" fill="#333333" fill-opacity="0.5"/>
<path d="M4.51613 15.8065H19.1935C22.3063 15.8065 24.8387 13.274 24.8387 10.1613C24.8387 7.04855 22.3063 4.51613 19.1935 4.51613C18.699 4.51613 18.2034 4.585 17.7224 4.71935C16.8576 1.94645 14.3094 0 11.2903 0C7.55435 0 4.51613 3.03823 4.51613 6.77419C2.02548 6.77419 0 8.79968 0 11.2903C0 13.781 2.02548 15.8065 4.51613 15.8065ZM4.51613 9.03226C4.8221 9.03226 5.11903 9.09323 5.40016 9.21177C5.79871 9.38113 6.25371 9.30887 6.57774 9.02774C6.9029 8.74887 7.04177 8.30742 6.93565 7.89194C6.825 7.46516 6.77419 7.11065 6.77419 6.77419C6.77419 4.28355 8.79968 2.25806 11.2903 2.25806C13.6398 2.25806 15.5626 4.03629 15.7624 6.39371C15.794 6.7821 16.0255 7.12532 16.3721 7.30371C16.7198 7.48097 17.1308 7.46855 17.4673 7.26758C18.0126 6.94016 18.594 6.77419 19.1935 6.77419C21.061 6.77419 22.5806 8.29387 22.5806 10.1613C22.5806 12.0287 21.061 13.5484 19.1935 13.5484H4.51613C3.27081 13.5484 2.25806 12.5356 2.25806 11.2903C2.25806 10.045 3.27081 9.03226 4.51613 9.03226Z" fill="#333333" fill-opacity="0.5"/>
</svg>
