<svg width="170" height="48" viewBox="0 0 170 48" fill="none" xmlns="http://www.w3.org/2000/svg">
<path d="M168 2.08219e-05H6.29635L2.00006 6.61403e-06C0.895489 2.96121e-06 5.4733e-05 0.895436 5.4733e-05 2.00001V42L1.82445e-05 46C8.16837e-06 47.1046 0.826733 48 1.93131 48H168.026C169.13 48 170 47.1072 170 46.0027V1.99931C170 0.894742 169.105 2.08219e-05 168 2.08219e-05Z" fill="white"/>
<path d="M57.4628 12.3933C57.4826 12.8294 57.4126 13.265 57.257 13.6737C57.1014 14.0825 56.8634 14.456 56.5573 14.7717C56.2143 15.1205 55.8005 15.394 55.3428 15.5743C54.885 15.7547 54.3938 15.8378 53.9013 15.8182C53.4059 15.8291 52.9134 15.7397 52.4545 15.5556C51.9956 15.3715 51.5799 15.0966 51.2331 14.7479C50.5296 14.0391 50.1357 13.0872 50.1357 12.096C50.1357 11.1048 50.5296 10.1529 51.2331 9.44412C51.771 8.92645 52.4522 8.57689 53.1911 8.43936C53.93 8.30184 54.6937 8.38248 55.3862 8.67115C55.8216 8.84743 56.2099 9.12005 56.5211 9.46791L55.8812 10.0982C55.6415 9.81369 55.3377 9.58818 54.994 9.43955C54.6503 9.29092 54.2761 9.22327 53.9013 9.24196C53.428 9.24519 52.9628 9.36254 52.5462 9.58375C52.1297 9.80497 51.7745 10.1233 51.5116 10.511C51.2488 10.8986 51.0864 11.3438 51.0386 11.8076C50.9908 12.2713 51.059 12.7396 51.2373 13.1714C51.4157 13.6031 51.6986 13.9853 52.0615 14.2845C52.4244 14.5837 52.8562 14.7908 53.3191 14.8877C53.782 14.9846 54.262 14.9683 54.717 14.8403C55.1721 14.7122 55.5884 14.4764 55.9295 14.1533C56.2983 13.7551 56.5121 13.2411 56.5332 12.7025H53.9013V11.8463H57.4145C57.442 12.0275 57.4581 12.2102 57.4628 12.3933Z" fill="#9A9A9A" stroke="#9A9A9A" stroke-width="0.2" stroke-miterlimit="10"/>
<path d="M62.9922 9.42053H59.7325V11.68H62.7024V12.5362H59.7325V14.7957H62.9922V15.6757H58.7908V8.54053H62.9922V9.42053Z" fill="#9A9A9A" stroke="#9A9A9A" stroke-width="0.2" stroke-miterlimit="10"/>
<path d="M66.9523 15.6757H66.0226V9.42053H63.9944V8.54053H69.0288V9.42053H66.9523V15.6757Z" fill="#9A9A9A" stroke="#9A9A9A" stroke-width="0.2" stroke-miterlimit="10"/>
<path d="M72.5784 15.6757V8.54053H73.508V15.6757H72.5784Z" fill="#9A9A9A" stroke="#9A9A9A" stroke-width="0.2" stroke-miterlimit="10"/>
<path d="M77.6368 15.6757H76.7072V9.42053H74.679V8.54053H79.653V9.42053H77.6368V15.6757Z" fill="#9A9A9A" stroke="#9A9A9A" stroke-width="0.2" stroke-miterlimit="10"/>
<path d="M89.0819 14.7481C88.7332 15.0919 88.3192 15.3646 87.8634 15.5506C87.4077 15.7367 86.9192 15.8324 86.4259 15.8324C85.9325 15.8324 85.444 15.7367 84.9883 15.5506C84.5325 15.3646 84.1185 15.0919 83.7698 14.7481C83.0873 14.0335 82.7073 13.0893 82.7073 12.1081C82.7073 11.127 83.0873 10.1828 83.7698 9.46812C84.111 9.11469 84.5237 8.83575 84.9812 8.64934C85.4387 8.46293 85.9309 8.3732 86.4259 8.38596C86.9201 8.37826 87.4107 8.4703 87.8675 8.65641C88.3243 8.84251 88.7376 9.11876 89.0819 9.46812C89.4291 9.81595 89.7019 10.2288 89.8844 10.6822C90.0669 11.1356 90.1553 11.6205 90.1443 12.1081C90.1602 12.5964 90.0741 13.0826 89.8913 13.5367C89.7086 13.9909 89.4331 14.4032 89.0819 14.7481ZM84.458 14.1535C84.7151 14.4102 85.0215 14.6141 85.3594 14.7532C85.6972 14.8923 86.0597 14.964 86.4259 14.964C86.792 14.964 87.1545 14.8923 87.4924 14.7532C87.8302 14.6141 88.1366 14.4102 88.3938 14.1535C88.9147 13.5959 89.2038 12.8659 89.2038 12.1081C89.2038 11.3504 88.9147 10.6203 88.3938 10.0627C88.1366 9.806 87.8302 9.60215 87.4924 9.46303C87.1545 9.3239 86.792 9.25226 86.4259 9.25226C86.0597 9.25226 85.6972 9.3239 85.3594 9.46303C85.0215 9.60215 84.7151 9.806 84.458 10.0627C83.937 10.6203 83.6479 11.3504 83.6479 12.1081C83.6479 12.8659 83.937 13.5959 84.458 14.1535Z" fill="#9A9A9A" stroke="#9A9A9A" stroke-width="0.2" stroke-miterlimit="10"/>
<path d="M91.4606 15.6757V8.54053H92.5834L96.1087 14.094V12.7146V8.54053H97.0383V15.6757H96.0725L92.3902 9.86053V11.2281V15.6757H91.4606Z" fill="#9A9A9A" stroke="#9A9A9A" stroke-width="0.2" stroke-miterlimit="10"/>
<path d="M82.4782 26.0815C81.461 26.0838 80.4673 26.3832 79.6229 26.9418C78.7784 27.5004 78.1211 28.2932 77.734 29.2197C77.347 30.1463 77.2476 31.1651 77.4483 32.1474C77.6491 33.1296 78.1411 34.0311 78.8621 34.738C79.583 35.4448 80.5006 35.9251 81.4987 36.1183C82.4969 36.3115 83.5307 36.2088 84.4696 35.8232C85.4084 35.4376 86.2101 34.7864 86.7733 33.952C87.3364 33.1176 87.6357 32.1375 87.6334 31.1355C87.6432 30.4671 87.5164 29.8036 87.2605 29.1845C87.0046 28.5653 86.6249 28.0033 86.1438 27.5317C85.6628 27.0601 85.0904 26.6887 84.4607 26.4396C83.8309 26.1904 83.1567 26.0686 82.4782 26.0815ZM82.4782 34.2036C81.8547 34.2466 81.2325 34.1038 80.6925 33.7938C80.1525 33.4838 79.7197 33.021 79.4503 32.4656C79.1809 31.9101 79.0873 31.2876 79.1818 30.679C79.2764 30.0705 79.5545 29.504 79.9802 29.0533C80.4059 28.6025 80.9594 28.2884 81.5688 28.1516C82.1782 28.0148 82.8152 28.0617 83.3971 28.2863C83.9791 28.5109 84.479 28.9027 84.8318 29.4108C85.1847 29.919 85.3742 30.5199 85.3757 31.1355C85.3951 31.5256 85.3351 31.9155 85.1991 32.2824C85.0631 32.6492 84.8539 32.9856 84.5839 33.2715C84.3138 33.5575 83.9884 33.7873 83.6267 33.9473C83.2651 34.1074 82.8746 34.1946 82.4782 34.2036ZM71.2261 26.0815C70.2089 26.0838 69.2152 26.3832 68.3708 26.9418C67.5264 27.5004 66.869 28.2932 66.482 29.2197C66.0949 30.1463 65.9955 31.1651 66.1963 32.1474C66.3971 33.1296 66.8891 34.0311 67.61 34.738C68.331 35.4448 69.2485 35.9251 70.2467 36.1183C71.2448 36.3115 72.2787 36.2088 73.2175 35.8232C74.1564 35.4376 74.9581 34.7864 75.5212 33.952C76.0844 33.1176 76.3837 32.1375 76.3813 31.1355C76.3911 30.4671 76.2643 29.8036 76.0084 29.1845C75.7526 28.5653 75.3728 28.0033 74.8918 27.5317C74.4108 27.0601 73.8384 26.6887 73.2086 26.4396C72.5789 26.1904 71.9046 26.0686 71.2261 26.0815ZM71.2261 34.2036C70.6026 34.2466 69.9805 34.1038 69.4405 33.7938C68.9005 33.4838 68.4676 33.021 68.1982 32.4656C67.9288 31.9101 67.8353 31.2876 67.9298 30.679C68.0243 30.0705 68.3025 29.504 68.7282 29.0533C69.1539 28.6025 69.7074 28.2884 70.3167 28.1516C70.9261 28.0148 71.5632 28.0617 72.1451 28.2863C72.727 28.5109 73.2269 28.9027 73.5798 29.4108C73.9326 29.919 74.1221 30.5199 74.1236 31.1355C74.1431 31.5256 74.083 31.9155 73.947 32.2824C73.8111 32.6492 73.6019 32.9856 73.3318 33.2715C73.0618 33.5575 72.7363 33.7873 72.3747 33.9473C72.013 34.1074 71.6225 34.1946 71.2261 34.2036ZM57.8492 27.6393V29.7798H63.0647C62.983 30.788 62.5575 31.7394 61.8574 32.4793C61.3343 33.0043 60.705 33.4154 60.0104 33.6858C59.3158 33.9562 58.5713 34.0799 57.8251 34.049C56.2881 34.049 54.8141 33.4476 53.7273 32.3772C52.6406 31.3067 52.03 29.8548 52.03 28.3409C52.03 26.827 52.6406 25.3752 53.7273 24.3047C54.8141 23.2342 56.2881 22.6328 57.8251 22.6328C59.2985 22.6112 60.7212 23.1624 61.785 24.1669L63.3183 22.6566C62.5987 21.9556 61.7443 21.4031 60.8052 21.0314C59.8661 20.6598 58.8611 20.4765 57.8492 20.4923C56.7759 20.4511 55.7052 20.6238 54.7013 21C53.6974 21.3762 52.7809 21.9482 52.0068 22.6816C51.2326 23.415 50.6168 24.2948 50.1961 25.2683C49.7754 26.2418 49.5586 27.2889 49.5586 28.3469C49.5586 29.4049 49.7754 30.452 50.1961 31.4254C50.6168 32.3989 51.2326 33.2787 52.0068 34.0122C52.7809 34.7456 53.6974 35.3175 54.7013 35.6937C55.7052 36.0699 56.7759 36.2426 57.8492 36.2015C58.882 36.2421 59.9117 36.0671 60.871 35.6879C61.8302 35.3088 62.6971 34.734 63.4149 34.0015C64.6827 32.6296 65.3582 30.8254 65.2983 28.9712C65.3026 28.5249 65.2662 28.0792 65.1896 27.6393H57.8492ZM112.552 29.3042C112.237 28.3917 111.648 27.595 110.864 27.0196C110.079 26.4441 109.135 26.1169 108.157 26.0815C107.497 26.0802 106.843 26.2124 106.237 26.4698C105.63 26.7272 105.084 27.1044 104.631 27.5781C104.179 28.0518 103.83 28.6119 103.605 29.2238C103.381 29.8356 103.287 30.4863 103.328 31.1355C103.318 32.2211 103.664 33.2808 104.316 34.1564C104.968 35.032 105.889 35.6764 106.943 35.9935C107.997 36.3106 109.127 36.2833 110.164 35.9157C111.201 35.5481 112.09 34.8599 112.697 33.9539L110.946 32.7647C110.685 33.1931 110.315 33.5469 109.873 33.791C109.43 34.0351 108.93 34.1609 108.423 34.1561C107.9 34.1773 107.382 34.0422 106.938 33.7684C106.495 33.4946 106.145 33.095 105.936 32.622L112.806 29.8274L112.552 29.3042ZM105.55 30.9928C105.525 30.6234 105.576 30.2529 105.699 29.9031C105.821 29.5532 106.014 29.2309 106.264 28.9552C106.515 28.6794 106.819 28.4557 107.159 28.2971C107.498 28.1386 107.867 28.0483 108.242 28.0317C108.631 28.0083 109.018 28.0986 109.356 28.2911C109.693 28.4836 109.965 28.7698 110.137 29.1139L105.55 30.9928ZM99.972 35.8923H102.23V21.0274H99.972V35.8923ZM96.2776 27.2112H96.1931C95.8559 26.8329 95.4396 26.5307 94.9729 26.3255C94.5061 26.1203 93.9999 26.0167 93.4888 26.022C92.1694 26.085 90.9252 26.6456 90.0141 27.5877C89.103 28.5297 88.5948 29.7809 88.5948 31.082C88.5948 32.3831 89.103 33.6343 90.0141 34.5763C90.9252 35.5184 92.1694 36.079 93.4888 36.142C94.0006 36.1521 94.5084 36.0508 94.9759 35.8452C95.4434 35.6396 95.859 35.3349 96.1931 34.9528H96.2776V35.6782C96.2776 37.6166 95.2273 38.6512 93.5371 38.6512C92.9724 38.639 92.4242 38.4618 91.9621 38.142C91.4999 37.8223 91.1446 37.3745 90.9414 36.8555L88.9855 37.6523C89.3471 38.5468 89.9758 39.3123 90.7885 39.8473C91.6012 40.3824 92.5596 40.662 93.5371 40.649C96.1811 40.649 98.3663 39.115 98.3663 35.3809V26.3788H96.2776V27.2112ZM93.6819 34.2036C92.8909 34.155 92.1484 33.8113 91.6057 33.2424C91.063 32.6734 90.7609 31.9221 90.7609 31.1415C90.7609 30.3608 91.063 29.6095 91.6057 29.0406C92.1484 28.4716 92.8909 28.1279 93.6819 28.0793C94.0686 28.0957 94.4479 28.1886 94.7973 28.3524C95.1468 28.5162 95.4592 28.7475 95.716 29.0326C95.9728 29.3178 96.1688 29.6509 96.2922 30.0122C96.4157 30.3734 96.4641 30.7554 96.4346 31.1355C96.4675 31.5169 96.4216 31.9009 96.2996 32.2642C96.1775 32.6276 95.982 32.9628 95.7247 33.2496C95.4673 33.5364 95.1536 33.7689 94.8025 33.9328C94.4514 34.0968 94.0702 34.1889 93.6819 34.2036ZM123.128 21.0274H117.719V35.8923H119.977V30.2555H123.128C123.771 30.301 124.418 30.2155 125.026 30.0043C125.634 29.793 126.192 29.4606 126.664 29.0277C127.136 28.5948 127.513 28.0707 127.771 27.4881C128.028 26.9055 128.161 26.2769 128.161 25.6415C128.161 25.006 128.028 24.3774 127.771 23.7949C127.513 23.2123 127.136 22.6882 126.664 22.2553C126.192 21.8223 125.634 21.4899 125.026 21.2787C124.418 21.0674 123.771 20.9819 123.128 21.0274ZM123.128 28.1625H119.977V23.0966H123.176C123.516 23.0966 123.852 23.1624 124.165 23.2903C124.479 23.4182 124.763 23.6057 125.003 23.842C125.243 24.0783 125.433 24.3588 125.563 24.6676C125.693 24.9763 125.76 25.3073 125.76 25.6415C125.76 25.9757 125.693 26.3066 125.563 26.6153C125.433 26.9241 125.243 27.2046 125.003 27.441C124.763 27.6773 124.479 27.8647 124.165 27.9926C123.852 28.1205 123.516 28.1863 123.176 28.1863L123.128 28.1625ZM137.06 26.0339C136.238 25.984 135.419 26.1725 134.705 26.5762C133.99 26.9799 133.411 27.581 133.04 28.3052L135.032 29.1258C135.233 28.7683 135.535 28.4759 135.902 28.2839C136.268 28.0918 136.683 28.0084 137.097 28.0436C137.383 28.0107 137.674 28.0342 137.951 28.113C138.228 28.1917 138.487 28.3241 138.711 28.5023C138.936 28.6805 139.123 28.9011 139.26 29.151C139.397 29.401 139.483 29.6754 139.511 29.9582V30.1009C138.785 29.725 137.977 29.5291 137.157 29.5301C135.008 29.5301 132.811 30.7193 132.811 32.8836C132.832 33.3437 132.947 33.7948 133.148 34.2102C133.35 34.6257 133.635 34.9969 133.985 35.302C134.335 35.607 134.744 35.8396 135.187 35.986C135.631 36.1323 136.099 36.1894 136.565 36.1539C137.132 36.1848 137.697 36.0667 138.201 35.8117C138.706 35.5568 139.133 35.1742 139.439 34.7031H139.511V35.8923H141.684V30.1723C141.684 27.5679 139.68 26.0577 137.109 26.0577L137.06 26.0339ZM136.783 34.1798C136.046 34.1798 135.02 33.8112 135.02 32.9193C135.02 31.7301 136.3 31.3258 137.435 31.3258C138.152 31.3084 138.861 31.4808 139.487 31.8252C139.411 32.4711 139.1 33.0679 138.612 33.5052C138.124 33.9425 137.491 34.1907 136.831 34.2036L136.783 34.1798ZM149.604 26.3788L147.021 32.8242H146.948L144.268 26.3788H141.853L145.874 35.3928L143.58 40.3993H145.934L152.115 26.3788H149.604ZM129.322 35.8923H131.567V21.0274H129.322V35.8923Z" fill="#9A9A9A"/>
<path d="M12.8168 9.18285C12.4189 9.64619 12.2159 10.2418 12.2493 10.8477V37.1526C12.2083 37.7595 12.4122 38.3579 12.8168 38.8174L12.9013 38.9126L27.8597 24.1785V23.8218L12.9013 9.09961L12.8168 9.18285Z" fill="#9A9A9A" stroke="white"/>
<path d="M32.8098 29.0896L27.8599 24.1783V23.8215L32.8098 18.9102L32.9185 18.9815L38.8463 22.2875C40.5365 23.2269 40.5365 24.7729 38.8463 25.7242L32.9426 29.0302L32.8098 29.0896Z" fill="#9A9A9A" stroke="white"/>
<path d="M32.9547 29.0184L27.8599 24L12.8169 38.8173C13.158 39.1164 13.5947 39.2885 14.0512 39.3037C14.5076 39.3189 14.9551 39.1763 15.316 38.9005L32.9547 29.0184Z" fill="#9A9A9A"/>
<path d="M32.9547 29.0184L27.8599 24L12.8169 38.8173C13.158 39.1164 13.5947 39.2885 14.0512 39.3037C14.5076 39.3189 14.9551 39.1763 15.316 38.9005L32.9547 29.0184" stroke="white"/>
<path d="M32.9547 18.9819L15.316 9.11166C14.9575 8.8321 14.5103 8.686 14.0533 8.69905C13.5962 8.7121 13.1584 8.88346 12.8169 9.18301L27.8599 24.0003L32.9547 18.9819Z" fill="#9A9A9A" stroke="white"/>
<path opacity="0.2" d="M32.8098 28.9111L15.316 38.7219C14.9682 38.9805 14.5444 39.1203 14.1087 39.1203C13.673 39.1203 13.2492 38.9805 12.9014 38.7219L12.8169 38.8052L12.9014 38.9003C13.2492 39.1588 13.673 39.2987 14.1087 39.2987C14.5444 39.2987 14.9682 39.1588 15.316 38.9003L32.9547 29.0182L32.8098 28.9111Z" fill="#9A9A9A"/>
<path opacity="0.12" d="M12.817 39.6509C12.4292 39.1792 12.2391 38.5793 12.2857 37.9741V38.1525C12.2447 38.7594 12.4486 39.3578 12.8532 39.8174L12.9377 39.7341L12.817 39.6509Z" fill="#9A9A9A"/>
<path opacity="0.12" d="M38.8462 25.5459L32.8097 28.9114L32.9183 29.0184L38.8462 25.7124C39.1961 25.5667 39.4997 25.3307 39.7249 25.0294C39.9501 24.728 40.0886 24.3724 40.1259 24C40.0505 24.3384 39.8953 24.6546 39.673 24.9231C39.4508 25.1917 39.1675 25.405 38.8462 25.5459Z" fill="#9A9A9A"/>
</svg>
