<svg width="61" height="37" viewBox="0 0 61 37" fill="none" xmlns="http://www.w3.org/2000/svg">
<path d="M14.6562 5.00586H17.623C18.9993 5.00586 19.9928 5.20638 20.6035 5.60742C21.2188 6.00846 21.5264 6.64193 21.5264 7.50781C21.5264 8.09115 21.376 8.5765 21.0752 8.96387C20.7744 9.35124 20.3415 9.59505 19.7764 9.69531V9.76367C20.4782 9.89583 20.9932 10.1579 21.3213 10.5498C21.654 10.9372 21.8203 11.4635 21.8203 12.1289C21.8203 13.0267 21.5059 13.7308 20.877 14.2412C20.2526 14.7471 19.3822 15 18.2656 15H14.6562V5.00586ZM16.29 9.13477H17.8623C18.5459 9.13477 19.0449 9.02767 19.3594 8.81348C19.6738 8.59473 19.8311 8.22559 19.8311 7.70605C19.8311 7.23665 19.6602 6.89714 19.3184 6.6875C18.9811 6.47786 18.4434 6.37305 17.7051 6.37305H16.29V9.13477ZM16.29 10.4609V13.626H18.0264C18.71 13.626 19.2249 13.4961 19.5713 13.2363C19.9222 12.972 20.0977 12.5573 20.0977 11.9922C20.0977 11.4727 19.9199 11.0876 19.5645 10.8369C19.209 10.5863 18.6689 10.4609 17.9443 10.4609H16.29ZM30.0986 15L29.1006 12.2246H25.2793L24.3018 15H22.5791L26.3184 4.96484H28.0957L31.835 15H30.0986ZM28.6699 10.8164L27.7334 8.0957C27.665 7.91341 27.5693 7.6263 27.4463 7.23438C27.3278 6.84245 27.2458 6.55534 27.2002 6.37305C27.0771 6.93359 26.8971 7.54655 26.6602 8.21191L25.7578 10.8164H28.6699ZM37.4062 6.26367C36.4674 6.26367 35.7292 6.59635 35.1914 7.26172C34.6536 7.92708 34.3848 8.84538 34.3848 10.0166C34.3848 11.2425 34.6423 12.1699 35.1572 12.7988C35.6768 13.4277 36.4264 13.7422 37.4062 13.7422C37.8301 13.7422 38.2402 13.7012 38.6367 13.6191C39.0332 13.5326 39.4456 13.4232 39.874 13.291V14.6924C39.0902 14.9886 38.2015 15.1367 37.208 15.1367C35.7451 15.1367 34.6217 14.6947 33.8379 13.8105C33.054 12.9219 32.6621 11.6527 32.6621 10.0029C32.6621 8.96387 32.8512 8.05469 33.2295 7.27539C33.6123 6.49609 34.1637 5.89909 34.8838 5.48438C35.6038 5.06966 36.4492 4.8623 37.4199 4.8623C38.4408 4.8623 39.3841 5.0765 40.25 5.50488L39.6621 6.86523C39.3249 6.70573 38.9671 6.56673 38.5889 6.44824C38.2152 6.3252 37.821 6.26367 37.4062 6.26367ZM49.6562 15H47.7627L44.625 10.4746L43.6611 11.2607V15H42.0273V5.00586H43.6611V9.77734C44.1077 9.23047 44.5521 8.7041 44.9941 8.19824L47.6943 5.00586H49.5537C47.8083 7.05664 46.5573 8.51725 45.8008 9.3877L49.6562 15Z" fill="#4D9335"/>
<path d="M0.46967 30.4697C0.176777 30.7626 0.176777 31.2374 0.46967 31.5303L5.24264 36.3033C5.53553 36.5962 6.01041 36.5962 6.3033 36.3033C6.59619 36.0104 6.59619 35.5355 6.3033 35.2426L2.06066 31L6.3033 26.7574C6.59619 26.4645 6.59619 25.9896 6.3033 25.6967C6.01041 25.4038 5.53553 25.4038 5.24264 25.6967L0.46967 30.4697ZM1 31.75H61V30.25H1V31.75Z" fill="#4D9335"/>
</svg>
