<svg width="70" height="71" viewBox="0 0 70 71" fill="none" xmlns="http://www.w3.org/2000/svg">
<g opacity="0.5">
<path d="M34.9994 0.998047C34.355 0.998047 33.8327 1.52039 33.8327 2.16474V30.5003C33.289 30.7897 35.8896 28.0106 0.617994 67.0086C-0.0157594 67.7085 -0.177696 68.716 0.204832 69.5792C0.58736 70.4424 1.44253 70.9992 2.38671 70.9999H67.6121C68.5562 70.9992 69.4114 70.4424 69.7939 69.5792C70.1765 68.716 70.0145 67.7085 69.3808 67.0086C34.4767 28.4154 36.7494 30.8107 36.1661 30.5003V17.3318H46.6664V20.8319C46.6664 22.7649 48.2334 24.332 50.1665 24.332H65.3335C66.279 24.3332 67.1317 23.7638 67.4929 22.89C67.8541 22.0163 67.6524 21.011 66.9821 20.3442L63.9638 17.3318L66.9856 14.3206C67.6572 13.6535 67.8592 12.6467 67.497 11.7722C67.1348 10.8976 66.2801 10.3285 65.3335 10.3316H57.1666V5.66483C57.1666 4.37614 56.1219 3.33144 54.8332 3.33144H36.1661V2.16474C36.1661 1.52039 35.6437 0.998047 34.9994 0.998047ZM67.6121 68.6665L2.34937 68.5731L17.0323 52.3759L21.5229 57.6167C21.9751 58.1435 22.6379 58.4424 23.3322 58.4325C24.0264 58.4226 24.6805 58.1049 25.1175 57.5653L27.8825 54.1061L31.9158 60.5638C32.3278 61.2256 33.0432 61.638 33.8224 61.6628C34.6016 61.6876 35.3417 61.3217 35.7951 60.6874L39.721 55.1958L42.4977 58.6737C42.944 59.2315 43.6211 59.5541 44.3354 59.5494C45.0497 59.5446 45.7224 59.2129 46.1612 58.6492L51.9433 51.2115L67.6494 68.5731C68.8021 67.5313 68.8173 67.4998 67.6121 68.6665ZM50.3566 49.4533L44.3225 57.2165L41.5422 53.7327C41.0854 53.1607 40.3865 52.8362 39.6546 52.8563C38.9227 52.8765 38.2428 53.239 37.8181 53.8354L33.9004 59.3329L29.8578 52.8601C29.4517 52.2253 28.7649 51.8247 28.0125 51.7838C27.26 51.7429 26.5339 52.0666 26.0613 52.6536L23.2963 56.1L18.6131 50.6328L35.0379 32.5164L50.3566 49.4533ZM52.8499 17.3318L48.9998 20.6277V17.3318H52.8499ZM65.3335 12.665L62.3129 15.6763C61.8726 16.1142 61.6251 16.7096 61.6251 17.3306C61.6251 17.9517 61.8726 18.5471 62.3129 18.985L65.3335 21.9986H50.9831L56.7571 17.0506L56.7478 17.0401C57.0098 16.8247 57.1632 16.5043 57.1666 16.1651V12.665H65.3335ZM54.8332 5.66483V14.9984H36.1661V5.66483H54.8332Z" fill="#333333"/>
<path d="M39.6665 10.3317H51.3334C51.9778 10.3317 52.5001 9.80934 52.5001 9.16499C52.5001 8.52064 51.9778 7.99829 51.3334 7.99829H39.6665C39.0221 7.99829 38.4998 8.52064 38.4998 9.16499C38.4998 9.80934 39.0221 10.3317 39.6665 10.3317Z" fill="#333333"/>
</g>
</svg>
