<svg width="56" height="56" viewBox="0 0 56 56" fill="none" xmlns="http://www.w3.org/2000/svg">
<circle cx="28" cy="28" r="28" fill="#F2F2F2"/>
<path d="M15.7241 15.7316V43.451C15.7241 43.7455 15.9628 43.9841 16.2572 43.9841H36.5137C36.808 43.9841 37.0466 43.7455 37.0466 43.451V21.0624C37.0466 21.0506 37.0409 21.0405 37.0398 21.0288C37.0372 20.9821 37.028 20.936 37.0126 20.8918C37.0067 20.8747 37.0025 20.8582 36.995 20.8415C36.9691 20.7836 36.9331 20.7307 36.8883 20.6854L31.5577 15.3548C31.5125 15.3098 31.4594 15.2738 31.401 15.2481C31.3849 15.2413 31.3687 15.2356 31.352 15.2306C31.3074 15.2152 31.2611 15.206 31.2139 15.2029C31.2049 15.2044 31.1944 15.1987 31.1832 15.1987H16.2572C15.9628 15.1987 15.7241 15.4372 15.7241 15.7316ZM35.2268 20.5293H31.7161V17.0186L35.2268 20.5293ZM16.7901 16.2648H30.65V21.0624C30.65 21.3567 30.8887 21.5953 31.1829 21.5953H35.9806V42.9181H16.7901V16.2648Z" fill="#4D9335"/>
<path d="M38.6459 39.7194C38.3515 39.7194 38.1129 39.958 38.1129 40.2524C38.1129 40.5468 38.3515 40.7854 38.6459 40.7854H39.712C40.0065 40.7854 40.2451 40.5469 40.2451 40.2525V12.5331C40.2451 12.2387 40.0065 12 39.712 12H19.4555C19.1611 12 18.9224 12.2387 18.9224 12.5331V13.5992C18.9224 13.8936 19.1611 14.1323 19.4555 14.1323C19.75 14.1323 19.9886 13.8936 19.9886 13.5992V13.066H39.1789V39.7194H38.6459Z" fill="#4D9335"/>
<path d="M19.9886 23.1946C19.9886 22.9003 20.2273 22.6616 20.5217 22.6616H32.2491C32.5434 22.6616 32.7821 22.9003 32.7821 23.1946C32.7821 23.489 32.5434 23.7276 32.2491 23.7276H20.5217C20.2273 23.7276 19.9886 23.489 19.9886 23.1946Z" fill="#4D9335"/>
<path d="M19.9886 19.996C19.9886 19.7016 20.2273 19.4629 20.5218 19.4629H23.7201C24.0145 19.4629 24.2532 19.7016 24.2532 19.996C24.2532 20.2904 24.0145 20.5291 23.7201 20.5291H20.5218C20.2273 20.5291 19.9886 20.2904 19.9886 19.996Z" fill="#4D9335"/>
<path d="M19.9886 26.393C19.9886 26.0986 20.2273 25.8599 20.5218 25.8599H27.9846C28.2791 25.8599 28.5178 26.0986 28.5178 26.393C28.5178 26.6874 28.2791 26.9261 27.9846 26.9261H20.5218C20.2273 26.9261 19.9886 26.6874 19.9886 26.393Z" fill="#4D9335"/>
<path d="M29.5838 26.393C29.5838 26.0986 29.8225 25.8599 30.1169 25.8599H32.249C32.5434 25.8599 32.7821 26.0986 32.7821 26.393C32.7821 26.6874 32.5434 26.9261 32.249 26.9261H30.1169C29.8225 26.9261 29.5838 26.6874 29.5838 26.393Z" fill="#4D9335"/>
<path d="M19.9886 29.5912C19.9886 29.2968 20.2273 29.0581 20.5218 29.0581H32.2489C32.5434 29.0581 32.7821 29.2968 32.7821 29.5912C32.7821 29.8857 32.5434 30.1244 32.2489 30.1244H20.5218C20.2273 30.1244 19.9886 29.8857 19.9886 29.5912Z" fill="#4D9335"/>
<path d="M19.9886 35.9877C19.9886 35.6933 20.2273 35.4546 20.5218 35.4546H32.249C32.5434 35.4546 32.7821 35.6933 32.7821 35.9877C32.7821 36.2821 32.5434 36.5208 32.249 36.5208H20.5218C20.2273 36.5208 19.9886 36.2821 19.9886 35.9877Z" fill="#4D9335"/>
<path d="M24.7861 32.7894C24.7861 32.495 25.0247 32.2563 25.3191 32.2563H32.2491C32.5434 32.2563 32.7821 32.495 32.7821 32.7894C32.7821 33.0837 32.5434 33.3224 32.2491 33.3224H25.3191C25.0247 33.3224 24.7861 33.0837 24.7861 32.7894Z" fill="#4D9335"/>
<path d="M19.9886 32.7894C19.9886 32.495 20.2273 32.2563 20.5217 32.2563H23.1871C23.4814 32.2563 23.7201 32.495 23.7201 32.7894C23.7201 33.0837 23.4814 33.3224 23.1871 33.3224H20.5217C20.2273 33.3224 19.9886 33.0837 19.9886 32.7894Z" fill="#4D9335"/>
<path d="M19.9886 39.1863C19.9886 38.892 20.2273 38.6533 20.5217 38.6533H21.5879C21.8823 38.6533 22.1209 38.892 22.1209 39.1863C22.1209 39.4807 21.8823 39.7193 21.5879 39.7193H20.5217C20.2273 39.7193 19.9886 39.4807 19.9886 39.1863Z" fill="#4D9335"/>
<path d="M23.187 39.1863C23.187 38.892 23.4256 38.6533 23.72 38.6533H32.2491C32.5434 38.6533 32.7821 38.892 32.7821 39.1863C32.7821 39.4807 32.5434 39.7193 32.2491 39.7193H23.72C23.4256 39.7193 23.187 39.4807 23.187 39.1863Z" fill="#4D9335"/>
</svg>
