<svg width="40" height="40" viewBox="0 0 40 40" fill="none" xmlns="http://www.w3.org/2000/svg">
<rect width="40" height="40" rx="2" fill="white"/>
<path d="M25.962 7H14.038C10.1572 7 7 10.1572 7 14.038V25.9622C7 29.8428 10.1572 33 14.038 33H25.9622C29.8428 33 33 29.8428 33 25.9622V14.038C33 10.1572 29.8428 7 25.962 7V7ZM20 27.1091C16.0799 27.1091 12.8908 23.92 12.8908 20C12.8908 16.0799 16.0799 12.8908 20 12.8908C23.92 12.8908 27.1091 16.0799 27.1091 20C27.1091 23.92 23.92 27.1091 20 27.1091ZM27.2791 14.5674C26.1207 14.5674 25.1785 13.6252 25.1785 12.4667C25.1785 11.3083 26.1207 10.3658 27.2791 10.3658C28.4376 10.3658 29.38 11.3083 29.38 12.4667C29.38 13.6252 28.4376 14.5674 27.2791 14.5674Z" fill="#353A3E"/>
<path d="M20 14.415C16.9206 14.415 14.415 16.9204 14.415 20C14.415 23.0794 16.9206 25.5849 20 25.5849C23.0796 25.5849 25.5849 23.0794 25.5849 20C25.5849 16.9204 23.0796 14.415 20 14.415Z" fill="#353A3E"/>
<path d="M27.2791 11.8901C26.9614 11.8901 26.7027 12.1488 26.7027 12.4666C26.7027 12.7844 26.9614 13.043 27.2791 13.043C27.5971 13.043 27.8558 12.7846 27.8558 12.4666C27.8558 12.1486 27.5971 11.8901 27.2791 11.8901Z" fill="#353A3E"/>
</svg>
