<svg width="56" height="56" viewBox="0 0 56 56" fill="none" xmlns="http://www.w3.org/2000/svg">
<circle cx="28" cy="28" r="28" fill="#F2F2F2"/>
<path d="M17.8591 19.0531C17.8896 19.0531 17.9203 19.0529 17.9509 19.0524C20.0836 19.0294 22.0963 18.2124 23.6178 16.752C26.0123 14.3639 30.0755 14.309 32.47 16.6972C33.9749 18.1697 35.9607 18.9793 38.0654 18.9793H38.1015C40.2211 18.9698 42.2153 18.1403 43.7165 16.643C44.0873 16.2733 44.0951 15.6657 43.7336 15.2862C43.3725 14.9064 42.7787 14.8987 42.4079 15.2685C40.0363 17.6337 36.1594 17.6524 33.7656 15.3096C30.6497 12.2021 25.4513 12.2443 22.3353 15.352C21.1571 16.4827 19.5932 17.1155 17.9311 17.1335C16.2636 17.1507 14.7221 16.5403 13.5918 15.4128C13.2209 15.0431 12.6274 15.0508 12.2661 15.4303C11.9048 15.81 11.9123 16.4176 12.2832 16.7874C13.7502 18.2505 15.7272 19.0531 17.8591 19.0531Z" fill="#4D9335"/>
<path d="M42.4079 23.2528C40.0136 25.6409 36.1177 25.6409 33.7231 23.2528C30.6072 20.1451 25.5372 20.1451 22.4213 23.2528C19.9889 25.6786 15.9455 25.7446 13.5918 23.3971C13.2209 23.0274 12.6274 23.0351 12.2661 23.4148C11.9048 23.7943 11.9123 24.402 12.2832 24.7717C13.7519 26.2366 15.726 27.0377 17.8573 27.0377C17.913 27.0377 17.9687 27.0372 18.0243 27.0359C20.1886 26.9938 22.215 26.1383 23.7296 24.6276C26.1241 22.2395 30.0201 22.2395 32.4146 24.6276C35.5305 27.7353 40.6005 27.7353 43.7165 24.6276C44.0873 24.2578 44.0949 23.6502 43.7335 23.2705C43.3725 22.891 42.7787 22.883 42.4079 23.2528Z" fill="#4D9335"/>
<path d="M42.4079 31.2309C40.0136 33.6188 36.1177 33.6188 33.7231 31.2309C30.6072 28.1232 25.5372 28.1232 22.4213 31.2309C19.9889 33.6565 15.9455 33.7228 13.5918 31.375C13.2209 31.0053 12.6274 31.0133 12.2661 31.3927C11.9048 31.7722 11.9123 32.3799 12.2832 32.7496C13.7519 34.2145 15.726 35.0156 17.8573 35.0156C17.913 35.0156 17.9687 35.0151 18.0243 35.0138C20.1886 34.9717 22.215 34.1162 23.7296 32.6055C26.1241 30.2174 30.0201 30.2174 32.4146 32.6055C35.5305 35.7132 40.6005 35.7132 43.7165 32.6055C44.0873 32.2357 44.0949 31.6281 43.7335 31.2484C43.3725 30.8689 42.7787 30.8609 42.4079 31.2309Z" fill="#4D9335"/>
<path d="M42.4079 39.2153C40.0136 41.6034 36.1177 41.6032 33.7232 39.2153C30.6072 36.1076 25.5372 36.1076 22.4213 39.2153C19.9889 41.6411 15.9455 41.7072 13.5918 39.3597C13.2209 38.9899 12.6274 38.9976 12.2661 39.3771C11.9048 39.7569 11.9123 40.3642 12.2832 40.7343C13.7519 42.1991 15.726 43 17.8576 43C17.913 43 17.9687 42.9995 18.0243 42.9985C20.1889 42.9561 22.215 42.1006 23.7298 40.5899C26.1241 38.202 30.0201 38.202 32.4146 40.5899C35.5305 43.6976 40.6005 43.6976 43.7165 40.5899C44.0873 40.2201 44.0951 39.6125 43.7336 39.233C43.3725 38.8533 42.7787 38.8455 42.4079 39.2153Z" fill="#4D9335"/>
</svg>
