<svg width="100" height="37" viewBox="0 0 100 37" fill="none" xmlns="http://www.w3.org/2000/svg">
<path d="M5.63965 15L2.74121 6.65332H2.68652C2.764 7.8929 2.80273 9.05501 2.80273 10.1396V15H1.31934V5.00586H3.62305L6.39844 12.9561H6.43945L9.29688 5.00586H11.6074V15H10.0352V10.0576C10.0352 9.56087 10.0465 8.91374 10.0693 8.11621C10.0967 7.31868 10.1195 6.83561 10.1377 6.66699H10.083L7.08203 15H5.63965ZM23.1123 9.98926C23.1123 11.6162 22.7044 12.8809 21.8887 13.7832C21.0775 14.6855 19.9268 15.1367 18.4365 15.1367C16.9281 15.1367 15.7682 14.6901 14.957 13.7969C14.1504 12.8991 13.7471 11.6253 13.7471 9.97559C13.7471 8.32585 14.1527 7.05892 14.9639 6.1748C15.7796 5.29069 16.9417 4.84863 18.4502 4.84863C19.9359 4.84863 21.0843 5.29753 21.8955 6.19531C22.7067 7.0931 23.1123 8.35775 23.1123 9.98926ZM15.4834 9.98926C15.4834 11.2197 15.7318 12.154 16.2285 12.792C16.7253 13.4255 17.4613 13.7422 18.4365 13.7422C19.4072 13.7422 20.1387 13.4277 20.6309 12.7988C21.1276 12.1699 21.376 11.2334 21.376 9.98926C21.376 8.76335 21.1299 7.83366 20.6377 7.2002C20.1501 6.56673 19.4209 6.25 18.4502 6.25C17.4704 6.25 16.7298 6.56673 16.2285 7.2002C15.7318 7.83366 15.4834 8.76335 15.4834 9.98926ZM26.8926 9.6543H28.0273C28.7884 9.6543 29.3398 9.51302 29.6816 9.23047C30.0234 8.94792 30.1943 8.52865 30.1943 7.97266C30.1943 7.40755 30.0098 7.00195 29.6406 6.75586C29.2715 6.50977 28.7155 6.38672 27.9727 6.38672H26.8926V9.6543ZM26.8926 11.0078V15H25.2588V5.00586H28.082C29.3717 5.00586 30.3265 5.2474 30.9463 5.73047C31.5661 6.21354 31.876 6.94271 31.876 7.91797C31.876 9.16211 31.2288 10.0485 29.9346 10.5771L32.7578 15H30.8984L28.5059 11.0078H26.8926ZM39.8672 15H34.2139V5.00586H39.8672V6.38672H35.8477V9.10742H39.6143V10.4746H35.8477V13.6123H39.8672V15ZM53.7988 9.90723C53.7988 11.557 53.3408 12.8193 52.4248 13.6943C51.5088 14.5648 50.1895 15 48.4668 15H45.6709V5.00586H48.7607C50.3512 5.00586 51.5885 5.43424 52.4727 6.29102C53.3568 7.14779 53.7988 8.35319 53.7988 9.90723ZM52.0762 9.96191C52.0762 7.56934 50.9574 6.37305 48.7197 6.37305H47.3047V13.626H48.4668C50.873 13.626 52.0762 12.4046 52.0762 9.96191ZM61.6055 15H55.9521V5.00586H61.6055V6.38672H57.5859V9.10742H61.3525V10.4746H57.5859V13.6123H61.6055V15ZM67.2246 15H65.5908V6.40723H62.6514V5.00586H70.1641V6.40723H67.2246V15ZM77.9023 15L76.9043 12.2246H73.083L72.1055 15H70.3828L74.1221 4.96484H75.8994L79.6387 15H77.9023ZM76.4736 10.8164L75.5371 8.0957C75.4688 7.91341 75.373 7.6263 75.25 7.23438C75.1315 6.84245 75.0495 6.55534 75.0039 6.37305C74.8809 6.93359 74.7008 7.54655 74.4639 8.21191L73.5615 10.8164H76.4736ZM80.958 15V5.00586H82.5918V15H80.958ZM85.2373 15V5.00586H86.8711V13.5986H91.1025V15H85.2373ZM98.5879 12.2861C98.5879 13.1748 98.2666 13.8721 97.624 14.3779C96.9814 14.8838 96.0951 15.1367 94.9648 15.1367C93.8346 15.1367 92.9095 14.9613 92.1895 14.6104V13.0654C92.6452 13.2796 93.1283 13.4482 93.6387 13.5713C94.1536 13.6943 94.6322 13.7559 95.0742 13.7559C95.7214 13.7559 96.1976 13.6328 96.5029 13.3867C96.8128 13.1406 96.9678 12.8102 96.9678 12.3955C96.9678 12.0218 96.8265 11.7051 96.5439 11.4453C96.2614 11.1855 95.6781 10.8779 94.7939 10.5225C93.8825 10.1533 93.2399 9.73177 92.8662 9.25781C92.4925 8.78385 92.3057 8.21419 92.3057 7.54883C92.3057 6.71484 92.6019 6.05859 93.1943 5.58008C93.7868 5.10156 94.582 4.8623 95.5801 4.8623C96.5371 4.8623 97.4896 5.07194 98.4375 5.49121L97.918 6.82422C97.0293 6.45052 96.2363 6.26367 95.5391 6.26367C95.0104 6.26367 94.6094 6.37988 94.3359 6.6123C94.0625 6.84017 93.9258 7.14323 93.9258 7.52148C93.9258 7.78125 93.9805 8.00456 94.0898 8.19141C94.1992 8.3737 94.3792 8.54688 94.6299 8.71094C94.8805 8.875 95.3317 9.09147 95.9834 9.36035C96.7171 9.66569 97.2549 9.95052 97.5967 10.2148C97.9385 10.4792 98.1891 10.7777 98.3486 11.1104C98.5081 11.443 98.5879 11.835 98.5879 12.2861Z" fill="#4D9335"/>
<path d="M80.5303 31.5303C80.8232 31.2374 80.8232 30.7626 80.5303 30.4697L75.7574 25.6967C75.4645 25.4038 74.9896 25.4038 74.6967 25.6967C74.4038 25.9896 74.4038 26.4645 74.6967 26.7574L78.9393 31L74.6967 35.2426C74.4038 35.5355 74.4038 36.0104 74.6967 36.3033C74.9896 36.5962 75.4645 36.5962 75.7574 36.3033L80.5303 31.5303ZM20 31.75H80V30.25H20V31.75Z" fill="#4D9335"/>
</svg>
