<svg width="56" height="56" viewBox="0 0 56 56" fill="none" xmlns="http://www.w3.org/2000/svg">
<circle cx="28" cy="28" r="28" fill="#F2F2F2"/>
<path d="M28 12C36.8365 12 44 19.1635 44 28C44 36.8365 36.8365 44 28 44C19.1635 44 12 36.8365 12 28C12.0099 19.1677 19.1677 12.0099 28 12ZM14.1622 33.6052L18.7125 34.3904C18.1917 32.4802 17.9104 30.5128 17.8753 28.5333H13.0799C13.1401 30.2745 13.5065 31.9914 14.1622 33.6052ZM42.9201 28.5333H38.1247C38.0896 30.5128 37.8083 32.4802 37.2875 34.3904L41.8378 33.6052C42.4935 31.9914 42.8599 30.2745 42.9201 28.5333ZM41.8378 22.3948L37.2875 21.6096C37.8083 23.5198 38.0896 25.4872 38.1247 27.4667H42.9201C42.8599 25.7255 42.4935 24.0086 41.8378 22.3948ZM27.4667 20.5633C25.5503 20.5878 23.6385 20.7622 21.7492 21.0854L19.8667 21.4102C19.2883 23.3784 18.9771 25.4154 18.9414 27.4667H27.4667V20.5633ZM21.5674 20.0341C23.5167 19.701 25.4893 19.5211 27.4667 19.4966V13.0966C24.4091 13.3904 21.7531 16.1898 20.2479 20.2641L21.5674 20.0341ZM28.5333 19.4966C30.5107 19.5211 32.4828 19.701 34.432 20.0341L35.7521 20.2625C34.2469 16.1872 31.5909 13.3867 28.5333 13.0943V19.4966ZM34.2503 21.0854C32.3612 20.7622 30.4497 20.5878 28.5333 20.5633V27.4667H37.0586C37.0229 25.4154 36.7117 23.3784 36.1333 21.4102L34.2503 21.0854ZM37.0586 28.5333H28.5333V35.4367C30.4497 35.4122 32.3615 35.2378 34.2508 34.9146L36.1333 34.5898C36.7117 32.6216 37.0229 30.5846 37.0586 28.5333ZM34.4326 35.9659C32.4833 36.2995 30.5109 36.4802 28.5333 36.5063V42.9063C31.5909 42.6122 34.2469 39.8128 35.7521 35.7385L34.4326 35.9659ZM27.4667 36.5063C25.4893 36.4802 23.5172 36.2995 21.568 35.9659L20.2479 35.7375C21.7531 39.8128 24.4091 42.6133 27.4667 42.9057V36.5063ZM21.7497 34.9146C23.6388 35.2378 25.5503 35.4122 27.4667 35.4367V28.5333H18.9414C18.9771 30.5846 19.2883 32.6216 19.8667 34.5898L21.7497 34.9146ZM17.8753 27.4667C17.9104 25.4872 18.1917 23.5198 18.7125 21.6096L14.1622 22.3948C13.5065 24.0086 13.1401 25.7255 13.0799 27.4667H17.8753ZM14.7018 21.2193L19.0635 20.4667C19.8477 17.9086 21.3146 15.6128 23.3068 13.8266C19.5815 15.0698 16.4922 17.7237 14.7018 21.2193ZM32.6932 13.8266C34.6854 15.6128 36.1523 17.9086 36.9365 20.4667L41.2982 21.2193C39.5078 17.7237 36.4185 15.0698 32.6932 13.8266ZM41.2982 34.7807L36.9365 35.5333C36.1523 38.0914 34.6854 40.3872 32.6932 42.1734C36.4185 40.9302 39.5078 38.2763 41.2982 34.7807ZM23.3068 42.1734C21.3146 40.3872 19.8477 38.0914 19.0635 35.5333L14.7018 34.7807C16.4922 38.2763 19.5815 40.9302 23.3068 42.1734Z" fill="#4D9335"/>
</svg>
