<svg width="56" height="56" viewBox="0 0 56 56" fill="none" xmlns="http://www.w3.org/2000/svg">
<circle cx="28" cy="28" r="28" fill="#F2F2F2"/>
<path d="M40.25 19C38.1785 19 36.5 20.678 36.5 22.75V24H31.9805C33.4866 21.4243 34.25 19.4927 34.25 18.25C34.25 14.8037 31.4463 12 28 12C24.5537 12 21.75 14.8037 21.75 18.25C21.75 19.4927 22.5134 21.4246 24.0195 24C23.5122 24 19.9387 24 19.5 24V22.75C19.5 20.6821 17.8179 19 15.75 19C13.6785 19 12 20.678 12 22.75V26.25C12 26.5952 12.2798 26.875 12.625 26.875C12.9702 26.875 13.25 26.5952 13.25 26.25V22.75C13.25 21.3691 14.3689 20.25 15.75 20.25C17.1284 20.25 18.25 21.3716 18.25 22.75V37.4573C17.5862 36.8623 16.7095 36.5 15.75 36.5C14.7903 36.5 13.9141 36.8628 13.25 37.458V31.25C13.25 30.9048 12.9702 30.625 12.625 30.625C12.2798 30.625 12 30.9048 12 31.25V40.25C12 42.3943 13.8511 44 15.9282 44H40.25C42.3179 44 44 42.3179 44 40.25V22.75C44 20.6821 42.3179 19 40.25 19ZM37.75 22.75C37.75 21.3691 38.8689 20.25 40.25 20.25C41.6284 20.25 42.75 21.3716 42.75 22.75V37.4402C42.3203 37.0576 41.803 36.7729 41.2388 36.6274C39.9861 36.3035 38.6973 36.6084 37.75 37.4543C37.75 36.9199 37.75 23.5002 37.75 22.75ZM36.5 31.5H28.5C26.4055 29.5056 22.4053 25.6956 21.9377 25.25H24.7771C26.1416 27.4297 27.4856 29.2307 27.4995 29.2495C27.6177 29.4072 27.803 29.5 28 29.5C28.197 29.5 28.3823 29.4072 28.5005 29.2495C28.5144 29.2307 29.8586 27.4297 31.2229 25.25H36.5V31.5ZM28 13.25C30.7571 13.25 33 15.4929 33 18.25C33 20.5706 29.3394 25.9368 28 27.8118C26.6396 25.907 23 20.5493 23 18.25C23 15.4929 25.2429 13.25 28 13.25ZM13.25 40.25C13.25 38.8716 14.3716 37.75 15.75 37.75C17.1284 37.75 18.25 38.8716 18.25 40.25C18.25 40.5952 18.5298 40.875 18.875 40.875C19.2202 40.875 19.5 40.5952 19.5 40.25V29.8333L25.8438 35.875L18.625 42.75H15.9282C14.5266 42.75 13.25 41.7024 13.25 40.25ZM27.1809 36.3276C27.3049 36.2095 27.375 36.0459 27.375 35.875C27.375 35.7041 27.3049 35.5403 27.1809 35.4224L19.5 28.1072V25.25H20.125C20.1677 25.2908 27.5212 32.2942 27.8191 32.5776C27.9353 32.6882 28.0896 32.75 28.25 32.75H36.5V35.25H31.75C31.5842 35.25 31.4253 35.3159 31.3081 35.4331L23.991 42.75H20.4375L27.1809 36.3276ZM40.25 42.75H25.759L32.009 36.5H36.5V40.25C36.5 40.5952 36.7798 40.875 37.125 40.875C37.4702 40.875 37.75 40.5952 37.75 40.25C37.75 38.6335 39.2637 37.4082 40.9263 37.8376C41.9412 38.0999 42.75 39.0371 42.75 40.25C42.75 41.6284 41.6284 42.75 40.25 42.75Z" fill="#4D9335"/>
<path d="M28 21.375C29.7231 21.375 31.125 19.9731 31.125 18.25C31.125 16.5269 29.7231 15.125 28 15.125C26.2769 15.125 24.875 16.5269 24.875 18.25C24.875 19.9731 26.2769 21.375 28 21.375ZM28 16.375C29.0339 16.375 29.875 17.2161 29.875 18.25C29.875 19.2839 29.0339 20.125 28 20.125C26.9661 20.125 26.125 19.2839 26.125 18.25C26.125 17.2161 26.9661 16.375 28 16.375Z" fill="#4D9335"/>
</svg>
