<svg width="70" height="70" viewBox="0 0 70 70" fill="none" xmlns="http://www.w3.org/2000/svg">
<g clip-path="url(#clip0)">
<path d="M32.9792 35.2247C32.4446 35.7588 32.4446 36.6262 32.9792 37.1618C33.5138 37.6974 34.379 37.6974 34.9125 37.1618C35.4471 36.6262 35.4471 35.7588 34.9125 35.2247C34.379 34.6891 33.5138 34.6891 32.9792 35.2247Z" fill="#333333" fill-opacity="0.5"/>
<path d="M54.7186 4.07591C52.3724 5.89579 51.7332 6.83383 43.4125 15.0846L38.4244 14.2707L40.7134 11.9772C42.3167 10.3709 42.3172 7.77186 40.7134 6.16549C39.1107 4.55964 36.5152 4.55911 34.9125 6.16549L28.4472 12.6434L5.8362 8.95498C4.37502 8.71739 2.88019 9.20166 1.8345 10.2494C-0.176227 12.2641 0.0966765 15.5972 2.39046 17.2603L24.9229 33.6098L20.7044 37.8372C19.2587 39.2857 17.7372 41.2779 16.1734 43.7656L5.6653 40.6694C4.1144 40.213 2.43959 40.6406 1.29404 41.7862C-0.656346 43.7404 -0.361545 46.9858 1.90393 48.5579L10.5183 54.5329C9.01866 57.8489 8.10702 60.2467 8.06483 60.3575C7.87363 60.8616 7.99593 61.4314 8.37618 61.8124C8.75857 62.1956 9.32788 62.3149 9.82829 62.1244C9.93884 62.0827 12.332 61.1687 15.6415 59.6661L21.6053 68.2979C23.1771 70.5715 26.4161 70.8594 28.3644 68.9074C29.5073 67.7606 29.934 66.0826 29.4779 64.5286L26.3884 54.0005C28.8728 52.4326 30.86 50.9081 32.3052 49.4607L36.5243 45.2333L52.8414 67.8099C54.5039 70.1119 57.8305 70.3794 59.8391 68.3669C60.8843 67.3197 61.3676 65.8209 61.131 64.3563L57.4497 41.7027L63.9145 35.2253C65.5178 33.6189 65.5178 31.0183 63.9145 29.4125C62.3118 27.8061 59.7179 27.8061 58.1146 29.4125L55.8251 31.7059L55.0134 26.7081C63.2566 18.3626 64.1778 17.7371 65.9952 15.3864C65.9973 15.3837 66 15.3805 66.0022 15.3773C70.2191 9.90157 71.206 4.37129 68.4561 1.61497C65.7057 -1.1392 60.1857 -0.151402 54.7186 4.07591ZM36.8458 8.10309C37.3798 7.56746 38.2455 7.56746 38.7801 8.10309C39.3147 8.63873 39.3142 9.50399 38.7801 10.0396L35.0983 13.7281L31.7727 13.1855L36.8458 8.10309ZM3.9937 15.0407C3.05803 14.3627 2.95068 13.0052 3.76833 12.1865C4.19397 11.7595 4.80387 11.562 5.39774 11.6589L41.0301 17.4717L26.8813 31.6476L3.9937 15.0407ZM3.22733 43.7243C3.66419 43.2872 4.30292 43.1234 4.89412 43.2979L14.7224 46.1939C13.7173 47.9576 12.7031 49.9059 11.6916 52.0147L3.46071 46.3057C2.59714 45.7064 2.48392 44.4687 3.22733 43.7243ZM26.43 66.9714C25.693 67.7098 24.4561 67.6103 23.8532 66.7381L18.1553 58.4905C20.2617 57.476 22.2067 56.4593 23.9648 55.4543L26.8546 65.3013C27.0287 65.8942 26.8658 66.5342 26.43 66.9714ZM60.0485 31.3496C60.5825 30.8145 61.4466 30.8139 61.9812 31.3496C62.5158 31.8852 62.5153 32.7521 61.9812 33.2877L56.9082 38.3701L56.3672 35.038L60.0485 31.3496ZM58.4319 64.7956C58.5285 65.3923 58.3315 66.0034 57.9058 66.4298C57.0925 67.2448 55.7365 67.1453 55.0566 66.2035L38.4821 43.2717L52.6309 29.0952L58.4319 64.7956ZM30.3719 47.523C28.8675 49.031 26.6655 50.6587 23.8276 52.362C20.1383 54.5757 15.7724 56.6722 11.8342 58.3482C13.5523 54.2953 15.6842 49.8502 17.9412 46.1114C19.5919 43.3749 21.1722 41.2425 22.6382 39.7742C56.035 6.39237 54.0563 8.11433 56.0831 6.49029C58.3315 6.34635 60.3107 7.01523 61.6886 8.39579C63.0664 9.77636 63.7345 11.76 63.5909 14.0122C61.9663 16.0478 63.6646 14.0845 30.3719 47.523ZM65.9306 10.4126C65.4937 8.90254 64.7177 7.55622 63.6224 6.45872C62.527 5.36176 61.1833 4.58372 59.6768 4.14601C61.6554 3.14055 64.9874 2.01469 66.5229 3.55204C67.7352 4.76726 67.434 7.44224 65.9306 10.4126Z" fill="#333333" fill-opacity="0.5"/>
<path d="M40.7134 27.4753L36.8468 31.3489C36.3128 31.884 36.3128 32.7514 36.8468 33.2865C37.3809 33.8216 38.2461 33.8211 38.7807 33.2865L42.6467 29.4124C43.1808 28.8778 43.1808 28.0104 42.6467 27.4753C42.1127 26.9402 41.2475 26.9402 40.7134 27.4753Z" fill="#333333" fill-opacity="0.5"/>
<path d="M48.4477 19.726L44.5795 23.6012C44.0459 24.1364 44.0459 25.0038 44.5795 25.5389C45.1141 26.0734 45.9792 26.0734 46.5133 25.5389L50.3809 21.6636C50.915 21.1285 50.915 20.2611 50.3809 19.726C49.8469 19.1909 48.9817 19.1909 48.4477 19.726Z" fill="#333333" fill-opacity="0.5"/>
</g>
<defs>
<clipPath id="clip0">
<rect width="70" height="70" fill="white"/>
</clipPath>
</defs>
</svg>
