<svg width="40" height="33" viewBox="0 0 40 33" fill="none" xmlns="http://www.w3.org/2000/svg">
<path d="M16.9049 16.8643C17.6182 15.0528 19.1449 13.7616 21.2597 13.1599C21.4537 12.2573 21.9292 11.3923 22.6487 10.6526C23.4997 9.78135 24.6196 9.15454 25.8085 8.87874C25.0263 5.95153 21.6539 4.42211 18.6381 5.8387C15.7224 -2.5167 6.1181 1.41968 6.24324 6.62222C-0.733169 7.85704 -1.16489 14.3007 1.55059 17.9362C2.60174 19.334 4.26607 20.1426 6.02424 20.1488C8.32677 20.1551 12.4626 20.1676 16.5545 20.1676C16.3919 19.0456 16.4982 17.8923 16.9049 16.8643Z" fill="#B2B2B2"/>
<path d="M28.5986 22.8758L26.7466 28.5484H28.4547L27.5099 32.9988L31.1702 27.0629H29.1554L31.1702 22.8758H28.5986Z" fill="#FFCB27"/>
<path d="M19.0631 22.6627C17.0484 19.9611 17.3675 15.1785 22.5482 14.2634C22.4543 10.4022 29.5872 7.48128 31.752 13.6805C34.261 12.4958 37.1017 14.0691 37.1955 16.7706C39.5293 17.4539 41.1624 20.6757 38.96 23.0388C38.1904 23.8599 37.1017 24.3112 35.9754 24.3112C32.0336 24.3363 25.2637 24.3175 22.3793 24.3049C21.0778 24.2987 19.8452 23.7032 19.0631 22.6627Z" fill="#B2B2B2"/>
<path d="M23.6119 25.1574C24.2751 26.0663 25.1323 27.2008 25.1323 28.0407C25.1323 28.8807 24.4503 29.5639 23.6119 29.5639C22.7734 29.5639 22.0852 28.8869 22.0852 28.0407C22.0852 27.2008 22.9674 26.0914 23.6119 25.1574Z" fill="#ACCEEA"/>
<path d="M34.3111 25.1574C34.9743 26.0663 35.8315 27.2008 35.8315 28.0407C35.8315 28.8807 35.1495 29.5639 34.3111 29.5639C33.4727 29.5639 32.7907 28.8807 32.7907 28.0407C32.7907 27.2008 33.6729 26.0914 34.3111 25.1574Z" fill="#ACCEEA"/>
</svg>
