<svg width="28" height="25" viewBox="0 0 28 25" fill="none" xmlns="http://www.w3.org/2000/svg">
<path d="M12.5496 15.4444V21.3689C12.5502 21.5414 12.4895 21.7085 12.3783 21.8405C12.2672 21.9724 12.1128 22.0606 11.9427 22.0892C11.7725 22.1179 11.5978 22.0852 11.4495 21.997C11.3013 21.9088 11.1892 21.7708 11.1332 21.6076C11.005 21.2436 10.7375 20.9454 10.3895 20.7786C10.0416 20.6119 9.6416 20.5902 9.27765 20.7184C8.9137 20.8466 8.61556 21.1142 8.44884 21.4622C8.28212 21.8102 8.26047 22.2103 8.38864 22.5743C8.67455 23.3839 9.23756 24.0663 9.97808 24.5007C10.7186 24.935 11.5889 25.0934 12.4349 24.9478C13.281 24.8022 14.0482 24.362 14.601 23.705C15.1537 23.0481 15.4563 22.2167 15.4552 21.3581V15.4384C15.0625 15.06 14.5444 14.8391 13.9995 14.8178C13.453 14.8297 12.9327 15.0545 12.5496 15.4444Z" fill="#B2B2B2"/>
<path d="M27.0814 14.4994C26.6121 12.1731 25.5237 10.0166 23.9311 8.25747C23.7559 8.53676 23.544 8.79126 23.3011 9.01414C22.5435 9.69958 21.5584 10.0791 20.5368 10.0791C19.5153 10.0791 18.5301 9.69958 17.7726 9.01414C17.4016 8.67802 17.1048 8.26808 16.9014 7.81058C16.6979 7.35309 16.5923 6.85814 16.5912 6.35745C16.5993 5.62728 16.8254 4.91618 17.2404 4.3154C16.6514 4.17044 16.0534 4.06439 15.4505 3.99793V3.18517C15.456 2.99053 15.4225 2.79675 15.3519 2.61529C15.2813 2.43384 15.175 2.26839 15.0393 2.12875C14.9036 1.9891 14.7413 1.8781 14.562 1.8023C14.3827 1.72649 14.19 1.68744 13.9953 1.68744C13.8006 1.68744 13.6079 1.72649 13.4285 1.8023C13.2492 1.8781 13.0869 1.9891 12.9512 2.12875C12.8155 2.26839 12.7093 2.43384 12.6386 2.61529C12.568 2.79675 12.5345 2.99053 12.5401 3.18517V3.99674C9.73546 4.27361 7.09341 5.44225 5.00163 7.3312C2.90985 9.22014 1.47846 11.7299 0.917526 14.4922C0.819677 14.9517 1.30295 15.4589 1.76714 15.0102C4.13103 12.5039 6.65958 12.6232 8.97455 16.6906C9.00868 16.7816 9.06975 16.86 9.1496 16.9153C9.22945 16.9706 9.32428 17.0003 9.42143 17.0003C9.51857 17.0003 9.61341 16.9706 9.69326 16.9153C9.77311 16.86 9.83418 16.7816 9.86831 16.6906C10.7859 15.0794 11.91 13.3644 13.9899 13.3644C16.6509 13.3644 17.9993 16.4901 18.1115 16.6906C18.1456 16.7816 18.2067 16.86 18.2865 16.9153C18.3664 16.9706 18.4612 17.0003 18.5584 17.0003C18.6555 17.0003 18.7503 16.9706 18.8302 16.9153C18.91 16.86 18.9711 16.7816 19.0052 16.6906C21.325 12.622 23.8738 12.5337 26.2127 15.0102C26.7007 15.4685 27.184 14.9553 27.0814 14.4994Z" fill="#B2B2B2"/>
<path d="M24.7711 0.14992C24.4298 1.21467 23.6971 1.50354 23.6971 2.25555C23.7194 2.58369 23.8655 2.89113 24.1057 3.11567C24.3459 3.34022 24.6625 3.46512 24.9913 3.46512C25.32 3.46512 25.6366 3.34022 25.8768 3.11567C26.1171 2.89113 26.2631 2.58369 26.2854 2.25555C26.2854 1.49877 25.5527 1.21945 25.2114 0.14992C25.1952 0.106059 25.1659 0.0682317 25.1275 0.0415191C25.0891 0.0148064 25.0434 0.000488281 24.9966 0.000488281C24.9498 0.000488281 24.9042 0.0148064 24.8658 0.0415191C24.8274 0.0682317 24.7981 0.106059 24.7818 0.14992H24.7711Z" fill="#4C91E2"/>
<path d="M20.0349 1.42594C19.2295 3.91674 17.5052 4.59583 17.5052 6.35383C17.5639 7.11804 17.9089 7.83192 18.4712 8.35271C19.0335 8.8735 19.7715 9.16282 20.5379 9.16282C21.3042 9.16282 22.0423 8.8735 22.6046 8.35271C23.1669 7.83192 23.5119 7.11804 23.5706 6.35383C23.5706 4.58628 21.8511 3.93106 21.0409 1.42594C21.0025 1.32345 20.9338 1.23512 20.844 1.17275C20.7541 1.11039 20.6473 1.07697 20.5379 1.07697C20.4285 1.07697 20.3217 1.11039 20.2318 1.17275C20.1419 1.23512 20.0732 1.32345 20.0349 1.42594Z" fill="#4C91E2"/>
</svg>
