<svg width="40" height="32" viewBox="0 0 40 32" fill="none" xmlns="http://www.w3.org/2000/svg">
<g clip-path="url(#clip0)">
<path d="M12.1813 20.7813C10.0375 17.9188 10.3813 12.8313 15.8938 11.8563C15.7938 7.75629 23.3875 4.65004 25.6938 11.2375C28.3625 9.98129 31.3875 11.65 31.4875 14.5188C33.975 15.2438 35.7063 18.6625 33.3625 21.175C32.5438 22.05 31.3813 22.525 30.1875 22.5313C25.9938 22.5563 18.7938 22.5375 15.7188 22.525C14.3313 22.5188 13.0125 21.8813 12.1813 20.7813Z" fill="#B2B2B2"/>
<path d="M13.75 4.46873C13.2688 4.46873 12.8688 4.06873 12.8688 3.58748V0.856226C12.875 0.374976 13.2688 -0.0250244 13.75 -0.0250244C14.2313 -0.0250244 14.6313 0.374976 14.6313 0.856226V3.59373C14.6313 4.07498 14.2313 4.46873 13.75 4.46873Z" fill="#FFCB27"/>
<path d="M8.84375 9.38125C8.84375 9.8625 8.44375 10.2625 7.9625 10.2625H5.225C4.74375 10.2625 4.34375 9.8625 4.34375 9.38125C4.34375 8.89375 4.74375 8.5 5.225 8.5H7.9625C8.45 8.5 8.84375 8.89375 8.84375 9.38125Z" fill="#FFCB27"/>
<path d="M17.2188 5.9063C16.8813 5.5688 16.8813 5.0063 17.2188 4.66255L19.1563 2.72505C19.4938 2.38755 20.0563 2.38755 20.4 2.72505C20.7375 3.06255 20.7375 3.62505 20.4 3.9688L18.4625 5.9063C18.125 6.25005 17.5625 6.25005 17.2188 5.9063Z" fill="#FFCB27"/>
<path d="M7.09999 16.0313C6.76249 15.6938 6.76249 15.1313 7.09999 14.7875L9.03749 12.85C9.37499 12.5125 9.93749 12.5125 10.2812 12.85C10.6187 13.1875 10.6187 13.75 10.2812 14.0938L8.34374 16.0313C7.99999 16.3688 7.44374 16.3688 7.09999 16.0313Z" fill="#FFCB27"/>
<path d="M10.2812 5.9063C9.94373 6.2438 9.38123 6.2438 9.03748 5.9063L7.09999 3.9688C6.76249 3.6313 6.76249 3.0688 7.09999 2.72505C7.43749 2.38755 7.99998 2.38755 8.34373 2.72505L10.2812 4.66255C10.625 5.0063 10.625 5.5688 10.2812 5.9063Z" fill="#FFCB27"/>
<path d="M11.7313 12.8813C11.9125 12.7 12.1125 12.525 12.3313 12.3563C13.075 11.7813 13.9813 11.3563 15.025 11.0938C15.1813 10.1313 15.6625 9.20005 16.4313 8.4188C16.725 8.1188 17.0438 7.85005 17.3938 7.61255C16.7375 6.26255 15.35 5.3313 13.75 5.3313C11.5188 5.3313 9.7063 7.1438 9.7063 9.37505C9.7063 10.8813 10.525 12.1875 11.7313 12.8813Z" fill="#FFCB27"/>
<path d="M13.3688 23.6438C13.9313 24.4188 14.675 25.3938 14.675 26.1063C14.675 26.8251 14.0875 27.4125 13.3688 27.4125C12.65 27.4125 12.0625 26.8313 12.0625 26.1063C12.0625 25.3876 12.8188 24.4438 13.3688 23.6438Z" fill="#ACCEEA"/>
<path d="M17.775 25.4501C18.3375 26.2251 19.0812 27.2001 19.0812 27.9126C19.0812 28.6313 18.5 29.2188 17.775 29.2188C17.05 29.2188 16.4688 28.6376 16.4688 27.9126C16.475 27.1938 17.2312 26.2501 17.775 25.4501Z" fill="#ACCEEA"/>
<path d="M27.0375 25.4501C27.6 26.2251 28.3438 27.2001 28.3438 27.9126C28.3438 28.6313 27.7625 29.2188 27.0375 29.2188C26.3188 29.2188 25.7313 28.6376 25.7313 27.9126C25.7313 27.1938 26.5 26.2501 27.0375 25.4501Z" fill="#ACCEEA"/>
<path d="M22.5375 23.6438C23.1 24.4188 23.8438 25.3938 23.8438 26.1063C23.8438 26.8251 23.2625 27.4125 22.5375 27.4125C21.8125 27.4125 21.2313 26.8313 21.2313 26.1063C21.2313 25.3876 21.9875 24.4438 22.5375 23.6438Z" fill="#ACCEEA"/>
<path d="M31.7062 23.6438C32.2687 24.4188 33.0125 25.3938 33.0125 26.1063C33.0125 26.8251 32.4312 27.4125 31.7062 27.4125C30.9875 27.4125 30.4 26.8313 30.4 26.1063C30.4 25.3876 31.1687 24.4438 31.7062 23.6438Z" fill="#ACCEEA"/>
</g>
<defs>
<clipPath id="clip0">
<rect width="40" height="32" fill="white"/>
</clipPath>
</defs>
</svg>
