<svg width="245" height="31" viewBox="0 0 245 31" fill="none" xmlns="http://www.w3.org/2000/svg">
<rect width="14" height="12" rx="2" fill="#4B9100"/>
<path d="M7.8877 27H6.78027V19.877C6.78027 19.2845 6.7985 18.724 6.83496 18.1953C6.73926 18.291 6.63216 18.3913 6.51367 18.4961C6.39518 18.6009 5.85286 19.0452 4.88672 19.8291L4.28516 19.0498L6.93066 17.0059H7.8877V27Z" fill="#222222"/>
<rect x="23" width="14" height="12" rx="2" fill="#9FC920"/>
<path d="M33.2529 27H26.6836V26.0225L29.3154 23.377C30.1175 22.5658 30.6462 21.987 30.9014 21.6406C31.1566 21.2943 31.348 20.957 31.4756 20.6289C31.6032 20.3008 31.667 19.9476 31.667 19.5693C31.667 19.0361 31.5052 18.6146 31.1816 18.3047C30.8581 17.9902 30.4092 17.833 29.835 17.833C29.4202 17.833 29.026 17.9014 28.6523 18.0381C28.2832 18.1748 27.8708 18.4232 27.415 18.7832L26.8135 18.0107C27.734 17.2451 28.7367 16.8623 29.8213 16.8623C30.7601 16.8623 31.4961 17.1038 32.0293 17.5869C32.5625 18.0654 32.8291 18.7103 32.8291 19.5215C32.8291 20.1549 32.6514 20.7816 32.2959 21.4014C31.9404 22.0212 31.2751 22.805 30.2998 23.7529L28.1123 25.8926V25.9473H33.2529V27Z" fill="#222222"/>
<rect x="46" width="14" height="12" rx="2" fill="#E4F364"/>
<path d="M55.877 19.3574C55.877 19.9954 55.6969 20.5173 55.3369 20.9229C54.9814 21.3285 54.4756 21.5996 53.8193 21.7363V21.791C54.6214 21.8913 55.2161 22.1465 55.6035 22.5566C55.9909 22.9668 56.1846 23.5046 56.1846 24.1699C56.1846 25.1224 55.8542 25.8561 55.1934 26.3711C54.5326 26.8815 53.5938 27.1367 52.377 27.1367C51.8483 27.1367 51.363 27.0957 50.9209 27.0137C50.4834 26.9362 50.0573 26.7972 49.6426 26.5967V25.5166C50.0755 25.7308 50.5358 25.8949 51.0234 26.0088C51.5156 26.1182 51.9805 26.1729 52.418 26.1729C54.1452 26.1729 55.0088 25.4961 55.0088 24.1426C55.0088 22.9303 54.0563 22.3242 52.1514 22.3242H51.167V21.3467H52.165C52.9443 21.3467 53.5618 21.1758 54.0176 20.834C54.4733 20.4876 54.7012 20.0091 54.7012 19.3984C54.7012 18.9108 54.5326 18.528 54.1953 18.25C53.8626 17.972 53.4092 17.833 52.835 17.833C52.3975 17.833 51.985 17.8923 51.5977 18.0107C51.2103 18.1292 50.7682 18.348 50.2715 18.667L49.6973 17.9014C50.1074 17.5778 50.5791 17.3249 51.1123 17.1426C51.6501 16.9557 52.2152 16.8623 52.8076 16.8623C53.7783 16.8623 54.5326 17.0856 55.0703 17.5322C55.6081 17.9743 55.877 18.5827 55.877 19.3574Z" fill="#222222"/>
<rect x="69" width="14" height="12" rx="2" fill="#F2ED6A"/>
<path d="M79.7246 24.7031H78.2412V27H77.1543V24.7031H72.2939V23.7119L77.0381 16.9512H78.2412V23.6709H79.7246V24.7031ZM77.1543 23.6709V20.3486C77.1543 19.6969 77.1771 18.9609 77.2227 18.1406H77.168C76.9492 18.5781 76.7441 18.9404 76.5527 19.2275L73.4287 23.6709H77.1543Z" fill="#222222"/>
<rect x="92" width="14" height="12" rx="2" fill="#FCE517"/>
<path d="M98.8076 20.8955C99.8604 20.8955 100.688 21.1576 101.289 21.6816C101.895 22.2012 102.198 22.9144 102.198 23.8213C102.198 24.8558 101.868 25.667 101.207 26.2549C100.551 26.8428 99.6439 27.1367 98.4863 27.1367C97.3607 27.1367 96.5016 26.9567 95.9092 26.5967V25.5029C96.2282 25.708 96.6247 25.8698 97.0986 25.9883C97.5726 26.1022 98.0397 26.1592 98.5 26.1592C99.3021 26.1592 99.9242 25.9701 100.366 25.5918C100.813 25.2135 101.036 24.6667 101.036 23.9512C101.036 22.5566 100.182 21.8594 98.4727 21.8594C98.0397 21.8594 97.4609 21.9255 96.7363 22.0576L96.1484 21.6816L96.5244 17.0059H101.494V18.0518H97.4951L97.2422 21.0527C97.7663 20.9479 98.2881 20.8955 98.8076 20.8955Z" fill="#222222"/>
<rect x="115" width="14" height="12" rx="2" fill="#FFD324"/>
<path d="M118.8 22.7275C118.8 20.7633 119.18 19.2959 119.941 18.3252C120.707 17.3499 121.837 16.8623 123.332 16.8623C123.847 16.8623 124.253 16.9056 124.549 16.9922V17.9697C124.198 17.8558 123.797 17.7988 123.346 17.7988C122.275 17.7988 121.457 18.1338 120.892 18.8037C120.326 19.4691 120.017 20.5173 119.962 21.9482H120.044C120.545 21.1644 121.338 20.7725 122.423 20.7725C123.321 20.7725 124.027 21.0436 124.542 21.5859C125.062 22.1283 125.321 22.8643 125.321 23.7939C125.321 24.833 125.036 25.651 124.467 26.248C123.902 26.8405 123.136 27.1367 122.17 27.1367C121.135 27.1367 120.315 26.7493 119.709 25.9746C119.103 25.1953 118.8 24.113 118.8 22.7275ZM122.156 26.1729C122.803 26.1729 123.305 25.9701 123.66 25.5645C124.02 25.1543 124.2 24.5641 124.2 23.7939C124.2 23.1331 124.034 22.6136 123.701 22.2354C123.368 21.8571 122.872 21.668 122.211 21.668C121.801 21.668 121.425 21.7523 121.083 21.9209C120.741 22.0895 120.468 22.3219 120.263 22.6182C120.062 22.9144 119.962 23.222 119.962 23.541C119.962 24.0104 120.053 24.4479 120.235 24.8535C120.418 25.2591 120.675 25.5804 121.008 25.8174C121.345 26.0544 121.728 26.1729 122.156 26.1729Z" fill="#222222"/>
<rect x="138" width="14" height="12" rx="2" fill="#F8B03F"/>
<path d="M142.948 27L147.091 18.0518H141.643V17.0059H148.294V17.915L144.206 27H142.948Z" fill="#222222"/>
<rect x="161" width="14" height="12" rx="2" fill="#F24841"/>
<path d="M167.992 16.8623C168.904 16.8623 169.626 17.0742 170.159 17.498C170.692 17.9219 170.959 18.5075 170.959 19.2549C170.959 19.7471 170.806 20.196 170.501 20.6016C170.196 21.0072 169.708 21.3763 169.038 21.709C169.849 22.0964 170.426 22.5042 170.768 22.9326C171.109 23.3564 171.28 23.8486 171.28 24.4092C171.28 25.2386 170.991 25.9017 170.412 26.3984C169.833 26.8906 169.04 27.1367 168.033 27.1367C166.967 27.1367 166.146 26.9043 165.572 26.4395C164.998 25.9701 164.711 25.307 164.711 24.4502C164.711 23.3063 165.408 22.4154 166.803 21.7773C166.174 21.4219 165.723 21.0391 165.449 20.6289C165.176 20.2142 165.039 19.7516 165.039 19.2412C165.039 18.5166 165.306 17.9401 165.839 17.5117C166.377 17.0788 167.094 16.8623 167.992 16.8623ZM165.832 24.4775C165.832 25.0244 166.021 25.4505 166.399 25.7559C166.782 26.0612 167.318 26.2139 168.006 26.2139C168.685 26.2139 169.214 26.0544 169.592 25.7354C169.97 25.4163 170.159 24.9788 170.159 24.4229C170.159 23.9808 169.981 23.5889 169.626 23.2471C169.271 22.9007 168.651 22.5658 167.767 22.2422C167.088 22.5339 166.595 22.8574 166.29 23.2129C165.985 23.5638 165.832 23.9854 165.832 24.4775ZM167.979 17.7852C167.409 17.7852 166.962 17.9219 166.639 18.1953C166.315 18.4688 166.153 18.8333 166.153 19.2891C166.153 19.7083 166.288 20.0684 166.557 20.3691C166.826 20.6699 167.322 20.9707 168.047 21.2715C168.699 20.998 169.159 20.7041 169.428 20.3896C169.701 20.0752 169.838 19.7083 169.838 19.2891C169.838 18.8288 169.672 18.4642 169.339 18.1953C169.011 17.9219 168.557 17.7852 167.979 17.7852Z" fill="#222222"/>
<rect x="184" width="14" height="12" rx="2" fill="#C7121F"/>
<path d="M194.253 21.2715C194.253 25.1816 192.74 27.1367 189.714 27.1367C189.185 27.1367 188.766 27.0911 188.456 27V26.0225C188.821 26.141 189.235 26.2002 189.7 26.2002C190.794 26.2002 191.619 25.863 192.175 25.1885C192.735 24.5094 193.041 23.4704 193.091 22.0713H193.009C192.758 22.4495 192.425 22.7389 192.011 22.9395C191.596 23.1354 191.129 23.2334 190.609 23.2334C189.725 23.2334 189.023 22.9691 188.504 22.4404C187.984 21.9118 187.725 21.1735 187.725 20.2256C187.725 19.1865 188.014 18.3662 188.593 17.7646C189.176 17.1631 189.942 16.8623 190.89 16.8623C191.569 16.8623 192.161 17.0378 192.667 17.3887C193.177 17.735 193.569 18.2432 193.843 18.9131C194.116 19.5785 194.253 20.3646 194.253 21.2715ZM190.89 17.833C190.238 17.833 189.734 18.0426 189.379 18.4619C189.023 18.8812 188.846 19.4645 188.846 20.2119C188.846 20.8682 189.01 21.3854 189.338 21.7637C189.666 22.1374 190.165 22.3242 190.835 22.3242C191.25 22.3242 191.63 22.2399 191.977 22.0713C192.327 21.9027 192.603 21.6725 192.804 21.3809C193.004 21.0892 193.104 20.7839 193.104 20.4648C193.104 19.9863 193.011 19.5443 192.824 19.1387C192.637 18.7331 192.375 18.4141 192.038 18.1816C191.705 17.9492 191.323 17.833 190.89 17.833Z" fill="#222222"/>
<rect x="207" width="14" height="12" rx="2" fill="#C11185"/>
<path d="M210.376 27H209.269V19.877C209.269 19.2845 209.287 18.724 209.323 18.1953C209.228 18.291 209.12 18.3913 209.002 18.4961C208.883 18.6009 208.341 19.0452 207.375 19.8291L206.773 19.0498L209.419 17.0059H210.376V27ZM220.808 21.9893C220.808 23.7165 220.534 25.0062 219.987 25.8584C219.445 26.7106 218.613 27.1367 217.492 27.1367C216.417 27.1367 215.599 26.7015 215.038 25.8311C214.478 24.9561 214.197 23.6755 214.197 21.9893C214.197 20.2484 214.468 18.9564 215.011 18.1133C215.553 17.2702 216.38 16.8486 217.492 16.8486C218.577 16.8486 219.399 17.2884 219.96 18.168C220.525 19.0475 220.808 20.3213 220.808 21.9893ZM215.346 21.9893C215.346 23.443 215.517 24.5026 215.858 25.168C216.2 25.8288 216.745 26.1592 217.492 26.1592C218.249 26.1592 218.796 25.8242 219.133 25.1543C219.475 24.4798 219.646 23.4248 219.646 21.9893C219.646 20.5537 219.475 19.5033 219.133 18.8379C218.796 18.168 218.249 17.833 217.492 17.833C216.745 17.833 216.2 18.1634 215.858 18.8242C215.517 19.4805 215.346 20.5355 215.346 21.9893Z" fill="#222222"/>
<rect x="230" width="14" height="12" rx="2" fill="#4B2B51"/>
<path d="M233.376 27H232.269V19.877C232.269 19.2845 232.287 18.724 232.323 18.1953C232.228 18.291 232.12 18.3913 232.002 18.4961C231.883 18.6009 231.341 19.0452 230.375 19.8291L229.773 19.0498L232.419 17.0059H233.376V27ZM241.388 27H240.28V19.877C240.28 19.2845 240.299 18.724 240.335 18.1953C240.239 18.291 240.132 18.3913 240.014 18.4961C239.895 18.6009 239.353 19.0452 238.387 19.8291L237.785 19.0498L240.431 17.0059H241.388V27Z" fill="#222222"/>
</svg>
