<svg viewBox="0 0 23 23" fill="none" xmlns="http://www.w3.org/2000/svg">
<path d="M0.527628 8.65916L2.25118 8.28448C2.40105 7.82562 2.58669 7.37805 2.80585 6.9469L1.85169 5.46271C1.68128 5.19752 1.71875 4.84935 1.94151 4.62659L4.62658 1.94152C4.84934 1.71876 5.19751 1.68129 5.46269 1.8517L6.94689 2.80586C7.37804 2.5867 7.82561 2.40107 8.28447 2.25119L8.65915 0.527639C8.72605 0.219678 8.99876 0 9.31391 0H13.1111C13.4262 0 13.6989 0.219678 13.7658 0.527639L14.1405 2.25119C14.5994 2.40107 15.0469 2.5867 15.4781 2.80586L16.9623 1.8517C17.2275 1.68129 17.5756 1.71876 17.7984 1.94152L20.4835 4.62659C20.7062 4.84935 20.7437 5.19752 20.5733 5.46271L19.6191 6.9469C19.8383 7.37805 20.0239 7.82562 20.1738 8.28448L21.8973 8.65916C22.2053 8.72623 22.425 8.99878 22.425 9.31392V13.1111C22.425 13.4262 22.2053 13.6988 21.8973 13.7658L20.1738 14.1405C20.0239 14.5994 19.8383 15.047 19.6191 15.4781L20.5733 16.9623C20.7437 17.2275 20.7062 17.5756 20.4835 17.7984L17.7984 20.4835C17.5756 20.7062 17.2275 20.7437 16.9623 20.5733L15.4781 19.6191C15.0469 19.8383 14.5994 20.0239 14.1405 20.1738L13.7658 21.8974C13.6989 22.2053 13.4262 22.425 13.1111 22.425H9.31391C8.99876 22.425 8.72605 22.2053 8.65915 21.8974L8.28447 20.1738C7.82561 20.0239 7.37804 19.8383 6.94689 19.6191L5.46269 20.5733C5.19751 20.7437 4.84934 20.7064 4.62658 20.4835L1.94151 17.7984C1.71875 17.5756 1.68128 17.2275 1.85169 16.9623L2.80585 15.4781C2.58669 15.047 2.40105 14.5994 2.25118 14.1405L0.527628 13.7658C0.219667 13.6988 -1.14441e-05 13.4262 -1.14441e-05 13.1111V9.31392C-1.14441e-05 8.99878 0.219667 8.72623 0.527628 8.65916ZM1.34013 12.5709L2.92048 12.9145C3.16326 12.9674 3.35693 13.1501 3.42365 13.3893C3.59731 14.0122 3.8471 14.6146 4.16601 15.1797C4.28817 15.3961 4.28064 15.6624 4.14616 15.8714L3.27104 17.2326L5.1922 19.1539L6.55356 18.2788C6.76263 18.1443 7.02884 18.1368 7.2451 18.259C7.81038 18.5779 8.41278 18.8277 9.03572 19.0013C9.2749 19.0681 9.45763 19.2617 9.51049 19.5045L9.85404 21.0849H12.5709L12.9145 19.5045C12.9674 19.2617 13.1501 19.0681 13.3893 19.0013C14.0122 18.8277 14.6146 18.5779 15.1797 18.259C15.3961 18.1368 15.6623 18.1445 15.8714 18.2788L17.2326 19.1539L19.1538 17.2326L18.2788 15.8714C18.1443 15.6624 18.1366 15.3961 18.2588 15.1797C18.5777 14.6146 18.8275 14.0122 19.0013 13.3893C19.068 13.1501 19.2615 12.9674 19.5043 12.9145L21.0848 12.5709V9.85405L19.5045 9.5105C19.2617 9.45764 19.068 9.27491 19.0013 9.03573C18.8277 8.4128 18.5779 7.81039 18.259 7.24528C18.1368 7.02886 18.1443 6.76264 18.2788 6.55357L19.1539 5.19239L17.2328 3.27105L15.8714 4.14617C15.6623 4.28065 15.3961 4.28818 15.1799 4.16602C14.6146 3.84711 14.0122 3.59732 13.3893 3.42367C13.1501 3.35694 12.9674 3.16327 12.9145 2.92049L12.5709 1.34014H9.85404L9.51049 2.92049C9.45763 3.16327 9.2749 3.35694 9.03572 3.42367C8.41278 3.59732 7.81038 3.84711 7.24527 4.16602C7.02884 4.28818 6.76263 4.28048 6.55356 4.14617L5.19237 3.27105L3.27121 5.19239L4.14616 6.55357C4.28064 6.76264 4.28834 7.02886 4.16618 7.24528C3.8471 7.81039 3.59748 8.4128 3.42365 9.03573C3.35693 9.27491 3.16343 9.45764 2.92065 9.5105L1.34013 9.85405V12.5709Z" fill="white"/>
<path d="M10.7018 8.9867C10.1908 8.9867 9.79517 9.17941 9.51486 9.56484C9.23454 9.94735 9.09439 10.4817 9.09439 11.1679C9.09439 12.5957 9.63019 13.3096 10.7018 13.3096C11.1515 13.3096 11.696 13.1972 12.3355 12.9724V14.1112C11.8099 14.3302 11.223 14.4397 10.5748 14.4397C9.64333 14.4397 8.93087 14.1579 8.4374 13.5943C7.94394 13.0279 7.6972 12.2161 7.6972 11.1591C7.6972 10.4934 7.81838 9.91085 8.06073 9.41155C8.30309 8.90932 8.65056 8.52535 9.10315 8.25964C9.55865 7.99101 10.0915 7.85669 10.7018 7.85669C11.3237 7.85669 11.9486 8.00707 12.5764 8.30782L12.1384 9.41155C11.899 9.29767 11.6581 9.19839 11.4157 9.11372C11.1734 9.02904 10.9354 8.9867 10.7018 8.9867Z" fill="white"/>
<path d="M13.4524 9.22321C13.4524 8.84362 13.5838 8.52097 13.8466 8.25526C14.1123 7.98955 14.4349 7.85669 14.8145 7.85669C15.1941 7.85669 15.5168 7.98955 15.7825 8.25526C16.0482 8.51805 16.181 8.8407 16.181 9.22321C16.181 9.46849 16.1212 9.69624 16.0015 9.90647C15.8817 10.1138 15.7153 10.2788 15.5022 10.4014C15.289 10.524 15.0598 10.5854 14.8145 10.5854C14.4349 10.5854 14.1123 10.454 13.8466 10.1912C13.5838 9.92837 13.4524 9.60572 13.4524 9.22321ZM13.9561 9.22321C13.9561 9.46265 14.0407 9.66558 14.2101 9.83202C14.3824 9.99845 14.5868 10.0817 14.8233 10.0817C15.0569 10.0817 15.2569 9.99991 15.4233 9.8364C15.5927 9.66996 15.6774 9.46557 15.6774 9.22321C15.6774 8.97794 15.5941 8.77354 15.4277 8.61003C15.2642 8.44359 15.0627 8.36038 14.8233 8.36038C14.5809 8.36038 14.3751 8.44359 14.2057 8.61003C14.0393 8.77646 13.9561 8.98086 13.9561 9.22321Z" fill="white"/>
</svg>
