<svg width="29" height="29" viewBox="0 0 29 29" fill="none" xmlns="http://www.w3.org/2000/svg">
<path d="M0.682343 11.198L2.91124 10.7135C3.10506 10.1201 3.34512 9.54129 3.62854 8.98373L2.39462 7.06437C2.17425 6.72143 2.2227 6.27118 2.51077 5.98311L5.98311 2.51077C6.27118 2.2227 6.72143 2.17425 7.06437 2.39462L8.98373 3.62854C9.54129 3.34512 10.1201 3.10506 10.7135 2.91124L11.198 0.682343C11.2845 0.284088 11.6372 0 12.0448 0H16.9552C17.3628 0 17.7155 0.284088 17.802 0.682343L18.2865 2.91124C18.8799 3.10506 19.4587 3.34512 20.0163 3.62854L21.9356 2.39462C22.2786 2.17425 22.7288 2.2227 23.0169 2.51077L26.4892 5.98311C26.7773 6.27118 26.8258 6.72143 26.6054 7.06437L25.3715 8.98373C25.6549 9.54129 25.8949 10.1201 26.0888 10.7135L28.3177 11.198C28.7159 11.2848 29 11.6372 29 12.0448V16.9552C29 17.3628 28.7159 17.7152 28.3177 17.802L26.0888 18.2865C25.8949 18.8799 25.6549 19.4587 25.3715 20.0163L26.6054 21.9356C26.8258 22.2786 26.7773 22.7288 26.4892 23.0169L23.0169 26.4892C22.7288 26.7773 22.2786 26.8258 21.9356 26.6054L20.0163 25.3715C19.4587 25.6549 18.8799 25.8949 18.2865 26.0888L17.802 28.3177C17.7155 28.7159 17.3628 29 16.9552 29H12.0448C11.6372 29 11.2845 28.7159 11.198 28.3177L10.7135 26.0888C10.1201 25.8949 9.54129 25.6549 8.98373 25.3715L7.06437 26.6054C6.72143 26.8258 6.27118 26.7775 5.98311 26.4892L2.51077 23.0169C2.2227 22.7288 2.17425 22.2786 2.39462 21.9356L3.62854 20.0163C3.34512 19.4587 3.10506 18.8799 2.91124 18.2865L0.682343 17.802C0.284088 17.7152 0 17.3628 0 16.9552V12.0448C0 11.6372 0.284088 11.2848 0.682343 11.198ZM1.73307 16.2567L3.77678 16.701C4.09074 16.7694 4.34119 17.0057 4.42748 17.315C4.65205 18.1206 4.97508 18.8996 5.3875 19.6304C5.54547 19.9103 5.53574 20.2546 5.36183 20.5249L4.23013 22.2852L6.71457 24.7699L8.47507 23.6382C8.74545 23.4643 9.08971 23.4545 9.36938 23.6125C10.1004 24.0249 10.8794 24.3479 11.685 24.5725C11.9943 24.6588 12.2306 24.9093 12.299 25.2232L12.7433 27.2669H16.2567L16.701 25.2232C16.7694 24.9093 17.0057 24.6588 17.315 24.5725C18.1206 24.3479 18.8996 24.0249 19.6304 23.6125C19.9103 23.4545 20.2546 23.4645 20.5249 23.6382L22.2852 24.7699L24.7697 22.2852L23.6382 20.5249C23.4643 20.2546 23.4543 19.9103 23.6123 19.6304C24.0247 18.8996 24.3477 18.1206 24.5725 17.315C24.6588 17.0057 24.909 16.7694 25.223 16.701L27.2669 16.2567V12.7433L25.2232 12.299C24.9093 12.2306 24.6588 11.9943 24.5725 11.685C24.3479 10.8794 24.0249 10.1004 23.6125 9.3696C23.4545 9.08971 23.4643 8.74545 23.6382 8.47507L24.7699 6.71479L22.2854 4.23013L20.5249 5.36183C20.2546 5.53574 19.9103 5.54547 19.6306 5.3875C18.8996 4.97508 18.1206 4.65205 17.315 4.42748C17.0057 4.34119 16.7694 4.09074 16.701 3.77678L16.2567 1.73307H12.7433L12.299 3.77678C12.2306 4.09074 11.9943 4.34119 11.685 4.42748C10.8794 4.65205 10.1004 4.97508 9.3696 5.3875C9.08971 5.54547 8.74545 5.53551 8.47507 5.36183L6.71479 4.23013L4.23035 6.71479L5.36183 8.47507C5.53574 8.74545 5.54569 9.08971 5.38772 9.3696C4.97508 10.1004 4.65228 10.8794 4.42748 11.685C4.34119 11.9943 4.09096 12.2306 3.777 12.299L1.73307 12.7433V16.2567Z" fill="white"/>
<path d="M0.682343 11.198L2.91124 10.7135C3.10506 10.1201 3.34512 9.54129 3.62854 8.98373L2.39462 7.06437C2.17425 6.72143 2.2227 6.27118 2.51077 5.98311L5.98311 2.51077C6.27118 2.2227 6.72143 2.17425 7.06437 2.39462L8.98373 3.62854C9.54129 3.34512 10.1201 3.10506 10.7135 2.91124L11.198 0.682343C11.2845 0.284088 11.6372 0 12.0448 0H16.9552C17.3628 0 17.7155 0.284088 17.802 0.682343L18.2865 2.91124C18.8799 3.10506 19.4587 3.34512 20.0163 3.62854L21.9356 2.39462C22.2786 2.17425 22.7288 2.2227 23.0169 2.51077L26.4892 5.98311C26.7773 6.27118 26.8258 6.72143 26.6054 7.06437L25.3715 8.98373C25.6549 9.54129 25.8949 10.1201 26.0888 10.7135L28.3177 11.198C28.7159 11.2848 29 11.6372 29 12.0448V16.9552C29 17.3628 28.7159 17.7152 28.3177 17.802L26.0888 18.2865C25.8949 18.8799 25.6549 19.4587 25.3715 20.0163L26.6054 21.9356C26.8258 22.2786 26.7773 22.7288 26.4892 23.0169L23.0169 26.4892C22.7288 26.7773 22.2786 26.8258 21.9356 26.6054L20.0163 25.3715C19.4587 25.6549 18.8799 25.8949 18.2865 26.0888L17.802 28.3177C17.7155 28.7159 17.3628 29 16.9552 29H12.0448C11.6372 29 11.2845 28.7159 11.198 28.3177L10.7135 26.0888C10.1201 25.8949 9.54129 25.6549 8.98373 25.3715L7.06437 26.6054C6.72143 26.8258 6.27118 26.7775 5.98311 26.4892L2.51077 23.0169C2.2227 22.7288 2.17425 22.2786 2.39462 21.9356L3.62854 20.0163C3.34512 19.4587 3.10506 18.8799 2.91124 18.2865L0.682343 17.802C0.284088 17.7152 0 17.3628 0 16.9552V12.0448C0 11.6372 0.284088 11.2848 0.682343 11.198Z" fill="white"/>
<path d="M9.44922 12.4482C9.44922 12.1488 9.52409 11.8688 9.67383 11.6084C9.82357 11.348 10.0286 11.1413 10.2891 10.9883C10.5495 10.8353 10.8327 10.7588 11.1387 10.7588C11.4382 10.7588 11.7181 10.8337 11.9785 10.9834C12.2422 11.1331 12.4489 11.3398 12.5986 11.6035C12.7516 11.8672 12.8281 12.1488 12.8281 12.4482C12.8281 12.751 12.7516 13.0342 12.5986 13.2979C12.4489 13.5583 12.2438 13.7617 11.9834 13.9082C11.723 14.0547 11.4414 14.1279 11.1387 14.1279C10.6667 14.1279 10.2663 13.9668 9.9375 13.6445C9.61198 13.319 9.44922 12.9202 9.44922 12.4482ZM10.3818 12.4482C10.3818 12.6566 10.4535 12.834 10.5967 12.9805C10.7432 13.127 10.9238 13.2002 11.1387 13.2002C11.3535 13.2002 11.5342 13.1253 11.6807 12.9756C11.8271 12.8258 11.9004 12.6501 11.9004 12.4482C11.9004 12.2432 11.8255 12.0641 11.6758 11.9111C11.5293 11.7581 11.3503 11.6816 11.1387 11.6816C10.9303 11.6816 10.7513 11.7565 10.6016 11.9062C10.4551 12.056 10.3818 12.2367 10.3818 12.4482ZM17.2178 12.0186C16.6481 12.0186 16.207 12.2334 15.8945 12.6631C15.582 13.0895 15.4258 13.6852 15.4258 14.4502C15.4258 16.042 16.0231 16.8379 17.2178 16.8379C17.7191 16.8379 18.3262 16.7126 19.0391 16.4619V17.7314C18.4531 17.9756 17.7988 18.0977 17.0762 18.0977C16.0378 18.0977 15.2435 17.7835 14.6934 17.1553C14.1432 16.5238 13.8682 15.6188 13.8682 14.4404C13.8682 13.6982 14.0033 13.0488 14.2734 12.4922C14.5436 11.9323 14.931 11.5042 15.4355 11.208C15.9434 10.9085 16.5374 10.7588 17.2178 10.7588C17.9111 10.7588 18.6077 10.9264 19.3076 11.2617L18.8193 12.4922C18.5524 12.3652 18.2839 12.2546 18.0137 12.1602C17.7435 12.0658 17.4782 12.0186 17.2178 12.0186Z" fill="#353A3E"/>
</svg>
