<svg width="56" height="56" viewBox="0 0 56 56" fill="none" xmlns="http://www.w3.org/2000/svg">
<circle cx="28" cy="28" r="28" fill="#F2F2F2"/>
<path d="M9.55664 36.8405H10.4314L18.6265 22.6143C19.0932 21.8043 20.0941 21.5007 20.9053 21.9232L21.9407 22.4624L26.6736 17.5328C27.0227 17.1693 27.5064 16.9756 27.9986 17.0025C28.4916 17.029 28.9528 17.273 29.2641 17.6721L35.8501 26.1149L35.8608 26.1101C36.5904 25.7844 37.4402 26.0128 37.9274 26.6654L45.5257 36.8405H46.4434C46.7508 36.8405 47 37.1 47 37.4202C47 37.7404 46.7508 38 46.4434 38H9.55664C9.24923 38 9 37.7404 9 37.4202C9 37.1 9.24923 36.8405 9.55664 36.8405ZM28.4 18.4032C28.2854 18.2564 28.1225 18.1702 27.9411 18.1605C27.7603 18.1507 27.5891 18.219 27.4607 18.3527L22.6774 23.3348L22.9413 24.2748C23.0276 24.5821 22.8584 24.9041 22.5633 24.994C22.5112 25.0099 22.4585 25.0175 22.4068 25.0175C22.1659 25.0175 21.9438 24.8533 21.8728 24.6004L21.5845 23.5734L20.4073 22.9604C20.1133 22.8073 19.7503 22.9173 19.5811 23.211L11.7297 36.8405H15.298L23.2801 29.6111L22.5563 27.0338C22.47 26.7264 22.6392 26.4045 22.9343 26.3146C23.2294 26.2247 23.5385 26.4009 23.6248 26.7083L24.2048 28.7736L28.0604 25.2816C28.7106 24.6927 29.6628 24.6825 30.3245 25.2569L32.854 27.4523L34.7863 26.5898L28.4 18.4032ZM28.2405 36.8405L32.0739 28.2846L29.6117 26.1476C29.3718 25.9392 29.0265 25.943 28.7908 26.1565L16.9945 36.8405H28.2405ZM37.0487 27.3772C36.872 27.1405 36.5637 27.0577 36.2994 27.1759L33.1742 28.5709L29.469 36.8405H39.5479L37.0326 32.1247C36.8833 31.8448 37.2489 31.312 37.2489 31.3364C37.2489 31.3364 37.8565 31.2817 38.0058 31.5617L40.8215 36.8405H44.1153L37.0487 27.3772Z" fill="#4D9335"/>
</svg>
