<svg width="40" height="32" viewBox="0 0 40 32" fill="none" xmlns="http://www.w3.org/2000/svg">
<g clip-path="url(#clip0)">
<path d="M10.6687 16.525C11.075 15.5063 11.725 14.6375 12.6125 13.9625C13.3875 13.3688 14.3187 12.9375 15.4 12.6625C15.5687 11.6688 16.0625 10.7125 16.8625 9.88752C17.7125 9.00627 18.8312 8.38752 20.0312 8.08127C20.075 5.76253 19.2187 3.44377 17.45 1.68127C16.7687 0.993774 15.9812 0.437524 15.1625 0.0250244C16.8125 3.32502 16.2625 7.43753 13.5062 10.1938C10.7562 12.9438 6.63749 13.4938 3.33749 11.8438C3.75624 12.6688 4.30624 13.4438 4.98749 14.125C6.54999 15.6875 8.55625 16.5313 10.5937 16.6875C10.625 16.6375 10.6437 16.5813 10.6687 16.525Z" fill="#E2C137"/>
<path d="M12.4937 22.6938C10.2625 19.7188 10.6187 14.4376 16.35 13.4251C16.2438 9.15633 24.1313 5.93133 26.525 12.7813C29.2938 11.4751 32.4375 13.2126 32.5438 16.1876C35.125 16.9438 36.9313 20.4938 34.4938 23.1063C33.6438 24.0188 32.4375 24.5126 31.1938 24.5126C26.8375 24.5376 19.3563 24.5188 16.1625 24.5063C14.725 24.5063 13.3562 23.8438 12.4937 22.6938Z" fill="#B2B2B2"/>
<path d="M26.4687 30.5063L25.9312 30.1812L26.4062 30.0125C26.525 29.975 26.5812 29.8438 26.5375 29.725C26.5062 29.6313 26.4187 29.575 26.325 29.575C26.3 29.575 26.275 29.5812 26.25 29.5875L25.4312 29.8813L24.825 29.5187L25.4687 29.1375L26.2562 29.4125C26.2812 29.425 26.3062 29.425 26.3312 29.425C26.425 29.425 26.5062 29.375 26.5437 29.275C26.5812 29.1562 26.525 29.0375 26.4125 28.9875L25.9687 28.8312L26.4687 28.5312C26.575 28.4688 26.6062 28.3375 26.5437 28.225C26.4875 28.1125 26.35 28.0875 26.2375 28.15L25.7562 28.4438L25.8437 28.05C25.8687 27.9312 25.7937 27.8125 25.6687 27.7875C25.5437 27.7563 25.4312 27.8375 25.4062 27.9625L25.2312 28.7625L24.6187 29.125V28.3937L25.2437 27.8312C25.3375 27.7437 25.3437 27.6125 25.2562 27.5125C25.1687 27.4188 25.0375 27.4125 24.9375 27.5L24.6125 27.7938V27.25C24.6125 27.125 24.5125 27.0312 24.3937 27.0312C24.2687 27.0312 24.175 27.1313 24.175 27.25V27.775L23.8437 27.4937C23.75 27.4187 23.6062 27.425 23.5312 27.5187C23.4562 27.6125 23.4625 27.7562 23.5562 27.8312L24.175 28.3563V29.125L23.5437 28.7437L23.3687 27.9562C23.3437 27.8375 23.225 27.7625 23.1062 27.7812C22.9875 27.8062 22.9125 27.925 22.9312 28.0438L23.0062 28.425L22.5437 28.15C22.4375 28.0875 22.3062 28.1188 22.2375 28.225C22.175 28.3375 22.2062 28.4625 22.3125 28.5312L22.8062 28.8312L22.3562 28.9875C22.2375 29.025 22.1812 29.1562 22.225 29.275C22.2562 29.3687 22.3437 29.425 22.4375 29.425C22.4625 29.425 22.4875 29.4188 22.5125 29.4125L23.3062 29.1313L23.9562 29.5187L23.3437 29.8813L22.5125 29.5812C22.4875 29.5687 22.4625 29.5688 22.4375 29.5688C22.3437 29.5688 22.2625 29.6188 22.225 29.7188C22.1875 29.8375 22.2437 29.9563 22.3562 30.0063L22.8437 30.1812L22.3125 30.5C22.2062 30.5625 22.175 30.6937 22.2375 30.8062C22.275 30.875 22.3562 30.9188 22.4312 30.9188C22.4687 30.9188 22.5062 30.9063 22.5437 30.8875L22.9937 30.6125L22.9187 30.95C22.8937 31.0688 22.9687 31.1875 23.0937 31.2125C23.2125 31.2375 23.3312 31.1625 23.3562 31.0375L23.5125 30.2875L24.1562 29.9062V30.6437L23.5375 31.1688C23.4437 31.2438 23.4312 31.3875 23.5125 31.4813C23.5875 31.575 23.7312 31.5875 23.825 31.5063L24.1562 31.225V31.7875C24.1562 31.9125 24.2562 32.0062 24.375 32.0062C24.4937 32.0062 24.5937 31.9063 24.5937 31.7875V31.1875L24.9187 31.4813C25.0125 31.5688 25.15 31.5563 25.2375 31.4688C25.325 31.3812 25.3125 31.2375 25.225 31.15L24.6 30.5875V29.9L25.2187 30.275L25.3812 31.0375C25.4062 31.1563 25.525 31.2312 25.6437 31.2125C25.7625 31.1875 25.8375 31.0688 25.8187 30.95L25.7437 30.5938L26.2187 30.8813C26.25 30.9 26.2937 30.9125 26.3312 30.9125C26.4062 30.9125 26.4812 30.875 26.525 30.8C26.6062 30.7 26.575 30.5625 26.4687 30.5063Z" fill="#0075FF"/>
<path d="M19.025 28.6564L18.4875 28.3314L18.9625 28.1626C19.0813 28.1251 19.1375 27.9939 19.0938 27.8751C19.0625 27.7814 18.975 27.7251 18.8813 27.7251C18.8563 27.7251 18.8313 27.7314 18.8063 27.7376L17.9875 28.0314L17.3813 27.6689L18.025 27.2876L18.8125 27.5626C18.8375 27.5751 18.8625 27.5751 18.8875 27.5751C18.9813 27.5751 19.0625 27.5251 19.1 27.4251C19.1375 27.3064 19.0813 27.1876 18.9688 27.1376L18.525 26.9814L19.025 26.6814C19.1313 26.6189 19.1625 26.4876 19.1 26.3751C19.0438 26.2626 18.9063 26.2376 18.7938 26.3001L18.3125 26.5939L18.4 26.2001C18.425 26.0814 18.35 25.9626 18.225 25.9376C18.1 25.9126 17.9875 25.9876 17.9625 26.1126L17.7875 26.9126L17.175 27.2751V26.5439L17.8 25.9814C17.8938 25.8939 17.9 25.7626 17.8125 25.6626C17.725 25.5689 17.5938 25.5626 17.4938 25.6501L17.1688 25.9439V25.4001C17.1688 25.2751 17.0688 25.1814 16.95 25.1814C16.825 25.1814 16.7313 25.2814 16.7313 25.4001V25.9251L16.4 25.6439C16.3063 25.5689 16.1625 25.5751 16.0875 25.6689C16.0125 25.7626 16.0188 25.9064 16.1125 25.9814L16.7313 26.5064V27.2751L16.1 26.8939L15.925 26.1064C15.9 25.9876 15.7813 25.9126 15.6625 25.9314C15.5438 25.9501 15.4688 26.0751 15.4875 26.1939L15.5625 26.5751L15.1 26.3001C14.9938 26.2376 14.8625 26.2689 14.7938 26.3751C14.7313 26.4876 14.7625 26.6126 14.8688 26.6814L15.3625 26.9814L14.9125 27.1376C14.7938 27.1751 14.7375 27.3064 14.7813 27.4251C14.8125 27.5189 14.9 27.5751 14.9938 27.5751C15.0188 27.5751 15.0438 27.5689 15.0688 27.5626L15.8625 27.2814L16.5125 27.6689L15.9 28.0314L15.0688 27.7314C15.0438 27.7189 15.0188 27.7189 14.9938 27.7189C14.9 27.7189 14.8188 27.7689 14.7813 27.8689C14.7438 27.9876 14.8 28.1064 14.9125 28.1564L15.4 28.3314L14.8688 28.6501C14.7625 28.7126 14.7313 28.8439 14.7938 28.9564C14.8313 29.0251 14.9125 29.0689 14.9875 29.0689C15.025 29.0689 15.0625 29.0564 15.1 29.0376L15.55 28.7626L15.475 29.1001C15.45 29.2189 15.525 29.3376 15.65 29.3626C15.7688 29.3876 15.8875 29.3126 15.9125 29.1876L16.0688 28.4376L16.7125 28.0564V28.7939L16.0938 29.3189C16 29.3939 15.9875 29.5376 16.0688 29.6314C16.1438 29.7251 16.2875 29.7376 16.3813 29.6564L16.7125 29.3751V29.9376C16.7125 30.0626 16.8125 30.1564 16.9313 30.1564C17.0563 30.1564 17.15 30.0564 17.15 29.9376V29.3439L17.475 29.6376C17.5688 29.7251 17.7063 29.7126 17.7938 29.6251C17.8813 29.5314 17.8688 29.3939 17.7813 29.3064L17.1563 28.7439V28.0564L17.775 28.4314L17.9375 29.1939C17.9625 29.3126 18.0813 29.3876 18.2 29.3689C18.3188 29.3439 18.3938 29.2251 18.375 29.1064L18.3 28.7501L18.775 29.0376C18.8063 29.0564 18.85 29.0689 18.8875 29.0689C18.9625 29.0689 19.0375 29.0314 19.0813 28.9564C19.1625 28.8501 19.1313 28.7126 19.025 28.6564Z" fill="#0075FF"/>
<path d="M30.5875 27.3314L30.25 27.1314L30.55 27.0251C30.625 27.0001 30.6625 26.9189 30.6375 26.8501C30.6187 26.8001 30.5625 26.7564 30.5062 26.7564C30.4937 26.7564 30.475 26.7564 30.4625 26.7689L29.9562 26.9439L29.5812 26.7251L29.9812 26.4876L30.4687 26.6626C30.4812 26.6689 30.5 26.6751 30.5125 26.6751C30.5625 26.6751 30.625 26.6439 30.6437 26.5814C30.6687 26.5064 30.6312 26.4251 30.5562 26.4064L30.2812 26.3126L30.5937 26.1251C30.6562 26.0876 30.6812 26.0001 30.6437 25.9314C30.6062 25.8689 30.5187 25.8439 30.45 25.8814L30.15 26.0626L30.2 25.8126C30.2125 25.7376 30.1687 25.6626 30.0875 25.6501C30.0125 25.6376 29.9375 25.6814 29.925 25.7626L29.8125 26.2626L29.4312 26.4876V26.0376L29.8125 25.6876C29.8625 25.6376 29.8687 25.5501 29.825 25.4939C29.775 25.4439 29.6875 25.4376 29.6312 25.4814L29.4375 25.6626V25.3189C29.4375 25.2439 29.3812 25.1814 29.3 25.1814C29.225 25.1814 29.1625 25.2376 29.1625 25.3189V25.6439L28.9625 25.4689C28.9062 25.4189 28.8125 25.4251 28.7687 25.4814C28.725 25.5376 28.725 25.6314 28.7812 25.6751L29.1625 26.0001V26.4814L28.775 26.2439L28.6687 25.7564C28.6562 25.6814 28.575 25.6314 28.5062 25.6439C28.4312 25.6564 28.3812 25.7376 28.3937 25.8064L28.4437 26.0439L28.1562 25.8689C28.0937 25.8314 28 25.8501 27.9625 25.9189C27.925 25.9876 27.9437 26.0751 28.0125 26.1126L28.3187 26.2939L28.0375 26.3939C27.9625 26.4189 27.925 26.5001 27.95 26.5689C27.9687 26.6189 28.025 26.6626 28.0812 26.6626C28.0937 26.6626 28.1125 26.6626 28.125 26.6501L28.6187 26.4751L29.0187 26.7126L28.6375 26.9376L28.125 26.7564C28.1125 26.7501 28.0937 26.7439 28.0812 26.7439C28.0312 26.7439 27.9687 26.7751 27.95 26.8376C27.925 26.9126 27.9625 26.9939 28.0375 27.0126L28.3375 27.1251L28.0062 27.3189C27.9437 27.3564 27.9187 27.4439 27.9562 27.5126C27.9812 27.5564 28.0312 27.5814 28.075 27.5814C28.1 27.5814 28.125 27.5751 28.1437 27.5626L28.425 27.3939L28.3812 27.6064C28.3687 27.6814 28.4125 27.7564 28.4937 27.7689C28.5687 27.7814 28.6437 27.7376 28.6562 27.6564L28.7562 27.1939L29.1562 26.9564V27.4126L28.775 27.7376C28.7187 27.7876 28.7125 27.8689 28.7625 27.9314C28.8125 27.9876 28.8937 27.9939 28.9562 27.9439L29.1562 27.7689V28.1189C29.1562 28.1939 29.2125 28.2564 29.2937 28.2564C29.3687 28.2564 29.4312 28.2001 29.4312 28.1189V27.7501L29.6312 27.9314C29.6812 27.9814 29.775 27.9751 29.825 27.9189C29.875 27.8689 29.8687 27.7751 29.8125 27.7251L29.4312 27.3751V26.9501L29.8125 27.1814L29.9125 27.6501C29.925 27.7251 30.0062 27.7751 30.075 27.7626C30.15 27.7501 30.2 27.6689 30.1875 27.6001L30.1437 27.3814L30.4375 27.5564C30.4625 27.5689 30.4812 27.5751 30.5062 27.5751C30.55 27.5751 30.6 27.5501 30.625 27.5064C30.6812 27.4626 30.6625 27.3751 30.5875 27.3314Z" fill="#0075FF"/>
</g>
<defs>
<clipPath id="clip0">
<rect width="40" height="32" fill="white"/>
</clipPath>
</defs>
</svg>
