<svg width="70" height="70" viewBox="0 0 70 70" fill="none" xmlns="http://www.w3.org/2000/svg">
<path d="M69.293 11.5616C69.7218 11.3572 69.9997 10.8886 69.9997 10.3703C69.9997 9.85187 69.7218 9.38333 69.293 9.17895L61.1263 5.29006C60.7659 5.11838 60.3519 5.15939 60.0245 5.39923C59.6971 5.63906 59.5 6.04562 59.5 6.48136V17.2406C56.0421 16.314 52.5352 15.6299 49 15.1925V11.2245L56.4597 7.67265C56.8884 7.46828 57.1664 6.99974 57.1664 6.48136C57.1664 5.96297 56.8884 5.49443 56.4597 5.29006L48.293 1.40116C47.9326 1.22948 47.5186 1.27049 47.1912 1.51033C46.8638 1.75016 46.6667 2.15672 46.6667 2.59246V14.9073C43.071 14.5184 39.4637 14.3032 36.1667 14.2591V9.92821L43.6263 6.37636C44.0551 6.17198 44.333 5.70344 44.333 5.18506C44.333 4.66667 44.0551 4.19813 43.6263 3.99376L35.4597 0.104862C35.0992 -0.0668187 34.6853 -0.0258039 34.3579 0.214029C34.0304 0.453862 33.8334 0.860424 33.8333 1.29616V14.2669C30.5363 14.3084 26.929 14.5262 23.3333 14.9151V11.2245L30.793 7.67265C31.2218 7.46828 31.4997 6.99974 31.4997 6.48136C31.4997 5.96297 31.2218 5.49443 30.793 5.29006L22.6263 1.40116C22.2659 1.22948 21.8519 1.27049 21.5245 1.51033C21.1971 1.75016 21 2.15672 21 2.59246V15.1925C17.4648 15.6299 13.9579 16.314 10.5 17.2406V15.1134L17.9597 11.5616C18.3884 11.3572 18.6664 10.8886 18.6664 10.3703C18.6664 9.85187 18.3884 9.38333 17.9597 9.17895L9.793 5.29006C9.43256 5.11838 9.0186 5.15939 8.69119 5.39923C8.36378 5.63906 8.16671 6.04562 8.16667 6.48136V17.9575C3.30517 19.6051 0 21.8179 0 24.6295C0.00477366 24.927 0.0463867 25.2223 0.123667 25.5071L0.131833 25.5771C0.137617 25.652 0.149329 25.7262 0.166833 25.7988L6.7725 53.9985C2.23883 55.5139 0 57.3585 0 59.6296C0 65.8337 18.0973 70 35 70C51.9027 70 70 65.8337 70 59.6296C70 57.3585 67.7612 55.5139 63.2333 53.9985L69.8332 25.7962C69.8484 25.7293 69.8593 25.6613 69.8658 25.5927L69.8763 25.5045C69.9534 25.2205 69.995 24.9261 70 24.6295C70 21.8179 66.6948 19.6051 61.8333 17.9575V15.1134L69.293 11.5616ZM61.8333 8.44784L65.8712 10.3703L61.8333 12.2927V8.44784ZM49 4.55894L53.0378 6.48136L49 8.40377V4.55894ZM36.1667 3.26265L40.2045 5.18506L36.1667 7.10747V3.26265ZM23.3333 4.55894L27.3712 6.48136L23.3333 8.40377V4.55894ZM10.5 8.44784L14.5378 10.3703L10.5 12.2927V8.44784ZM12.3667 26.6336L16.0347 29.186C15.1105 29.417 14.2005 29.7136 13.3105 30.074C11.5528 29.6654 9.81461 29.1592 8.1025 28.5573C9.46241 27.7593 10.891 27.1148 12.3667 26.6336ZM20.867 24.5349L23.0837 27.9208C21.7852 28.079 20.5485 28.2605 19.3993 28.464L15.4327 25.7029C17.094 25.2582 18.9292 24.8681 20.8635 24.5349H20.867ZM54.5837 25.7016L50.617 28.4627C49.4678 28.2592 48.2312 28.0738 46.9327 27.9195L49.1493 24.5336C51.0708 24.8681 52.906 25.2582 54.579 25.7029L54.5837 25.7016ZM61.9057 28.5534C60.1936 29.1553 58.4554 29.6615 56.6977 30.0701C55.8076 29.7097 54.8977 29.4131 53.9735 29.1821L57.6333 26.6336C59.1102 27.1145 60.54 27.759 61.901 28.5573L61.9057 28.5534ZM35 29.8147C40.3851 29.7874 45.7635 30.2435 51.0825 31.1784C45.7545 32.0094 40.3802 32.4201 35 32.4073C29.6198 32.4201 24.2455 32.0094 18.9175 31.1784C24.2365 30.2435 29.6149 29.7874 35 29.8147ZM44.226 27.637C42.7292 27.5008 41.1763 27.3958 39.592 27.3271L40.2022 23.5018C42.357 23.6314 44.4827 23.844 46.5208 24.1253L44.226 27.637ZM37.2342 27.2481C36.4922 27.2338 35.7467 27.2221 35 27.2221C34.2533 27.2221 33.5078 27.2338 32.7658 27.2494L32.1487 23.389C33.0983 23.3553 34.0492 23.3332 35 23.3332C35.9508 23.3332 36.9017 23.3553 37.8513 23.389L37.2342 27.2481ZM29.7978 23.5018L30.408 27.3271C28.8237 27.3958 27.2708 27.5008 25.774 27.637L23.4792 24.1253C25.5173 23.844 27.643 23.6366 29.7978 23.5018ZM35 34.9999C45.654 34.9999 60.1592 33.1203 66.6353 29.1575L60.6853 54.5429C60.6554 54.6584 60.6401 54.778 60.6398 54.8981C60.64 54.9706 60.6454 55.0431 60.6562 55.1146C60.3563 56.3422 55.622 58.59 47.8298 59.9005V55.7407C47.8234 49.3003 43.1262 44.0812 37.3298 44.074H33.8333C28.037 44.0812 23.3398 49.3003 23.3333 55.7407V60.0807C14.8435 58.8039 9.6425 56.3889 9.34033 55.1016C9.35113 55.0301 9.35659 54.9577 9.35667 54.8852C9.35671 54.7431 9.33542 54.602 9.29367 54.4678L3.36467 29.1575C9.84083 33.1203 24.346 34.9999 35 34.9999ZM40.8333 60.7198C38.9877 60.8494 37.0452 60.9259 35 60.9259C33.3783 60.9259 31.8302 60.8728 30.3333 60.7885V55.7407C30.3333 53.5929 31.9003 51.8518 33.8333 51.8518H37.3333C39.2663 51.8518 40.8333 53.5929 40.8333 55.7407V60.7198ZM37.3333 49.2592H33.8333C30.6133 49.2635 28.0039 52.1629 28 55.7407V60.6239C27.2012 60.5565 26.4234 60.4787 25.6667 60.3905V55.7407C25.6718 50.7316 29.3251 46.6723 33.8333 46.6666H37.3333C41.8415 46.6723 45.4949 50.7316 45.5 55.7407V60.2531C44.7463 60.3529 43.967 60.4424 43.1667 60.5228V55.7407C43.1628 52.1629 40.5534 49.2635 37.3333 49.2592ZM67.6667 59.6296C67.6667 62.0057 55.3257 67.4074 35 67.4074C14.6743 67.4074 2.33333 62.0057 2.33333 59.6296C2.33333 59.1033 3.42883 57.8148 7.385 56.49C9.758 60.7483 22.7687 63.5185 35 63.5185C47.2313 63.5185 60.242 60.7483 62.615 56.49C66.5712 57.8148 67.6667 59.1033 67.6667 59.6296ZM67.6445 24.4753L67.5768 25.0418C67.291 25.7962 66.2515 26.6284 64.5668 27.4529C62.5234 25.8466 60.2323 24.6701 57.8072 23.9814C57.7722 23.9697 57.7407 23.9555 57.7068 23.9477C54.8193 23.0295 51.8776 22.3365 48.9032 21.8736C48.874 21.8645 48.846 21.8645 48.818 21.8581C44.2414 21.1253 39.6239 20.7519 35 20.7406C30.3756 20.7521 25.7578 21.1264 21.1808 21.8606C21.1528 21.8606 21.1248 21.8606 21.098 21.8749C18.1219 22.3369 15.1786 23.03 12.2897 23.949C12.2592 23.957 12.2292 23.9669 12.1998 23.9788C9.77223 24.6679 7.47881 25.8453 5.43317 27.4529C3.7485 26.6284 2.709 25.7962 2.42317 25.0418L2.3555 24.4753C2.695 22.1847 10.535 19.0555 22.1422 17.6295H22.1667C22.1947 17.6295 22.218 17.614 22.246 17.6114C30.7242 16.5985 39.2758 16.5985 47.754 17.6114C47.782 17.6114 47.8053 17.6295 47.8333 17.6295H47.8578C59.465 19.0555 67.305 22.1847 67.6445 24.4753Z" fill="#333333" fill-opacity="0.5"/>
</svg>
