<svg width="40" height="32" viewBox="0 0 40 32" fill="none" xmlns="http://www.w3.org/2000/svg">
<path d="M19.75 17.8624L17.1625 25.7812H19.5438L18.2313 31.9999L23.35 23.7124H20.5313L23.35 17.8624H19.75Z" fill="#FFCB27"/>
<path d="M6.4125 17.5625C3.59375 13.7937 4.04375 7.11246 11.2875 5.83121C11.1562 0.437465 21.1313 -3.64378 24.1625 5.01871C27.6688 3.36872 31.6438 5.56247 31.7813 9.33121C35.05 10.2875 37.3313 14.7812 34.25 18.0812C33.175 19.2312 31.65 19.8562 30.075 19.8625C24.5625 19.8937 15.0937 19.8687 11.0562 19.8562C9.23125 19.85 7.50625 19.0125 6.4125 17.5625Z" fill="#B2B2B2"/>
<path d="M12.7687 21.0499C13.6937 22.3187 14.9 23.8999 14.9 25.0749C14.9 26.2499 13.95 27.2062 12.7687 27.2062C11.5875 27.2062 10.6375 26.2562 10.6375 25.0749C10.6375 23.8999 11.875 22.3499 12.7687 21.0499Z" fill="#ACCEEA"/>
<path d="M27.7438 21.0499C28.6688 22.3187 29.875 23.8999 29.875 25.0749C29.875 26.2499 28.925 27.2062 27.7438 27.2062C26.5688 27.2062 25.6125 26.2562 25.6125 25.0749C25.6125 23.8999 26.85 22.3499 27.7438 21.0499Z" fill="#ACCEEA"/>
</svg>
