<svg width="24" height="25" viewBox="0 0 24 25" fill="none" xmlns="http://www.w3.org/2000/svg">
<path d="M17.756 23.6018C17.9221 23.048 18.0084 22.4695 18.0084 21.8893C18.0084 18.5954 15.3131 15.9155 12 15.9155C8.68692 15.9155 5.99156 18.5954 5.99156 21.8893C5.99156 22.4695 6.07786 23.048 6.24398 23.6018H0.699073C0.312985 23.6018 0 23.9148 0 24.3009C0 24.687 0.312986 24.9999 0.699073 24.9999H23.3009C23.687 24.9999 24 24.687 24 24.3009C24 23.9148 23.687 23.6018 23.3009 23.6018H17.756Z" fill="#FFCB27"/>
<path d="M12.7031 13.8168V12.4268C12.7031 12.0384 12.3883 11.7236 12 11.7236C11.6117 11.7236 11.2969 12.0384 11.2969 12.4268V13.8168C11.2969 14.2051 11.6117 14.5199 12 14.5199C12.3883 14.5199 12.7031 14.2051 12.7031 13.8168Z" fill="#FFCB27"/>
<path d="M16.1536 13.3452L15.452 14.5522C15.2571 14.8874 15.3717 15.3158 15.7079 15.509C16.0441 15.7022 16.4746 15.587 16.6695 15.2518L17.3712 14.0448C17.5661 13.7095 17.4515 13.2812 17.1153 13.088C16.7791 12.8948 16.3485 13.0099 16.1536 13.3452Z" fill="#FFCB27"/>
<path d="M19.8991 16.5544L18.6772 17.2545C18.3418 17.4467 18.227 17.8737 18.4209 18.2082C18.6148 18.5427 19.0439 18.658 19.3793 18.4658L20.6012 17.7658C20.9366 17.5735 21.0514 17.1466 20.8575 16.8121C20.6636 16.4776 20.2345 16.3622 19.8991 16.5544Z" fill="#FFCB27"/>
<path d="M21.5266 21.2013L20.1123 21.1994C19.7262 21.1989 19.4128 21.5115 19.4124 21.8976C19.412 22.2837 19.7246 22.5971 20.1107 22.5976L21.525 22.5994C21.9111 22.5999 22.2245 22.2873 22.2249 21.9012C22.2253 21.5151 21.9127 21.2018 21.5266 21.2013Z" fill="#FFCB27"/>
<path d="M8.50611 14.552L7.80465 13.345C7.60981 13.0098 7.17932 12.8946 6.84312 13.0878C6.50692 13.2809 6.39232 13.7093 6.58715 14.0445L7.28862 15.2514C7.48346 15.5867 7.91394 15.7018 8.25015 15.5087C8.58635 15.3155 8.70095 14.8872 8.50611 14.552Z" fill="#FFCB27"/>
<path d="M5.2804 17.2558L4.0585 16.5557C3.72305 16.3635 3.29395 16.4788 3.10007 16.8133C2.90619 17.1478 3.02096 17.5748 3.35641 17.767L4.57831 18.4671C4.91376 18.6593 5.34286 18.5439 5.53674 18.2095C5.73062 17.875 5.61585 17.448 5.2804 17.2558Z" fill="#FFCB27"/>
<path d="M3.84682 21.2001L2.43247 21.2018C2.04638 21.2023 1.73377 21.5156 1.73424 21.9017C1.7347 22.2878 2.04806 22.6004 2.43415 22.5999L3.8485 22.5982C4.23459 22.5978 4.5472 22.2844 4.54674 21.8983C4.54627 21.5122 4.23291 21.1996 3.84682 21.2001Z" fill="#FFCB27"/>
<path d="M12 1V8.65965M12 8.65965L14 6.10643M12 8.65965L10 6.10643" stroke="#FFCB27" stroke-linecap="round" stroke-linejoin="round"/>
</svg>
