<svg width="26" height="20" viewBox="0 0 26 20" fill="none" xmlns="http://www.w3.org/2000/svg">
<path d="M6.77188 18.4769C6.21511 17.8179 5.85067 17.0183 5.71858 16.1658C5.58648 15.3133 5.69183 14.4409 6.02305 13.6444C6.35428 12.8478 6.89857 12.1579 7.59621 11.6503C8.29385 11.1427 9.11785 10.8371 9.9778 10.767C9.8917 7.22193 16.4523 4.53926 18.4451 10.2317C18.9519 9.96384 19.5179 9.82775 20.0912 9.83597C20.6644 9.84419 21.2263 9.99646 21.7252 10.2788C22.2242 10.5611 22.644 10.9644 22.9462 11.4515C23.2484 11.9386 23.4231 12.4939 23.4543 13.0662C24.0298 13.231 24.5537 13.5401 24.9762 13.9642C25.3986 14.3884 25.7056 14.9134 25.8681 15.4895C26.0306 16.0656 26.0431 16.6736 25.9045 17.2559C25.7659 17.8382 25.4807 18.3755 25.0761 18.8166C24.7217 19.1874 24.2958 19.4824 23.8242 19.6839C23.3525 19.8854 22.8449 19.9891 22.3319 19.9889C18.7096 20.0092 12.484 19.9889 9.82908 19.9889C9.23742 19.9895 8.65362 19.8534 8.12328 19.5911C7.59295 19.3288 7.13045 18.9475 6.77188 18.4769Z" fill="#B2B2B2"/>
<path d="M8.12751 4.38387C7.9276 4.38267 7.73614 4.30314 7.5942 4.16238C7.45226 4.02161 7.37115 3.83081 7.36829 3.63092V1.25934C7.36952 1.05836 7.44991 0.865968 7.59203 0.723853C7.73414 0.581738 7.92653 0.501354 8.12751 0.500122C8.32848 0.501354 8.52089 0.581738 8.66301 0.723853C8.80512 0.865968 8.88549 1.05836 8.88672 1.25934V3.63092C8.88467 3.83106 8.80383 4.02233 8.66172 4.16327C8.5196 4.30421 8.32766 4.38347 8.12751 4.38387Z" fill="#FFCB27"/>
<path d="M3.88375 8.62641C3.88252 8.82738 3.80214 9.01977 3.66002 9.16188C3.51791 9.304 3.32551 9.38439 3.12453 9.38563H0.759218C0.558241 9.38439 0.365846 9.304 0.223731 9.16188C0.0816161 9.01977 0.00123176 8.82738 0 8.62641H0C0.000413629 8.42518 0.0805353 8.23231 0.222827 8.09002C0.365118 7.94773 0.557988 7.8676 0.759218 7.86719H3.1308C3.33119 7.86843 3.52294 7.94902 3.66406 8.09131C3.80517 8.2336 3.88417 8.426 3.88375 8.62641Z" fill="#FFCB27"/>
<path d="M11.1268 5.63147C10.9855 5.48848 10.9063 5.29556 10.9063 5.09454C10.9063 4.89352 10.9855 4.7006 11.1268 4.55761L12.8018 2.88263C12.9448 2.74134 13.1377 2.66211 13.3387 2.66211C13.5397 2.66211 13.7327 2.74134 13.8757 2.88263C14.017 3.02562 14.0962 3.21855 14.0962 3.41957C14.0962 3.62059 14.017 3.81351 13.8757 3.9565L12.2007 5.63147C12.1304 5.70237 12.0468 5.75865 11.9546 5.79706C11.8625 5.83546 11.7636 5.85523 11.6638 5.85523C11.5639 5.85523 11.4651 5.83546 11.3729 5.79706C11.2808 5.75865 11.1971 5.70237 11.1268 5.63147Z" fill="#FFCB27"/>
<path d="M2.38099 14.3787C2.2397 14.2357 2.16046 14.0428 2.16046 13.8418C2.16046 13.6407 2.2397 13.4478 2.38099 13.3048L4.05596 11.6298C4.19896 11.4885 4.39187 11.4093 4.59289 11.4093C4.79392 11.4093 4.98684 11.4885 5.12983 11.6298C5.27112 11.7728 5.35036 11.9658 5.35036 12.1668C5.35036 12.3678 5.27112 12.5607 5.12983 12.7037L3.45485 14.3787C3.31186 14.52 3.11894 14.5992 2.91792 14.5992C2.7169 14.5992 2.52398 14.52 2.38099 14.3787Z" fill="#FFCB27"/>
<path d="M5.13452 5.63147C4.99153 5.77276 4.79861 5.852 4.59759 5.852C4.39657 5.852 4.20365 5.77276 4.06066 5.63147L2.38568 3.9565C2.24439 3.81351 2.16516 3.62059 2.16516 3.41957C2.16516 3.21855 2.24439 3.02562 2.38568 2.88263C2.52867 2.74134 2.7216 2.66211 2.92262 2.66211C3.12364 2.66211 3.31656 2.74134 3.45955 2.88263L5.13452 4.55761C5.27581 4.7006 5.35505 4.89352 5.35505 5.09454C5.35505 5.29556 5.27581 5.48848 5.13452 5.63147Z" fill="#FFCB27"/>
<path d="M6.38368 11.6551C6.54595 11.4923 6.71906 11.3406 6.90183 11.2011C7.595 10.6811 8.38712 10.3082 9.22958 10.1054C9.38545 9.22786 9.80926 8.42015 10.4428 7.79327C10.6965 7.53446 10.9755 7.30162 11.2756 7.09823C11.0372 6.60593 10.6867 6.17642 10.2522 5.84424C9.81771 5.51207 9.3113 5.2865 8.77374 5.18566C8.23617 5.08482 7.68243 5.11153 7.15707 5.26365C6.6317 5.41577 6.14936 5.68905 5.74884 6.06151C5.34832 6.43398 5.04078 6.89523 4.85097 7.40819C4.66116 7.92114 4.59437 8.47147 4.65597 9.01493C4.71756 9.5584 4.90583 10.0798 5.20563 10.5373C5.50543 10.9947 5.90839 11.3755 6.38212 11.6488L6.38368 11.6551Z" fill="#FFCB27"/>
</svg>
