<svg width="24" height="25" viewBox="0 0 24 25" fill="none" xmlns="http://www.w3.org/2000/svg">
<path d="M17.756 23.5715C17.9221 23.0058 18.0084 22.4146 18.0084 21.8219C18.0084 18.4563 15.3131 15.7183 12 15.7183C8.68692 15.7183 5.99156 18.4563 5.99156 21.8219C5.99156 22.4147 6.07786 23.0058 6.24398 23.5715H0.714264C0.319787 23.5715 0 23.8913 0 24.2858C0 24.6803 0.319787 25.0001 0.714264 25.0001H23.2857C23.6802 25.0001 24 24.6803 24 24.2858C24 23.8913 23.6802 23.5715 23.2857 23.5715H17.756Z" fill="#FFCB27"/>
<path d="M12.7031 13.5885V12.1377C12.7031 11.7494 12.3883 11.4346 12 11.4346C11.6117 11.4346 11.2969 11.7494 11.2969 12.1377V13.5885C11.2969 13.9768 11.6117 14.2916 12 14.2916C12.3883 14.2916 12.7031 13.9768 12.7031 13.5885Z" fill="#FFCB27"/>
<path d="M16.1574 13.0852L15.4482 14.3317C15.2554 14.6706 15.3717 15.1053 15.7079 15.3027C16.0441 15.5001 16.4729 15.3854 16.6657 15.0466L17.3749 13.8001C17.5677 13.4612 17.4515 13.0265 17.1153 12.8291C16.7791 12.6317 16.3502 12.7464 16.1574 13.0852Z" fill="#FFCB27"/>
<path d="M19.8925 16.3754L18.6838 17.0829C18.3447 17.2815 18.227 17.7194 18.4209 18.0612C18.6148 18.403 19.0468 18.5191 19.3859 18.3206L20.5946 17.613C20.9337 17.4145 21.0514 16.9765 20.8575 16.6347C20.6636 16.293 20.2316 16.1769 19.8925 16.3754Z" fill="#FFCB27"/>
<path d="M21.5114 21.1182L20.1274 21.1164C19.733 21.1158 19.4128 21.4352 19.4124 21.8297C19.412 22.2242 19.7314 22.5444 20.1259 22.5449L21.5098 22.5467C21.9043 22.5472 22.2245 22.2279 22.2249 21.8334C22.2253 21.4389 21.9059 21.1187 21.5114 21.1182Z" fill="#FFCB27"/>
<path d="M8.50988 14.3308L7.80088 13.0844C7.60813 12.7456 7.17932 12.6309 6.84312 12.8282C6.50692 13.0256 6.39063 13.4602 6.58339 13.7991L7.29239 15.0455C7.48514 15.3844 7.91394 15.4991 8.25015 15.3017C8.58635 15.1044 8.70263 14.6697 8.50988 14.3308Z" fill="#FFCB27"/>
<path d="M5.27382 17.0834L4.06508 16.3757C3.726 16.1772 3.29395 16.2934 3.10007 16.6351C2.90619 16.9769 3.02391 17.4148 3.36299 17.6133L4.57173 18.321C4.91081 18.5195 5.34286 18.4033 5.53674 18.0616C5.73062 17.7198 5.6129 17.2819 5.27382 17.0834Z" fill="#FFCB27"/>
<path d="M3.83163 21.1176L2.44766 21.1193C2.05319 21.1197 1.73378 21.4399 1.73426 21.8344C1.73473 22.2289 2.0549 22.5483 2.44938 22.5478L3.83335 22.5461C4.22782 22.5457 4.54723 22.2255 4.54675 21.831C4.54628 21.4365 4.22611 21.1171 3.83163 21.1176Z" fill="#FFCB27"/>
<path d="M12 8.82617V1.00008M12 1.00008L14 3.60878M12 1.00008L10 3.60878" stroke="#FFCB27" stroke-linecap="round" stroke-linejoin="round"/>
</svg>
