<svg width="42" height="34" viewBox="0 0 42 34" fill="none" xmlns="http://www.w3.org/2000/svg">
<g clip-path="url(#clip0)">
<path d="M20.8031 24.2848C16.8127 24.2848 13.5778 21.0114 13.5778 16.9734C13.5778 12.9355 16.8127 9.66211 20.8031 9.66211C24.7936 9.66211 28.0284 12.9355 28.0284 16.9734C28.0284 21.0114 24.7936 24.2848 20.8031 24.2848Z" fill="#FFCB27"/>
<path d="M20.8031 8.10188C21.6694 8.10188 22.3716 7.38469 22.3716 6.51477V1.56086C22.3716 0.684302 21.6628 -0.0262451 20.8031 -0.0262451C19.9369 -0.0262451 19.2347 0.690942 19.2347 1.56086V6.51477C19.2347 7.39133 19.9434 8.10188 20.8031 8.10188Z" fill="#FFCB27"/>
<path d="M20.8031 33.9801C21.6694 33.9801 22.3716 33.2629 22.3716 32.3929V27.439C22.3716 26.5625 21.6628 25.8519 20.8031 25.8519C19.9369 25.8519 19.2347 26.5691 19.2347 27.439V32.3929C19.2347 33.2629 19.9434 33.9801 20.8031 33.9801Z" fill="#FFCB27"/>
<path d="M4.00312 16.9735C4.00312 17.85 4.71187 18.5606 5.57156 18.5606H10.4672C11.3334 18.5606 12.0356 17.8434 12.0356 16.9735C12.0356 16.0969 11.3269 15.3864 10.4672 15.3864H5.57156C4.71187 15.3864 4.00312 16.1035 4.00312 16.9735Z" fill="#FFCB27"/>
<path d="M29.5706 16.9735C29.5706 17.85 30.2794 18.5606 31.1391 18.5606H36.0347C36.9009 18.5606 37.6031 17.8434 37.6031 16.9735C37.6031 16.0969 36.8944 15.3864 36.0347 15.3864H31.1391C30.2794 15.3864 29.5706 16.1035 29.5706 16.9735Z" fill="#FFCB27"/>
<path d="M14.6081 10.7047C15.2184 10.0871 15.2184 9.07774 14.6081 8.45352L11.1497 4.95391C10.5394 4.33633 9.54188 4.33633 8.92501 4.95391C8.3147 5.57149 8.3147 6.58086 8.92501 7.20508L12.3834 10.7047C12.9938 11.3223 13.9978 11.3223 14.6081 10.7047Z" fill="#FFCB27"/>
<path d="M32.6878 28.9996C33.2981 28.382 33.2981 27.3727 32.6878 26.7484L29.2294 23.2488C28.6191 22.6312 27.6216 22.6312 27.0047 23.2488C26.3944 23.8664 26.3944 24.8758 27.0047 25.5L30.4631 28.9996C31.0734 29.6172 32.0775 29.6172 32.6878 28.9996Z" fill="#FFCB27"/>
<path d="M8.92501 28.9996C9.53532 29.6172 10.5328 29.6172 11.1497 28.9996L14.6081 25.5C15.2184 24.8824 15.2184 23.873 14.6081 23.2488C13.9978 22.6312 13.0003 22.6312 12.3834 23.2488L8.92501 26.7484C8.3147 27.366 8.3147 28.382 8.92501 28.9996Z" fill="#FFCB27"/>
<path d="M27.0047 10.7047C27.615 11.3223 28.6125 11.3223 29.2294 10.7047L32.6878 7.20508C33.2981 6.5875 33.2981 5.57813 32.6878 4.95391C32.0775 4.33633 31.08 4.33633 30.4631 4.95391L27.0047 8.45352C26.3944 9.0711 26.3944 10.0871 27.0047 10.7047Z" fill="#FFCB27"/>
</g>
<defs>
<clipPath id="clip0">
<rect width="42" height="34" fill="white" transform="matrix(-1 0 0 1 42 0)"/>
</clipPath>
</defs>
</svg>
