<svg width="28" height="26" viewBox="0 0 28 26" fill="none" xmlns="http://www.w3.org/2000/svg">
<path d="M20.2814 24.512C20.4627 23.9227 20.5568 23.3069 20.5568 22.6895C20.5568 19.1837 17.6155 16.3315 14 16.3315C10.3846 16.3315 7.4432 19.1837 7.4432 22.6895C7.4432 23.307 7.53737 23.9227 7.71866 24.512H1.64881C1.2379 24.512 0.904785 24.8452 0.904785 25.2561C0.904785 25.667 1.2379 26.0001 1.64881 26.0001H26.3512C26.7621 26.0001 27.0953 25.667 27.0953 25.2561C27.0953 24.8452 26.7621 24.512 26.3512 24.512H20.2814Z" fill="#FFCB27"/>
<path d="M14.7673 14.0784V12.6369C14.7673 12.2132 14.4238 11.8696 14 11.8696C13.5763 11.8696 13.2327 12.2132 13.2327 12.6369V14.0784C13.2327 14.5022 13.5763 14.8457 14 14.8457C14.4238 14.8457 14.7673 14.5022 14.7673 14.0784Z" fill="#FFCB27"/>
<path d="M18.5281 13.6038L17.7721 14.8721C17.5568 15.2334 17.6796 15.693 18.0465 15.8986C18.4134 16.1042 18.8854 15.9781 19.1008 15.6168L19.8568 14.3484C20.0721 13.9871 19.9493 13.5275 19.5824 13.3219C19.2155 13.1163 18.7435 13.2425 18.5281 13.6038Z" fill="#FFCB27"/>
<path d="M22.6285 17.0074L21.2787 17.7617C20.9171 17.9637 20.7956 18.4161 21.0072 18.7721C21.2188 19.1281 21.6833 19.2529 22.0449 19.0509L23.3947 18.2966C23.7562 18.0946 23.8778 17.6422 23.6662 17.2862C23.4546 16.9302 22.99 16.8054 22.6285 17.0074Z" fill="#FFCB27"/>
<path d="M24.4146 21.9566L22.8335 21.9547C22.4226 21.9541 22.0891 22.2868 22.0886 22.6977C22.0882 23.1087 22.4209 23.4422 22.8318 23.4427L24.4129 23.4447C24.8238 23.4452 25.1573 23.1125 25.1578 22.7016C25.1583 22.2907 24.8256 21.9572 24.4146 21.9566Z" fill="#FFCB27"/>
<path d="M10.1821 14.8712L9.42631 13.6029C9.21102 13.2416 8.73908 13.1154 8.37219 13.321C8.00531 13.5265 7.88241 13.986 8.0977 14.3473L8.85351 15.6156C9.0688 15.9769 9.54075 16.1031 9.90764 15.8975C10.2745 15.692 10.3974 15.2324 10.1821 14.8712Z" fill="#FFCB27"/>
<path d="M6.67546 17.7618L5.32552 17.0075C4.96402 16.8055 4.49945 16.9303 4.28787 17.2863C4.0763 17.6423 4.19784 18.0946 4.55934 18.2966L5.90929 19.051C6.27079 19.253 6.73536 19.1282 6.94694 18.7722C7.15851 18.4162 7.03697 17.9638 6.67546 17.7618Z" fill="#FFCB27"/>
<path d="M5.12174 21.9553L3.5406 21.9572C3.12968 21.9577 2.79697 22.2912 2.79746 22.7021C2.79796 23.113 3.13147 23.4457 3.54238 23.4452L5.12352 23.4433C5.53444 23.4428 5.86715 23.1093 5.86666 22.6984C5.86616 22.2875 5.53265 21.9548 5.12174 21.9553Z" fill="#FFCB27"/>
<path d="M14.0001 1V9.15217M14.0001 9.15217L16.1826 6.43478M14.0001 9.15217L11.8176 6.43478" stroke="#FFCB27" stroke-linecap="round" stroke-linejoin="round"/>
</svg>
