<svg width="40" height="40" viewBox="0 0 40 40" fill="none" xmlns="http://www.w3.org/2000/svg">
<rect width="40" height="40" rx="2" fill="white"/>
<path d="M34.7366 11.2559C33.6406 11.7367 32.4727 12.0554 31.255 12.2101C32.5077 11.4622 33.1577 10.3946 33.9132 8.87037C32.7453 9.56669 31.4558 10.0585 30.0816 10.333C28.9727 9.15221 27.3922 8.4209 25.6679 8.4209C22.3227 8.4209 19.6295 11.1362 19.6295 14.4648C19.6295 14.9438 19.67 15.4043 19.7695 15.8427C14.7461 15.5977 10.3011 13.1901 7.31504 9.52248C6.79373 10.427 6.48794 11.4622 6.48794 12.5767C6.48794 14.6693 8.39347 17.2154 9.99978 18.2893C9.02899 18.2709 7.24873 17.298 6.44189 16.8541C6.44189 16.8725 6.44189 16.8964 6.44189 16.9204C6.44189 19.8567 9.35847 22.4643 12.105 23.0262C11.6132 23.1606 10.255 23.0564 9.69873 23.0564C9.31189 23.0564 8.92136 23.0343 8.55478 22.9533C9.33768 25.3462 11.5593 27.1054 14.2008 27.1625C12.145 28.7706 9.53478 29.7396 6.70899 29.7396C6.21347 29.7396 5.7382 29.7175 5.26294 29.6567C7.93952 31.3827 11.1116 32.3683 14.5324 32.3683C25.6514 32.3683 31.7303 23.1577 31.7303 15.1741C31.7303 14.907 31.7211 14.6491 31.7082 14.393C32.9074 13.542 33.915 12.4791 34.7366 11.2559Z" fill="#353A3E"/>
</svg>
