<svg width="50" height="50" viewBox="0 0 50 50" fill="none" xmlns="http://www.w3.org/2000/svg">
<rect width="50" height="50" rx="2" fill="white"/>
<path d="M43.4208 14.0701C42.0508 14.6711 40.5909 15.0695 39.0689 15.2629C40.6347 14.328 41.4472 12.9935 42.3916 11.0882C40.9317 11.9586 39.3199 12.5734 37.6021 12.9165C36.2159 11.4405 34.2402 10.5264 32.085 10.5264C27.9034 10.5264 24.537 13.9204 24.537 18.0813C24.537 18.68 24.5876 19.2556 24.712 19.8037C18.4327 19.4974 12.8764 16.4879 9.14387 11.9033C8.49222 13.0339 8.10999 14.328 8.10999 15.7211C8.10999 18.3369 10.4919 21.5195 12.4998 22.8619C11.2863 22.8389 9.06097 21.6227 8.05242 21.0678C8.05242 21.0908 8.05242 21.1208 8.05242 21.1507C8.05242 24.8211 11.6981 28.0806 15.1314 28.7829C14.5166 28.951 12.8189 28.8208 12.1235 28.8208C11.6399 28.8208 11.1518 28.7931 10.6935 28.6918C11.6722 31.6829 14.4491 33.882 17.7511 33.9533C15.1814 35.9635 11.9185 37.1747 8.3863 37.1747C7.76689 37.1747 7.17281 37.1471 6.57874 37.0711C9.92446 39.2287 13.8896 40.4606 18.1656 40.4606C32.0643 40.4606 39.6629 28.9474 39.6629 18.9678C39.6629 18.6339 39.6514 18.3116 39.6353 17.9915C41.1343 16.9277 42.3939 15.5991 43.4208 14.0701Z" fill="#9A9A9A"/>
</svg>
