<svg width="34" height="30" viewBox="0 0 34 30" fill="none" xmlns="http://www.w3.org/2000/svg">
<path d="M15.241 18.5273V25.6348C15.241 26.1152 14.8455 26.5078 14.3614 26.5078C13.9305 26.5078 13.6354 26.2207 13.5292 25.9219C13.2045 25.0137 12.2069 24.5391 11.2861 24.8555C10.3712 25.1777 9.89304 26.1738 10.2118 27.082C10.8257 28.8223 12.4962 29.9883 14.3555 29.9883C16.7816 29.9883 18.7531 28.0312 18.7531 25.623V18.5215C18.2514 18.0879 17.667 17.7773 16.9941 17.7773C16.3212 17.7891 15.7663 18.041 15.241 18.5273Z" fill="#B2B2B2"/>
<path d="M32.8076 17.3906C32.176 14.3965 30.8184 11.8828 29.0003 9.90234C28.7937 10.2305 28.5399 10.5352 28.2389 10.8105C27.3417 11.6367 26.1552 12.0879 24.8979 12.0879C23.6406 12.0879 22.4542 11.6309 21.5569 10.8105C20.6361 9.9668 20.1285 8.83008 20.1285 7.62305C20.1285 6.63281 20.4708 5.85938 20.9135 5.17383C20.2052 4.99805 19.4792 4.875 18.7531 4.79297V3.82031C18.7531 2.85352 17.968 2.07422 16.9941 2.07422C16.0201 2.07422 15.2351 2.85352 15.2351 3.82031V4.79883C8.76562 5.49023 2.79201 9.96094 1.18645 17.3906C1.0684 17.9414 1.65277 18.5508 2.21354 18.0117C5.07048 15.0117 8.13402 15.1523 10.926 20.0273C11.2153 20.543 11.7465 20.4961 12.0062 20.0273C13.116 18.0938 14.4736 16.0371 16.9882 16.0371C20.2052 16.0371 21.8344 19.7871 21.9701 20.0273C22.2358 20.4961 22.7611 20.543 23.0503 20.0273C25.8542 15.1465 28.9354 15.041 31.7628 18.0117C32.3472 18.5566 32.9316 17.9414 32.8076 17.3906Z" fill="#B2B2B2"/>
<path d="M30.0215 0.181667C29.6083 1.45901 28.717 1.80471 28.717 2.70706C28.717 3.50393 29.4194 4.14846 30.2812 4.14846C31.1489 4.14846 31.8455 3.50393 31.8455 2.70706C31.8455 1.79885 30.96 1.46487 30.5409 0.181667C30.4701 -0.0527076 30.0982 -0.0644263 30.0215 0.181667Z" fill="#4C91E2"/>
<path d="M24.2899 1.71101C23.3159 4.69929 21.2323 5.51374 21.2323 7.62312C21.2323 9.4864 22.8732 10.9981 24.8979 10.9981C26.9225 10.9981 28.5635 9.4864 28.5635 7.62312C28.5635 5.50203 26.4857 4.71687 25.5059 1.71101C25.3406 1.16609 24.4729 1.13679 24.2899 1.71101Z" fill="#4C91E2"/>
</svg>
