<svg width="9" height="9" viewBox="0 0 9 9" fill="none" xmlns="http://www.w3.org/2000/svg">
<path d="M0.35558 0.0226506L8.83526 4.19769C8.93467 4.24665 8.99999 4.36653 9 4.49999C8.99999 4.63345 8.93465 4.75336 8.83525 4.8023L0.35556 8.97735C0.258799 9.02499 0.149136 8.99591 0.0762524 8.90488C0.0727817 8.90055 0.0693845 8.89606 0.0661101 8.89148C-0.00646721 8.78995 -0.0207058 8.6427 0.0304465 8.52253L1.28056 5.58518C1.56975 4.9057 1.56975 4.09434 1.28056 3.41482L0.0304545 0.477485C-0.0206734 0.357316 -0.00644755 0.210049 0.0661174 0.108538C0.138682 0.00702589 0.254208 -0.0272552 0.35558 0.0226506Z" fill="#343434"/>
</svg>
