<svg width="42" height="23" viewBox="0 0 42 23" fill="none" xmlns="http://www.w3.org/2000/svg">
<rect x="0.5" y="0.5" width="41" height="22" rx="11" stroke="#222222"/>
<path d="M26.3556 7.02265L34.8353 11.1977C34.9347 11.2466 35 11.3665 35 11.5C35 11.6335 34.9346 11.7534 34.8352 11.8023L26.3556 15.9773C26.2588 16.025 26.1491 15.9959 26.0763 15.9049C26.0728 15.9005 26.0694 15.8961 26.0661 15.8915C25.9935 15.79 25.9793 15.6427 26.0304 15.5225L27.2806 12.5852C27.5697 11.9057 27.5697 11.0943 27.2806 10.4148L26.0305 7.47749C25.9793 7.35732 25.9936 7.21005 26.0661 7.10854C26.1387 7.00703 26.2542 6.97274 26.3556 7.02265Z" fill="#343434"/>
<path d="M17.0967 17H15.9482L13.9316 10.3076C13.8359 10.0114 13.7288 9.6377 13.6104 9.18652C13.4919 8.73535 13.4303 8.46419 13.4258 8.37305C13.3255 8.97461 13.166 9.63314 12.9473 10.3486L10.9922 17H9.84375L7.18457 7.00586H8.41504L9.99414 13.1787C10.2129 14.0446 10.3724 14.8285 10.4727 15.5303C10.5957 14.6963 10.778 13.8805 11.0195 13.083L12.8105 7.00586H14.041L15.9209 13.1377C16.1396 13.8441 16.3242 14.6416 16.4746 15.5303C16.5612 14.8831 16.7253 14.0947 16.9668 13.165L18.5391 7.00586H19.7695L17.0967 17Z" fill="#343434"/>
</svg>
