<svg width="50" height="50" viewBox="0 0 50 50" fill="none" xmlns="http://www.w3.org/2000/svg">
<rect width="50" height="50" rx="2" fill="white"/>
<path d="M29.4608 31.5596C29.4596 31.382 29.3965 31.1971 29.3171 31.0309C29.2112 30.8125 28.9844 30.7039 28.6995 30.6809C28.3655 30.6537 28.0983 30.7655 27.8563 30.9431C27.7592 31.0132 27.7151 31.1176 27.7151 31.1176L27.7202 36.757V36.896C27.7202 36.896 27.7781 36.9608 27.787 36.9691C27.9836 37.1457 28.213 37.2857 28.5067 37.3359C28.9907 37.4184 29.3323 37.2513 29.4268 36.8793C29.4507 36.7863 29.4646 36.6901 29.4646 36.5951C29.4671 34.9159 29.4709 33.2378 29.4608 31.5596ZM29.4608 31.5596C29.4596 31.382 29.3965 31.1971 29.3171 31.0309C29.2112 30.8125 28.9844 30.7039 28.6995 30.6809C28.3655 30.6537 28.0983 30.7655 27.8563 30.9431C27.7592 31.0132 27.7151 31.1176 27.7151 31.1176L27.7202 36.757V36.896C27.7202 36.896 27.7781 36.9608 27.787 36.9691C27.9836 37.1457 28.213 37.2857 28.5067 37.3359C28.9907 37.4184 29.3323 37.2513 29.4268 36.8793C29.4507 36.7863 29.4646 36.6901 29.4646 36.5951C29.4671 34.9159 29.4709 33.2378 29.4608 31.5596ZM37.0776 23.0551C29.0272 22.912 20.9731 22.912 12.9215 23.0551C10.1284 23.1042 7.8949 24.9976 7.8949 27.3142V37.7382C7.8949 40.0558 10.1284 41.9492 12.9215 41.9983C20.9731 42.1414 29.0272 42.1414 37.0776 41.9983C39.8719 41.9492 42.1054 40.0558 42.1054 37.7382V27.3142C42.1054 24.9977 39.8719 23.1042 37.0776 23.0551ZM15.286 38.6881H12.9643V27.8075H10.5607V25.9872H17.6947V27.8033H15.286V38.6881ZM23.5948 34.1719V38.6891H21.539V37.6567C21.4647 37.7225 21.4231 37.758 21.384 37.7946C20.9416 38.2084 20.4399 38.5532 19.7996 38.7361C19.487 38.8249 19.1656 38.8552 18.8367 38.8082C18.388 38.7465 18.0867 38.5323 17.9052 38.1938C17.7363 37.8813 17.6935 37.547 17.6922 37.2105C17.6872 35.9671 17.6897 29.3862 17.6897 29.3225H19.7404C19.7442 29.38 19.7517 34.104 19.753 36.408C19.753 36.5334 19.7543 36.6619 19.7845 36.7842C19.8601 37.0935 20.1463 37.2262 20.5055 37.1175C20.9189 36.9921 21.234 36.756 21.4987 36.4728C21.5378 36.432 21.5378 36.3589 21.5378 36.3004V29.312L23.5948 29.3079C23.5948 29.308 23.5948 32.6066 23.5948 34.1719ZM31.4157 37.7863C31.141 38.4717 30.536 38.8207 29.6663 38.8134C28.9592 38.8082 28.3857 38.5752 27.913 38.1499C27.8601 38.1029 27.7139 37.9743 27.7139 37.9743V38.687H25.6543V25.9861H27.7139C27.7139 27.3382 27.7139 30.1668 27.7139 30.1668C27.7139 30.1668 27.8298 29.9745 27.9357 29.8752C28.2546 29.5795 28.6428 29.3507 29.1218 29.2504C29.912 29.0863 30.8233 29.2891 31.2569 30.055C31.5128 30.5074 31.5846 30.9902 31.5846 31.4813C31.5884 33.2566 31.5884 35.0319 31.5859 36.8072C31.5846 37.1395 31.543 37.4677 31.4157 37.7863ZM39.0224 37.429C38.6657 38.2952 37.9284 38.7759 36.8469 38.9075C36.1764 38.989 35.5121 38.9776 34.8832 38.7414C34.0223 38.4196 33.5345 37.8376 33.3253 37.0967C33.2282 36.7519 33.1803 36.3904 33.1753 36.0361C33.1589 34.6454 33.1665 33.2535 33.1702 31.8628C33.1715 31.1355 33.3807 30.4647 33.982 29.9077C34.6676 29.2714 35.5449 29.0342 36.5469 29.0875C36.8482 29.1032 37.1557 29.1439 37.4418 29.2223C38.4162 29.4877 38.9367 30.0927 39.1409 30.8952C39.219 31.2045 39.248 31.5253 39.2543 31.8419C39.2707 32.5838 39.248 34.219 39.248 34.219H35.3042V36.5628C35.3042 36.9839 35.7151 37.3245 36.223 37.3245C36.7297 37.3245 37.1406 36.9839 37.1406 36.5628V35.358H39.2594C39.2594 35.3579 39.2909 36.7801 39.0224 37.429ZM37.1406 31.45C37.1406 31.03 36.7297 30.6883 36.223 30.6883C35.7151 30.6883 35.3042 31.03 35.3042 31.45V32.7656H37.1406V31.45ZM29.3171 31.031C29.2112 30.8126 28.9844 30.704 28.6995 30.681C28.3655 30.6538 28.0983 30.7656 27.8563 30.9432C27.7592 31.0133 27.7151 31.1177 27.7151 31.1177L27.7202 36.7571V36.8961C27.7202 36.8961 27.7781 36.9609 27.787 36.9692C27.9836 37.1458 28.213 37.2858 28.5067 37.336C28.9907 37.4186 29.3323 37.2514 29.4268 36.8794C29.4507 36.7864 29.4646 36.6902 29.4646 36.5952C29.4671 34.916 29.4709 33.2379 29.4608 31.5597C29.4596 31.382 29.3965 31.1971 29.3171 31.031Z" fill="#9A9A9A"/>
<path d="M35 11.0005L34.9994 19.8803H32.8715L32.8741 18.9264C32.6388 19.1056 32.438 19.2729 32.2173 19.4233C31.8262 19.6897 31.3831 19.8884 30.8648 19.9668C30.0691 20.0872 29.3914 19.8926 29.1377 19.2554C29.0532 19.0432 29.0022 18.8144 29 18.5928V11.0005H31.1118V17.7724C31.1118 17.8621 31.1211 17.9528 31.1415 18.0408C31.2056 18.3198 31.4723 18.4512 31.8198 18.358C32.2434 18.2447 32.5666 18.0179 32.8409 17.7506C32.8798 17.7124 32.8728 17.6412 32.8728 17.5852V11.0005H35Z" fill="#9A9A9A"/>
<path d="M16.8543 12.6947C16.3659 11.1519 15.3426 7.89502 15.3426 7.89502C14.3416 7.97065 13.7842 7.967 12.7821 7.89502C12.7821 7.89502 14.7493 12.7839 15.629 14.9643C15.6607 15.0431 15.6752 15.1287 15.6752 15.2113L15.6743 20.2108H18.0353L18.0344 15.2113C18.0344 15.1287 18.0489 15.0431 18.0805 14.9643C18.9603 12.7839 20.9275 7.89502 20.9275 7.89502C19.9249 7.94583 19.3722 7.94258 18.367 7.89502C18.367 7.89502 17.3426 11.1519 16.8543 12.6947Z" fill="#9A9A9A"/>
<path d="M24.1854 10.6318C22.386 10.6318 20.9272 11.7156 20.9272 13.0526V17.79C20.9272 19.127 22.386 20.2108 24.1854 20.2108C25.9848 20.2108 27.4435 19.127 27.4435 17.79V13.0526C27.4437 11.7156 25.9848 10.6318 24.1854 10.6318ZM25.1257 17.8857C25.1257 18.2709 24.7038 18.5842 24.1855 18.5842C23.6672 18.5842 23.2454 18.2709 23.2454 17.8857V12.9568C23.2454 12.5716 23.6672 12.2583 24.1855 12.2583C24.7038 12.2583 25.1257 12.5717 25.1257 12.9568V17.8857Z" fill="#9A9A9A"/>
</svg>
