<svg width="170" height="48" viewBox="0 0 170 48" fill="none" xmlns="http://www.w3.org/2000/svg">
<rect width="170" height="48" rx="2" fill="white"/>
<path d="M89.5141 30.2971C89.5128 30.1266 89.449 29.949 89.3687 29.7896C89.2615 29.5799 89.0319 29.4756 88.7437 29.4535C88.4057 29.4274 88.1353 29.5348 87.8904 29.7053C87.7922 29.7725 87.7476 29.8728 87.7476 29.8728L87.7527 35.2866V35.42C87.7527 35.42 87.8114 35.4822 87.8203 35.4902C88.0193 35.6598 88.2514 35.7942 88.5486 35.8423C89.0383 35.9216 89.384 35.7611 89.4796 35.404C89.5039 35.3147 89.5179 35.2224 89.5179 35.1311C89.5204 33.5191 89.5243 31.9081 89.5141 30.2971ZM89.5141 30.2971C89.5128 30.1266 89.449 29.949 89.3687 29.7896C89.2615 29.5799 89.0319 29.4756 88.7437 29.4535C88.4057 29.4274 88.1353 29.5348 87.8904 29.7053C87.7922 29.7725 87.7476 29.8728 87.7476 29.8728L87.7527 35.2866V35.42C87.7527 35.42 87.8114 35.4822 87.8203 35.4902C88.0193 35.6598 88.2514 35.7942 88.5486 35.8423C89.0383 35.9216 89.384 35.7611 89.4796 35.404C89.5039 35.3147 89.5179 35.2224 89.5179 35.1311C89.5204 33.5191 89.5243 31.9081 89.5141 30.2971ZM97.2215 22.1328C89.0753 21.9954 80.9253 21.9954 72.7778 22.1328C69.9515 22.1799 67.6914 23.9976 67.6914 26.2215V36.2285C67.6914 38.4534 69.9515 40.2711 72.7778 40.3182C80.9253 40.4557 89.0753 40.4557 97.2215 40.3182C100.049 40.2711 102.309 38.4534 102.309 36.2285V26.2215C102.309 23.9977 100.049 22.1799 97.2215 22.1328ZM75.1705 37.1405H72.8212V26.695H70.3889V24.9476H77.6079V26.691H75.1705V37.1405V37.1405ZM83.5782 32.8049V37.1414H81.498V36.1503C81.4227 36.2135 81.3806 36.2476 81.3411 36.2827C80.8934 36.6799 80.3858 37.011 79.7379 37.1865C79.4216 37.2718 79.0963 37.3009 78.7634 37.2557C78.3094 37.1965 78.0046 36.9909 77.8209 36.6659C77.65 36.366 77.6066 36.045 77.6053 35.722C77.6002 34.5283 77.6028 28.2107 77.6028 28.1495H79.6779C79.6817 28.2046 79.6894 32.7397 79.6907 34.9516C79.6907 35.0719 79.692 35.1953 79.7226 35.3127C79.7991 35.6096 80.0886 35.737 80.4521 35.6327C80.8705 35.5123 81.1893 35.2856 81.4572 35.0138C81.4967 34.9746 81.4967 34.9044 81.4967 34.8482V28.1394L83.5782 28.1354C83.5782 28.1355 83.5782 31.3022 83.5782 32.8049ZM91.4923 36.2747C91.2142 36.9327 90.602 37.2678 89.722 37.2607C89.0064 37.2557 88.4261 37.032 87.9478 36.6238C87.8943 36.5786 87.7463 36.4552 87.7463 36.4552V37.1394H85.6623V24.9465H87.7463C87.7463 26.2445 87.7463 28.96 87.7463 28.96C87.7463 28.96 87.8636 28.7754 87.9708 28.6801C88.2935 28.3962 88.6863 28.1765 89.171 28.0802C89.9707 27.9228 90.8928 28.1174 91.3315 28.8526C91.5905 29.287 91.6632 29.7504 91.6632 30.2219C91.667 31.9262 91.667 33.6305 91.6644 35.3348C91.6632 35.6537 91.6211 35.9688 91.4923 36.2747ZM99.1895 35.9317C98.8285 36.7633 98.0824 37.2247 96.9881 37.3511C96.3096 37.4294 95.6374 37.4183 95.001 37.1916C94.1298 36.8827 93.6363 36.3239 93.4245 35.6127C93.3263 35.2817 93.2779 34.9346 93.2728 34.5946C93.2562 33.2594 93.2638 31.9233 93.2677 30.5881C93.2689 29.89 93.4807 29.246 94.089 28.7113C94.7829 28.1004 95.6706 27.8727 96.6845 27.9239C96.9894 27.9389 97.3006 27.978 97.5901 28.0533C98.576 28.3081 99.1028 28.8889 99.3094 29.6592C99.3885 29.9562 99.4178 30.2641 99.4242 30.5681C99.4408 31.2803 99.4178 32.8501 99.4178 32.8501H95.427V35.1001C95.427 35.5044 95.8428 35.8314 96.3568 35.8314C96.8695 35.8314 97.2853 35.5044 97.2853 35.1001V33.9435H99.4293C99.4293 33.9434 99.4612 35.3088 99.1895 35.9317ZM97.2853 30.1919C97.2853 29.7886 96.8695 29.4606 96.3568 29.4606C95.8428 29.4606 95.427 29.7886 95.427 30.1919V31.4548H97.2853V30.1919ZM89.3687 29.7896C89.2615 29.58 89.0319 29.4757 88.7437 29.4536C88.4057 29.4275 88.1353 29.5349 87.8904 29.7054C87.7922 29.7726 87.7476 29.8729 87.7476 29.8729L87.7527 35.2867V35.4201C87.7527 35.4201 87.8114 35.4823 87.8203 35.4903C88.0193 35.6599 88.2514 35.7943 88.5486 35.8424C89.0383 35.9217 89.384 35.7612 89.4796 35.4041C89.5039 35.3148 89.5179 35.2225 89.5179 35.1312C89.5204 33.5192 89.5243 31.9082 89.5141 30.2972C89.5128 30.1266 89.449 29.949 89.3687 29.7896Z" fill="#353A3E"/>
<path d="M95.1193 10.5603L95.1186 19.085H92.9655L92.968 18.1692C92.73 18.3412 92.5268 18.5019 92.3035 18.6462C91.9077 18.902 91.4593 19.0927 90.9349 19.168C90.1297 19.2836 89.4439 19.0968 89.1872 18.4851C89.1017 18.2813 89.05 18.0617 89.0479 17.849V10.5603H91.1848V17.0613C91.1848 17.1475 91.1942 17.2346 91.2148 17.319C91.2797 17.5869 91.5496 17.713 91.9012 17.6236C92.3299 17.5147 92.6569 17.297 92.9344 17.0405C92.9738 17.0038 92.9668 16.9354 92.9668 16.8817V10.5603H95.1193Z" fill="#353A3E"/>
<path d="M76.7574 12.1868C76.2632 10.7057 75.2277 7.57909 75.2277 7.57909C74.2148 7.65169 73.6507 7.6482 72.6367 7.57909C72.6367 7.57909 74.6274 12.2724 75.5176 14.3656C75.5496 14.4413 75.5643 14.5234 75.5643 14.6027L75.5633 19.4022H77.9525L77.9515 14.6027C77.9515 14.5234 77.9662 14.4413 77.9982 14.3656C78.8884 12.2724 80.8791 7.57909 80.8791 7.57909C79.8646 7.62787 79.3052 7.62474 78.2881 7.57909C78.2881 7.57909 77.2515 10.7057 76.7574 12.1868Z" fill="#353A3E"/>
<path d="M84.1758 10.2065C82.355 10.2065 80.8789 11.2469 80.8789 12.5304V17.0784C80.8789 18.3618 82.355 19.4023 84.1758 19.4023C85.9967 19.4023 87.4728 18.3618 87.4728 17.0784V12.5304C87.4729 11.2469 85.9967 10.2065 84.1758 10.2065ZM85.1273 17.1702C85.1273 17.54 84.7005 17.8407 84.176 17.8407C83.6515 17.8407 83.2247 17.54 83.2247 17.1702V12.4385C83.2247 12.0687 83.6515 11.7679 84.176 11.7679C84.7005 11.7679 85.1273 12.0688 85.1273 12.4385V17.1702Z" fill="#353A3E"/>
</svg>
